<?xml version="1.0" encoding="iso-8859-1"?>
<!-- Generator: Adobe Illustrator 19.0.0, SVG Export Plug-In . SVG Version: 6.00 Build 0)  -->
<svg version="1.1" id="Capa_1" xmlns="http://www.w3.org/2000/svg" xmlns:xlink="http://www.w3.org/1999/xlink" x="0px" y="0px"
	 viewBox="0 0 460 460" style="enable-background:new 0 0 460 460;" xml:space="preserve">
<g id="XMLID_967_">
	<path id="XMLID_968_" style="fill:#FF8417;" d="M40,315c22.091,0,40-17.909,40-40H0C0,297.091,17.909,315,40,315z"/>
	<path id="XMLID_969_" style="fill:#FF9C0F;" d="M275,125.745V95h-30v30.745c4.934-0.49,9.937-0.745,15-0.745
		S270.066,125.254,275,125.745z"/>
	<path id="XMLID_970_" style="fill:#FFDA88;" d="M204.975,102.961l-27.716,11.48l11.523,27.82
		c8.789-4.637,18.096-8.423,27.809-11.258L204.975,102.961z"/>
	<polygon id="XMLID_971_" style="fill:#FFDA88;" points="143.327,137.114 122.114,158.327 136.729,172.942 163.624,157.411 	"/>
	<path id="XMLID_972_" style="fill:#FF9C0F;" d="M342.741,114.442l-27.716-11.48l-11.757,28.384
		c9.687,2.914,18.962,6.775,27.714,11.486L342.741,114.442z"/>
	<path id="XMLID_973_" style="fill:#CA6033;" d="M110,255.079c5.613-42.293,28.85-79.014,62.084-102.553l-8.459,4.885
		l-26.895,15.531L20.026,240.336c-0.252,0.159-0.513,0.3-0.767,0.455c-0.55,0.334-1.091,0.681-1.623,1.041
		c-3.192,2.156-6.056,4.761-8.502,7.725c-1.63,1.976-3.075,4.11-4.306,6.377c-0.616,1.134-1.178,2.3-1.684,3.497
		C1.119,264.216,0,269.477,0,275h110V255.079z"/>
	<path id="XMLID_974_" style="fill:#943D4F;" d="M380,296.991V365h40v-99.466C408.595,278.154,395.077,288.827,380,296.991z"/>
	<path id="XMLID_975_" style="fill:#943D4F;" d="M190,315v50h40v-36.838c9.37-3.312,18.205-7.752,26.342-13.162H190z"/>
	<path id="XMLID_976_" style="fill:#FF9C0F;" d="M430,195v-30h-30c0,11.307,6.258,21.149,15.497,26.262
		c-8.464,34.422-33.17,62.524-65.497,75.677v42.295c10.518-3.008,20.564-7.134,30-12.243c15.077-8.164,28.595-18.837,40-31.457
		c17.653-19.535,30.238-43.736,35.677-70.534H430z"/>
	<path id="XMLID_977_" style="fill:#FF9C0F;" d="M310,274.984c-0.44,0.005-0.878,0.016-1.319,0.016h-94.739
		c-9.289,16.058-22.194,29.759-37.6,40h132.338c0.441,0,0.879-0.013,1.319-0.017V274.984z"/>
	<path id="XMLID_978_" style="fill:#FF8417;" d="M213.942,275C224.153,257.349,230,236.858,230,215v-87.25
		c-4.547,0.88-9.019,1.973-13.409,3.254c-9.713,2.834-19.02,6.621-27.809,11.258c-5.802,3.062-11.377,6.495-16.698,10.264
		c-33.234,23.54-56.471,60.26-62.084,102.553V365h40v-36.838c9.37-3.312,18.205-7.752,26.342-13.162
		C191.748,304.759,204.653,291.058,213.942,275z M140,290v-30h30v30H140z M148.577,227.99l15-25.98l25.981,15l-15,25.98
		L148.577,227.99z M227.99,189.558l-25.98,15l-15-25.98l25.98-15L227.99,189.558z"/>
	<path id="XMLID_983_" style="fill:#CA6033;" d="M350,266.939c32.327-13.152,57.032-41.254,65.497-75.677
		C406.258,186.149,400,176.307,400,165h-40c0-0.588,0.019-1.172,0.044-1.754c-8.812-7.894-18.56-14.763-29.063-20.415
		c-8.752-4.71-18.028-8.572-27.714-11.486c-9.09-2.734-18.541-4.635-28.268-5.601c-4.934-0.49-9.937-0.745-15-0.745
		s-10.066,0.254-15,0.745c-5.079,0.504-10.083,1.261-15,2.259V215c0,21.858-5.847,42.349-16.058,60h94.739
		c0.441,0,0.879-0.011,1.319-0.016V365h40V266.939z M371.423,227.99l-25.981,15l-15-25.98l25.981-15L371.423,227.99z
		 M332.99,178.577l-15,25.98l-25.98-15l15-25.98L332.99,178.577z M245,155h30v30h-30V155z"/>
	<path id="XMLID_988_" style="fill:#FFDA88;" d="M430,126.26V95h-30v30h20C423.453,125,426.804,125.438,430,126.26z"/>
	<path id="XMLID_989_" style="fill:#CA6033;" d="M400,165h60c0-18.638-12.748-34.299-30-38.74c-3.196-0.823-6.547-1.26-10-1.26h-20
		V165z"/>
	<rect id="XMLID_990_" x="430" y="165" style="fill:#FFDA88;" width="30" height="30"/>
	<path id="XMLID_991_" style="fill:#943D4F;" d="M400,165v-40c-21.503,0-39.037,16.97-39.956,38.246
		C360.019,163.828,360,164.412,360,165H400z"/>
	<rect id="XMLID_992_" x="245" y="155" style="fill:#FF9C0F;" width="30" height="30"/>
	
		<rect id="XMLID_993_" x="192.5" y="169.068" transform="matrix(-0.5 -0.866 0.866 -0.5 151.8443 455.8016)" style="fill:#FFDA88;" width="30" height="30"/>
	
		<rect id="XMLID_994_" x="154.067" y="207.5" transform="matrix(0.866 0.5 -0.5 0.866 133.9009 -54.7243)" style="fill:#FFDA88;" width="30" height="30"/>
	<rect id="XMLID_995_" x="140" y="260" style="fill:#FFDA88;" width="30" height="30"/>
	
		<rect id="XMLID_996_" x="335.933" y="207.5" transform="matrix(-0.5 -0.866 0.866 -0.5 333.7105 637.6667)" style="fill:#FF9C0F;" width="30" height="30"/>
	
		<rect id="XMLID_997_" x="297.5" y="169.068" transform="matrix(-0.866 -0.5 0.5 -0.866 491.0977 499.7253)" style="fill:#FF9C0F;" width="30" height="30"/>
</g>
<g>
</g>
<g>
</g>
<g>
</g>
<g>
</g>
<g>
</g>
<g>
</g>
<g>
</g>
<g>
</g>
<g>
</g>
<g>
</g>
<g>
</g>
<g>
</g>
<g>
</g>
<g>
</g>
<g>
</g>
</svg>
