<?xml version="1.0" encoding="iso-8859-1"?>
<!-- Generator: Adobe Illustrator 19.0.0, SVG Export Plug-In . SVG Version: 6.00 Build 0)  -->
<svg version="1.1" id="Capa_1" xmlns="http://www.w3.org/2000/svg" xmlns:xlink="http://www.w3.org/1999/xlink" x="0px" y="0px"
	 viewBox="0 0 460 460" style="enable-background:new 0 0 460 460;" xml:space="preserve">
<g id="XMLID_507_">
	<path id="XMLID_508_" style="fill:#C5D762;" d="M400.213,244.611v71.354H430V187.379C430,208.413,417.611,230.98,400.213,244.611z"
		/>
	<path id="XMLID_509_" style="fill:#83B461;" d="M226.741,210.989c29.58,0,55.088,18.278,65.815,44.094l42.658-15.394
		c0-0.067-0.005-0.133-0.005-0.2v-52.111h35l-0.007,39.685l2.583-0.932C386.774,221.084,400,202.251,400,187.379v-57.33h-64.791v30
		h-30v-30h-15.82c-41.701,0-90.744,32.761-108.984,72.802l-3.553,8.138H226.741z M265.209,170.379h30v30h-30V170.379z"/>
	<path id="XMLID_512_" style="fill:#DFEB9B;" d="M335.215,239.69l-42.658,15.394c3.48,8.374,5.413,17.538,5.413,27.134v2.805
		c15.457-5.578,34.371-12.403,50.438-18.201C340.428,260.431,335.277,250.637,335.215,239.69z"/>
	<path id="XMLID_515_" style="fill:#A4C662;" d="M370.209,244.526c-0.01,0.035-0.007-17.462-0.007-17.462l0.007-39.685h-35v52.111
		c0,0.067,0.005,0.133,0.005,0.2c0.062,10.947,5.214,20.741,13.193,27.132c5.989,4.797,13.566,7.68,21.787,7.68v-0.059l0.015,0.059
		v41.462h30v-71.439H370.209z"/>
	<path id="XMLID_516_" style="fill:#C5D762;" d="M252.97,293.495c-22.596-10.014-38.368-32.624-38.368-58.931
		c0-8.324,1.596-16.271,4.469-23.575h-42.219L105.66,366.936c-8.032,13.881-26.482,25.492-40.675,25.492H0v40h64.985
		c28.592,0,61.274-20.095,76.023-46.742l0.386-0.696l32.115-70.795l79.462,18.026V293.495z"/>
	<path id="XMLID_517_" style="fill:#A4C662;" d="M292.556,255.083c-10.727-25.816-36.235-44.094-65.815-44.094h-7.67
		c-2.874,7.304-4.469,15.251-4.469,23.575c0,26.307,15.771,48.917,38.368,58.931v138.934h44.865l0.135-150.211
		C297.969,272.621,296.036,263.458,292.556,255.083z"/>
	<path id="XMLID_518_" style="fill:#DFEB9B;" d="M400,82.428v104.95c0,14.872-13.226,33.705-27.214,38.753l-2.583,0.932
		L370.2,244.56c0.01-0.035,30.01-0.035,30.01-0.035v0.087C417.611,230.98,430,208.413,430,187.379c16.5,0,30-13.5,30-30v-74.95H400z
		"/>
	<path id="XMLID_519_" style="fill:#83B461;" d="M423.49,27.748l-68.69,8.76v45.92H460v-21.58
		C460,40.669,443.57,25.768,423.49,27.748z"/>
	<rect id="XMLID_520_" x="265.209" y="170.379" style="fill:#C5D762;" width="30" height="30"/>
	<rect id="XMLID_521_" x="305.209" y="130.049" style="fill:#C5D762;" width="30" height="30"/>
</g>
<g>
</g>
<g>
</g>
<g>
</g>
<g>
</g>
<g>
</g>
<g>
</g>
<g>
</g>
<g>
</g>
<g>
</g>
<g>
</g>
<g>
</g>
<g>
</g>
<g>
</g>
<g>
</g>
<g>
</g>
</svg>
