<svg height="512" viewBox="0 0 58 52" width="512" xmlns="http://www.w3.org/2000/svg"><g id="001---Bird" fill="none"><path id="Shape" d="m38.39 23.71 19.61-3.84-7.14-5.51 7.14-5.36-19-4-15.45 4.41-12.55-9.41-11 9 11-1c0 6.3-.2 2 1 20l10 3 20 21-8-19 1.24-6.93z" fill="#e64c3c"/><path id="Shape" d="m11 0v8l-11 1z" fill="#f0c419"/><path id="Shape" d="m23.55 9.41-12.55 3.59v-13z" fill="#e64c3c"/><path id="Shape" d="m39 5-5 28-2-5-10 3-11-18z" fill="#c03a2b"/><path id="Shape" d="m58 9-22.76 17.07 3.76-21.07z" fill="#e64c3c"/><path id="Shape" d="m58 19.87-19.61 3.84 12.47-9.35z" fill="#c03a2b"/><g fill="#e64c3c"><path id="Shape" d="m42 52-20-21 10-3z"/><path id="Shape" d="m22 31-10-3-1-15z"/></g></g></svg>