<svg id="Capa_1" enable-background="new 0 0 512 512" height="512" viewBox="0 0 512 512" width="512" xmlns="http://www.w3.org/2000/svg"><g><g><path d="m127.91 482h-41.074c-47.886 0-86.836-38.95-86.836-86.836 0-47.256 25.371-69.097 47.739-88.359 22.676-19.527 42.261-37.387 42.261-80.805 0-24.814-20.186-45-45-45-8.276 0-15 6.724-15 15s6.724 15 15 15h15v30h-15c-24.814 0-45-20.186-45-45s20.186-45 45-45c41.353 0 75 33.647 75 75 0 57.173-29.209 83.324-52.676 103.524-20.859 17.959-37.324 32.139-37.324 65.64 0 31.333 25.503 56.836 56.836 56.836h41.074z" fill="#2e4772"/></g><path d="m452 317v-113.91h-75-75c0 20.903-17.007 37.91-37.91 37.91h-7.09c-90.981 0-167 75.019-167 166 0 57.891 49.109 105 107 105h105l15-15 15 15h45 75v-15c0-36.226-25.811-66.519-60-73.491v-33.018c34.189-6.972 60-37.265 60-73.491z" fill="#2e4772"/><path d="m452 497c0-36.226-25.811-66.519-60-73.491v-33.018c34.189-6.973 60-37.266 60-73.491v-113.91h-75v308.91h75z" fill="#142d58"/><path d="m467 0c-25.562 0-48.853 12.847-62.563 33.647-8.906-2.417-18.171-3.625-27.437-3.625s-18.53 1.208-27.437 3.625c-13.71-20.8-37.001-33.647-62.563-33.647h-15v136c0 57.891 47.109 105 105 105s105-47.109 105-105v-136z" fill="#475f8a"/><g><g><path d="m242 121h60v30h-60z" fill="#f3f5f9"/></g></g><g><g><path d="m257.418 209-13.418-26.836 59.187-26.037 13.417 26.836z" fill="#f3f5f9"/></g></g><path d="m482 136v-136h-15c-25.562 0-48.853 12.847-62.563 33.647-8.906-2.417-18.171-3.625-27.437-3.625v210.978c57.891 0 105-47.109 105-105z" fill="#2e4772"/><g><g><path d="m452 121h60v30h-60z" fill="#cfdfe6"/></g></g><g><g><path d="m498.582 210.836-61.186-27.873 13.417-26.836 61.187 27.873z" fill="#cfdfe6"/></g></g><g><g><path d="m390.795 105.993h38.415v30.015h-38.415z" fill="#fc6" transform="matrix(.625 -.781 .781 .625 59.391 365.57)"/></g></g><g><g><path d="m328.99 101.792h30.015v38.415h-30.015z" fill="#ffe666" transform="matrix(.781 -.625 .625 .781 -.222 241.367)"/></g></g><path d="m361.938 150.938h30.123v30.123h-30.123z" fill="#2e4772" transform="matrix(.707 -.707 .707 .707 -6.959 315.199)"/><path d="m398.301 166-21.301 21.299v-42.6z" fill="#142d58"/><path d="m302 497v15h30v-150h-30v75.355c-8.76-6.625-18.856-11.574-30-13.846v-16.509c0-41.353-33.647-75-75-75v30c24.814 0 45 20.186 45 45v45h15c24.814 0 45 20.186 45 45z" fill="#475f8a"/></g></svg>