<?xml version="1.0" encoding="iso-8859-1"?>
<!-- Generator: Adobe Illustrator 19.0.0, SVG Export Plug-In . SVG Version: 6.00 Build 0)  -->
<svg version="1.1" id="Capa_1" xmlns="http://www.w3.org/2000/svg" xmlns:xlink="http://www.w3.org/1999/xlink" x="0px" y="0px"
	 viewBox="0 0 460 460" style="enable-background:new 0 0 460 460;" xml:space="preserve">
<g id="XMLID_1108_">
	<path id="XMLID_1109_" style="fill:#42915F;" d="M190,379.434V460h60c0-13.061-8.349-24.167-20-28.286v-28.552
		c13.886-4.909,26.598-12.299,37.605-21.641l-66.59-13.318C197.592,372.183,193.911,375.934,190,379.434z"/>
	<path id="XMLID_1110_" style="fill:#83B461;" d="M194.521,175.936c0-0.012-163.786,91.673-163.786,91.673
		C12.413,277.871,0,297.481,0,320v110h30l10-110h70C110,258.098,144.093,204.166,194.521,175.936z"/>
	<path id="XMLID_1111_" style="fill:#83B461;" d="M419.542,250H420v-55l-29.336,7.334C360.888,173.061,320.055,155,275,155
		c-15.601,0-30.695,2.167-45,6.213V290c0,14.67-2.637,28.723-7.455,41.716L310,349.208V460h60c0-13.061-8.349-24.167-20-28.286
		v-89.245C387.969,327.596,415.72,292.199,419.542,250z"/>
	<path id="XMLID_1112_" style="fill:#83B461;" d="M440,25.365V20c0-11.045-8.954-20-20-20s-20,8.955-20,20v5l-20,5v30h80
		C460,45.197,451.953,32.282,440,25.365z"/>
	<path id="XMLID_1113_" style="fill:#FFDA88;" d="M420,60v190h-0.458c-3.821,42.199-31.572,77.596-69.542,92.469v42.129
		C413.422,367.091,460,308.989,460,240V60H420z"/>
	<path id="XMLID_1114_" style="fill:#FFDA88;" d="M222.545,331.716c-4.994,13.469-12.336,25.796-21.53,36.487L310,390v-40.792
		L222.545,331.716z"/>
	<path id="XMLID_1115_" style="fill:#A4C662;" d="M201.015,368.203c9.194-10.69,16.536-23.018,21.53-36.487
		C227.363,318.723,230,304.67,230,290V161.213c-12.493,3.534-24.38,8.509-35.479,14.723C144.093,204.166,110,258.098,110,320v140h60
		c0-13.061-8.349-24.167-20-28.286v-28.552c14.905-5.269,28.458-13.396,40-23.728C193.911,375.934,197.592,372.183,201.015,368.203z
		"/>
</g>
<g>
</g>
<g>
</g>
<g>
</g>
<g>
</g>
<g>
</g>
<g>
</g>
<g>
</g>
<g>
</g>
<g>
</g>
<g>
</g>
<g>
</g>
<g>
</g>
<g>
</g>
<g>
</g>
<g>
</g>
</svg>
