<svg height="512" viewBox="0 0 512 512" width="512" xmlns="http://www.w3.org/2000/svg"><g id="flat"><path d="m448.008 288a8 8 0 0 1 -4.124-14.861l16.23-9.739a41.164 41.164 0 0 0 19.886-35.121 40.692 40.692 0 0 0 -12-28.962l-11.317-11.317a56.589 56.589 0 0 1 -16.683-40.279 57.249 57.249 0 0 1 27.653-48.843l16.231-9.738a8 8 0 0 1 8.232 13.72l-16.23 9.739a41.164 41.164 0 0 0 -19.886 35.122 40.692 40.692 0 0 0 12 28.962l11.317 11.317a56.589 56.589 0 0 1 16.683 40.279 57.249 57.249 0 0 1 -27.653 48.843l-16.231 9.738a7.966 7.966 0 0 1 -4.108 1.14z" fill="#ffb3b3"/><path d="m126.188 248-8.247 5.5a62.528 62.528 0 0 1 -34.685 10.5 62.527 62.527 0 0 1 -47.8-22.223l-7.406-8.784a17.168 17.168 0 0 1 5.236-26.315 17.168 17.168 0 0 1 21.625 4.947l6.015 8.02a30.89 30.89 0 0 0 24.707 12.355 30.894 30.894 0 0 0 15.892-4.4l48.663-27.6 17.812 24z" fill="#683b0d"/><path d="m326.188 192-7.665-.051a38.916 38.916 0 0 0 -35.065 21.511l-.274.55a17.9 17.9 0 0 1 -16.064 10h-.22a18.278 18.278 0 0 1 -8.839-2.3l-36.5-20.278a77.648 77.648 0 0 0 -64.973-4.827 40.4 40.4 0 0 0 -25.806 43.537l3.406 23.858-12.649 25.3a14 14 0 0 0 .367 13.207l28.282 49.493h32l8-16-4.422-8.845a12.945 12.945 0 0 0 -11.578-7.155l-8-16 8.464-4.232a28.006 28.006 0 0 1 15.9-2.751l57.448 6.983 20.042 43.357a8 8 0 0 0 7.258 4.643h106.888l4.913-12.016a18.387 18.387 0 0 0 -4.733-20.636 18.387 18.387 0 0 0 -18.523-3.619l-11.845 4.271-17.812-24 8-16h12.228a23.245 23.245 0 0 0 7.351-1.193 23.245 23.245 0 0 0 15.2-27.69l-2.779-11.117.845-2.534a36.612 36.612 0 0 0 -8.845-37.466l24-24h-22.577a57.547 57.547 0 0 0 -31.919 9.664z" fill="#eaeae8"/><path d="m312.55 352h-17.25l-22.65-52.85a8 8 0 1 1 14.7-6.3z" fill="#eaeae8"/><g fill="#cbcbcb"><circle cx="344.188" cy="232" r="10"/><path d="m331.846 242.343-16-16a8 8 0 1 0 -11.315 11.314l2.343 2.343h-4.686a8 8 0 0 0 0 16h4.686l-2.343 2.343a8 8 0 0 0 11.315 11.314l16-16a8 8 0 0 0 0-11.314z"/><path d="m312.55 352h-17.25l-22.65-52.85a8 8 0 1 1 14.7-6.3z"/></g><circle cx="456" cy="312" fill="#537cd8" r="40"/><path d="m72 304h-6.111a36.744 36.744 0 0 1 -33.044-20.422 8 8 0 1 1 14.31-7.156 20.833 20.833 0 0 0 18.734 11.578h6.111a8 8 0 0 1 0 16z" fill="#fbb540"/><path d="m412.617 274.321a8 8 0 0 1 -5.317-13.979l9-8a8 8 0 1 1 10.629 11.958l-9 8a7.971 7.971 0 0 1 -5.312 2.021z" fill="#fbb540"/><path d="m438.073 250a8 8 0 0 1 -5-14.247l6.33-5.065a12.251 12.251 0 0 0 1.011-18.231 8 8 0 1 1 11.315-11.314 28.254 28.254 0 0 1 -2.33 42.04l-6.33 5.064a7.967 7.967 0 0 1 -4.996 1.753z" fill="#fbb540"/><path d="m494.7 322.15-42.16-12.05 34.26 27.41a39.819 39.819 0 0 1 -12.83 10.23l-56.78-45.44a39.843 39.843 0 0 1 8.58-16.48l69.74 19.91a40.5 40.5 0 0 1 .49 6.27 39.94 39.94 0 0 1 -1.3 10.15z" fill="#ffb3b3"/></g></svg>