<svg height="512" viewBox="0 0 58 58" width="512" xmlns="http://www.w3.org/2000/svg"><g id="003---Crab" fill="none"><path id="Shape" d="m55.66 30.55c.2111133-.3290494.2111133-.7509506 0-1.08l-1.31-1.87 3.65-14.6-10-13 .63 5h-5.63l6.3 5.4.56 4.48-3.67.85-.89-1.3c-.1885255-.2717806-.4992449-.4327557-.83-.43h-4.47l-5-6v6h-12v-6l-5 6h-4.47c-.3307551-.0027557-.6414745.1582194-.83.43l-.89 1.3-3.67-.85.56-4.48 6.3-5.4h-5.62l.62-5-10 13 3.65 14.6-1.28 1.87c-.21111331.3290494-.21111331.7509506 0 1.08l.83 1.36-3.2 11.09 9 15 2.05-13.19 1.75 2.87c.28.46-.78.12 15.9 5.23.44.13-.88.39 15.94-4.8.49-.15.42-.2 2.31-3.3l2.05 13.19 9-15-3.17-11.09z" fill="#e64c3c"/><path id="Shape" d="m55.66 30.55c-11.61 18.62-10.5 17.4-11 17.56-16.78 5.17-15.52 4.89-15.96 4.8-16.7-5.11-15.62-4.78-15.9-5.23l-10.46-17.13c-.21111331-.3290494-.21111331-.7509506 0-1.08l10.33-15c.1885255-.2717806.4992449-.4327557.83-.43h30.97c.3307551-.0027557.6414745.1582194.83.43l10.33 15c.2203495.3231541.2320706.745112.03 1.08z" fill="#e64c3c"/><path id="Shape" d="m3.17 31.91-3.17 11.09 11.05 1.81z" fill="#c03a2b"/><path id="Shape" d="m0 43 9 15 2.05-13.19z" fill="#e64c3c"/><path id="Shape" d="m11.81 15.73-11.81-2.73 3.65 14.6z" fill="#c03a2b"/><path id="Shape" d="m8.14 14.88 1.86-14.88-10 13z" fill="#e64c3c"/><path id="Shape" d="m9.38 5h5.62l-6.3 5.4z" fill="#c03a2b"/><path id="Shape" d="m54.83 31.91 3.17 11.09-11.05 1.81z" fill="#c03a2b"/><path id="Shape" d="m46.95 44.81 2.05 13.19 9-15z" fill="#e64c3c"/><path id="Shape" d="m46.19 15.73 11.81-2.73-3.65 14.6z" fill="#c03a2b"/><path id="Shape" d="m49.86 14.88-1.86-14.88 10 13z" fill="#e64c3c"/><g fill="#c03a2b"><path id="Shape" d="m49.3 10.4-6.3-5.4h5.63z"/><path id="Shape" d="m18 14 5-6v6z"/><path id="Shape" d="m40 14-5-6v6z"/></g><path id="Shape" d="m30 40v12.69c-1.12.35-.86.36-2 0v-12.69c0-.5522847.4477153-1 1-1s1 .4477153 1 1z" fill="#fb7b76"/><path id="Shape" d="m29 37c-.5522847 0-1-.4477153-1-1v-1c0-.5522847.4477153-1 1-1s1 .4477153 1 1v1c0 .5522847-.4477153 1-1 1z" fill="#fb7b76"/></g></svg>