<?xml version="1.0" encoding="iso-8859-1"?>
<!-- Generator: Adobe Illustrator 19.0.0, SVG Export Plug-In . SVG Version: 6.00 Build 0)  -->
<svg version="1.1" id="Capa_1" xmlns="http://www.w3.org/2000/svg" xmlns:xlink="http://www.w3.org/1999/xlink" x="0px" y="0px"
	 viewBox="0 0 460 460" style="enable-background:new 0 0 460 460;" xml:space="preserve">
<g id="XMLID_1198_">
	<path id="XMLID_1199_" style="fill:#FF9C0F;" d="M429.885,251.356v35.081h30v-95.532
		C459.885,212.403,447.343,236.483,429.885,251.356z"/>
	<path id="XMLID_1200_" style="fill:#FF8417;" d="M294.276,331.405h-11.339c-12.531,18.813-31.264,33.139-53.281,40.055V460h35
		v-83.959c52.601,0,95.715-40.614,99.698-92.193c-13.07,5.875-27.125,12.193-40.089,18.02
		C324.013,318.156,310.621,331.405,294.276,331.405z"/>
	<path id="XMLID_1201_" style="fill:#FFDA88;" d="M459.883,108.391h-29.998v82.514c0,0.176-0.011,0.356-0.014,0.533
		c0.015,0,0.015,59.919,0.015,59.919c17.458-14.874,30-38.953,30-60.451L459.883,108.391z"/>
	<path id="XMLID_1202_" style="fill:#FFDA88;" d="M399.885,234.985L299.567,280.08c-0.753,18.938-6.769,36.521-16.63,51.325h11.339
		c16.345,0,29.737-13.249,29.988-29.537c12.964-5.827,66.492-29.888,75.621-33.992V234.985z"/>
	<path id="XMLID_1203_" style="fill:#FF8417;" d="M429.885,191.438c-0.011-0.177,0-0.357,0-0.533v-82.514h29.998v-31
		c0-27.5-22.248-46.644-49.441-42.542v0.361c0,16.5-13.339,32.077-29.643,34.615l-50.919,7.927v30.638h60.005v60
		c0,32.638-26.704,59.342-59.342,59.342h-39.505c5.535,12.423,8.617,26.18,8.617,40.658v7.65c0,1.353-0.035,2.698-0.088,4.039
		l100.318-45.094v51.452h30V191.438z"/>
	<path id="XMLID_1204_" style="fill:#FF9C0F;" d="M199.655,168.391h-15C184.655,168.406,199.655,168.408,199.655,168.391z"/>
	<path id="XMLID_1205_" style="fill:#FF9C0F;" d="M199.66,168.391c40.748,0.002,75.799,24.378,91.378,59.342h39.505
		c32.638,0,59.342-26.704,59.342-59.342H199.66z"/>
	<path id="XMLID_1206_" style="fill:#FFB308;" d="M282.937,331.405c9.862-14.805,15.878-32.387,16.63-51.325
		c0.053-1.34,0.088-2.685,0.088-4.039v-7.65c0-14.478-3.081-28.235-8.617-40.658c-15.579-34.963-50.63-59.34-91.378-59.342
		c-0.005,0.017-144.545,0-144.545,0c-30.327,0-55,24.673-55,55s24.673,55,55,55h64.77v-30h-64.77c-13.785,0-25-11.215-25-25
		s11.215-25,25-25H140.7l58.955,43.83v83.82h-35V460h35v-83.958c10.453,0,20.529-1.607,30-4.582
		C251.673,364.544,270.405,350.218,282.937,331.405z"/>
	<polygon id="XMLID_1207_" style="fill:#FF8417;" points="389.885,168.391 289.655,168.391 289.655,138.391 259.655,138.391 
		259.655,168.391 229.655,168.391 229.655,138.391 199.655,138.391 199.655,168.391 	"/>
	<rect id="XMLID_1208_" x="139.655" y="138.391" style="fill:#FF9C0F;" width="30" height="30"/>
	<path id="XMLID_1209_" style="fill:#A11F95;" d="M410.442,35.211V0h-30v39.52l-50.562,7.872l0,30.362l50.919-7.927
		C397.103,67.287,410.442,51.711,410.442,35.211z"/>
</g>
<g>
</g>
<g>
</g>
<g>
</g>
<g>
</g>
<g>
</g>
<g>
</g>
<g>
</g>
<g>
</g>
<g>
</g>
<g>
</g>
<g>
</g>
<g>
</g>
<g>
</g>
<g>
</g>
<g>
</g>
</svg>
