<?xml version="1.0" encoding="iso-8859-1"?>
<!-- Generator: Adobe Illustrator 19.0.0, SVG Export Plug-In . SVG Version: 6.00 Build 0)  -->
<svg version="1.1" id="Capa_1" xmlns="http://www.w3.org/2000/svg" xmlns:xlink="http://www.w3.org/1999/xlink" x="0px" y="0px"
	 viewBox="0 0 460 460" style="enable-background:new 0 0 460 460;" xml:space="preserve">
<g id="XMLID_1058_">
	<path id="XMLID_1059_" style="fill:#42915F;" d="M80,139.044v51.658l41.537-23.987C114.75,150.466,98.711,139.044,80,139.044z"/>
	<path id="XMLID_1060_" style="fill:#42915F;" d="M20.026,225.336l36.452-21.05C50.212,190.381,36.242,180.695,20,180.695
		C20,180.695,20,225.365,20.026,225.336z"/>
	<path id="XMLID_1061_" style="fill:#006E5E;" d="M230,113.015c9.695-1.969,19.724-3.015,30-3.015c6.783,0,13.456,0.466,20,1.338
		V110c0-27.614-22.386-50-50-50v53.007c0.055-0.011,0.11-0.024,0.166-0.035C230.111,112.984,230.055,113.004,230,113.015z"/>
	<path id="XMLID_1062_" style="fill:#42915F;" d="M202.975,121.23l-0.655-1.134c-13.807-23.915-44.387-32.108-68.301-18.301
		l24.989,43.282l1.531,2.651C173.007,136.676,187.325,127.668,202.975,121.23z"/>
	<path id="XMLID_1063_" style="fill:#006E5E;" d="M352.32,140.096c13.807-23.915,5.613-54.494-18.301-68.301l-26.5,45.898
		c16.099,5.374,30.977,13.407,44.126,23.572L352.32,140.096z"/>
	<path id="XMLID_1064_" style="fill:#83B461;" d="M190,319.434V400h60c0-13.061-8.349-24.167-20-28.286v-28.552
		c13.887-4.909,26.598-12.299,37.605-21.641l-66.59-13.318C197.592,312.183,193.911,315.934,190,319.434z"/>
	
		<line id="XMLID_1065_" style="fill:none;stroke:#A4C662;stroke-width:0;stroke-linecap:round;stroke-linejoin:round;" x1="380" y1="169.991" x2="379.998" y2="169.989"/>
	<path id="XMLID_1066_" style="fill:#A4C662;" d="M230,226.985v-113.97c0.055-0.011,0.111-0.031,0.166-0.043
		c-0.055,0.011-0.11,0.024-0.166,0.035c-9.354,1.899-18.391,4.672-27.025,8.224c-15.65,6.438-29.969,15.446-42.436,26.498
		l-1.531-2.651l-37.471,21.638L80,190.703l-23.523,13.583l-36.452,21.05C8.047,232.282,0,245.197,0,260h110
		c0-33.77,11.164-64.928,29.995-89.998C161.631,198.805,193.397,219.553,230,226.985z"/>
	<path id="XMLID_1067_" style="fill:#DFEB9B;" d="M420,180c0,46.549-29.066,86.434-70,102.469v42.129
		C413.422,307.091,460,248.989,460,180H420z"/>
	<path id="XMLID_1068_" style="fill:#DFEB9B;" d="M222.545,271.716c-4.994,13.469-12.336,25.796-21.53,36.487L310,330v-40.792
		L222.545,271.716z"/>
	<path id="XMLID_1069_" style="fill:#C5D762;" d="M201.015,308.203c9.194-10.69,16.536-23.018,21.53-36.487
		C227.363,258.723,230,244.67,230,230v-3.015c-36.603-7.432-68.369-28.18-90.005-56.982C121.164,195.072,110,226.23,110,260v140h60
		c0-13.061-8.349-24.167-20-28.286v-28.552c14.905-5.269,28.458-13.396,40-23.728C193.911,315.934,197.592,312.183,201.015,308.203z
		"/>
	<path id="XMLID_1070_" style="fill:#A4C662;" d="M420,180h-40v-9.991C352.633,206.436,309.07,230,260,230
		c-10.276,0-20.305-1.046-30-3.015V230c0,14.67-2.637,28.723-7.455,41.716L310,289.208V400h40V282.469
		C390.934,266.434,420,226.549,420,180z"/>
	<path id="XMLID_1071_" style="fill:#83B461;" d="M230,113.015v113.97c9.695,1.969,19.724,3.015,30,3.015
		c49.07,0,92.633-23.564,120-59.991c-8.117-10.821-17.667-20.482-28.354-28.744c-13.149-10.165-28.027-18.198-44.126-23.572
		c-8.835-2.949-18.038-5.091-27.52-6.355c-6.544-0.873-13.217-1.338-20-1.338C249.724,110,239.695,111.046,230,113.015z"/>
	<path id="XMLID_1072_" style="fill:#42915F;" d="M380,180h80c0-22.091-17.908-40-40-40l-40,10V180z"/>
</g>
<g>
</g>
<g>
</g>
<g>
</g>
<g>
</g>
<g>
</g>
<g>
</g>
<g>
</g>
<g>
</g>
<g>
</g>
<g>
</g>
<g>
</g>
<g>
</g>
<g>
</g>
<g>
</g>
<g>
</g>
</svg>
