<?xml version="1.0" encoding="iso-8859-1"?>
<!-- Generator: Adobe Illustrator 19.0.0, SVG Export Plug-In . SVG Version: 6.00 Build 0)  -->
<svg version="1.1" id="Capa_1" xmlns="http://www.w3.org/2000/svg" xmlns:xlink="http://www.w3.org/1999/xlink" x="0px" y="0px"
	 viewBox="0 0 460 460" style="enable-background:new 0 0 460 460;" xml:space="preserve">
<g id="XMLID_1126_">
	<path id="XMLID_1127_" style="fill:#5F196B;" d="M160,389.434V420c32.232,0,61.494-12.71,83.053-33.39l-67.846-13.569
		C170.654,378.968,165.561,384.456,160,389.434z"/>
	<path id="XMLID_1128_" style="fill:#AA67E3;" d="M151.455,194.07c0-0.009-125.471,86.498-125.471,86.498
		C10.294,291.399,0,309.494,0,330h80C80,273.608,108.293,223.829,151.455,194.07z"/>
	<path id="XMLID_1129_" style="fill:#AA67E3;" d="M420,250h-30.67c-28.157-50.691-82.233-85-144.33-85
		c-15.601,0-30.695,2.167-45,6.213V300c0,12.581-1.94,24.707-5.53,36.102l104.232,20.846l-23.996,35.994L230,460
		c45.28,0,84.696-25.082,105.129-62.107c7.534-13.652,12.488-28.926,14.2-45.168C390.615,336.865,420,296.802,420,250z"/>
	<path id="XMLID_1130_" style="fill:#AA67E3;" d="M420,0l-60,10v30h100C460,17.909,442.092,0,420,0z"/>
	<path id="XMLID_1131_" style="fill:#D9BBF2;" d="M420,40v210c0,46.802-29.385,86.865-70.672,102.725
		c-1.712,16.242-6.666,31.516-14.2,45.168C406.006,385.937,460,324.279,460,250V40H420z"/>
	<path id="XMLID_1132_" style="fill:#D9BBF2;" d="M194.47,336.102c-4.254,13.5-10.833,25.968-19.263,36.94l67.846,13.569
		l31.653,6.331l23.996-35.994L194.47,336.102z"/>
	<path id="XMLID_1133_" style="fill:#9541DC;" d="M175.207,373.042c8.43-10.972,15.009-23.439,19.263-36.94
		C198.06,324.707,200,312.581,200,300V171.213c-17.546,4.963-33.9,12.759-48.545,22.857C108.293,223.829,80,273.608,80,330v90
		c30.737,0,58.769-11.562,80-30.566C165.561,384.456,170.654,378.968,175.207,373.042z"/>
</g>
<g>
</g>
<g>
</g>
<g>
</g>
<g>
</g>
<g>
</g>
<g>
</g>
<g>
</g>
<g>
</g>
<g>
</g>
<g>
</g>
<g>
</g>
<g>
</g>
<g>
</g>
<g>
</g>
<g>
</g>
</svg>
