<svg height="512" viewBox="0 0 58 54" width="512" xmlns="http://www.w3.org/2000/svg"><g id="019---Elephant" fill="none"><path id="Shape" d="m4.46 37.22-4.46 1.78v4h8z" fill="#7f8c8d"/><path id="Shape" d="m56 29 2 12h-9z" fill="#547580"/><path id="Shape" d="m37.72 13.61 18.28 15.39-4.84 24.2c-.0964736.4731232-.5172392.8097357-1 .8h-10.52c-.390571.0009665-.7459609-.2255458-.91-.58-3.61-7.83-1.41-2.55-10.73-26.42z" fill="#7f8c8d"/><path id="Shape" d="m9 24 3 16-3 3h-3l-4-15z" fill="#95a5a5"/><path id="Shape" d="m32.48 27.82 5 6.5c.3343307.4349302.4753339.9880965.39 1.53l-2.74 17.31c-.0792284.4890578-.5046072.846376-1 .84h-11.2c-.5224937.0016745-.958203-.3991781-1-.92l-1.93-27.08z" fill="#95a5a5"/><path id="Shape" d="m38.91 19.53c.0584011.2988922-.0225839.6081076-.22.84l-9.16 11c-.305396.3690763-.8296333.4697298-1.25.24l-10.28-5.61-16 2 2.94-18.6c.0395971-.2542819.17570115-.48350977.38-.64l14.34-6.76 5.68.86c.2136603.07469209.4463397.07469209.66 0l8-2.63c.2670857-.07172359.5519487-.02964016.7868861.11624838.2349374.14588855.3989705.38255512.4531139.65375162z" fill="#bdc3c7"/><g fill="#95a5a5"><path id="Shape" d="m20.65 2.15-.4 5.85c-.036823.52477544-.4739358.93129033-1 .93-.5657518-.03204051-1.0062524-.50337614-1-1.07l.38-5.41 1-.49z"/><path id="Shape" d="m20 12.07c-1.12 15.33-1 14.15-1.12 14.41l-.88-.48-1 .12c0-.15-.12.71 1-14.19.036823-.5247754.4739358-.9312903 1-.93.5657518.0320405 1.0062524.5033761 1 1.07z"/></g></g></svg>