<?xml version="1.0" encoding="iso-8859-1"?>
<!-- Generator: Adobe Illustrator 19.0.0, SVG Export Plug-In . SVG Version: 6.00 Build 0)  -->
<svg version="1.1" id="Capa_1" xmlns="http://www.w3.org/2000/svg" xmlns:xlink="http://www.w3.org/1999/xlink" x="0px" y="0px"
	 viewBox="0 0 460 460" style="enable-background:new 0 0 460 460;" xml:space="preserve">
<g id="XMLID_1273_">
	<path id="XMLID_1274_" style="fill:#CA6033;" d="M329.77,133.383h-30H329.77z"/>
	<path id="XMLID_1275_" style="fill:#CA6033;" d="M229.77,346.46V435h30v-83.959c51.804,0,94.406-39.391,99.491-89.854
		c-24.719,11.111-51.907,23.332-68.163,30.638C279.499,317.761,257.178,337.851,229.77,346.46z"/>
	<path id="XMLID_1276_" style="fill:#CA6033;" d="M429.995,226.357v65.081h30V165.905
		C459.995,187.403,447.453,211.483,429.995,226.357z"/>
	<path id="XMLID_1277_" style="fill:#FFE9B8;" d="M361.52,227.281l-61.838,27.797c-0.518,13.047-3.532,25.452-8.584,36.748
		c16.256-7.306,83.026-37.32,89.733-40.334C371.539,246.377,364.476,237.672,361.52,227.281z"/>
	<path id="XMLID_1278_" style="fill:#FFE9B8;" d="M459.994,85h-29.999v80.905c0,15.726-13.561,36.69-27.903,43.138l-2.106,0.947
		l-0.003,16.492c0.013-0.045,29.914-0.045,29.914-0.045c0.032-0.028,0.066-0.053,0.098-0.081c17.458-14.874,30-38.953,30-60.452
		L459.994,85z"/>
	<path id="XMLID_1279_" style="fill:#943D4F;" d="M399.995,226.438c-0.013,0.045-0.01-16.448-0.01-16.448l2.106-0.947
		c14.343-6.448,27.903-27.412,27.903-43.138V85h29.999L460,62.5c0-20.625-16.875-37.5-37.5-37.5H319.506v40l77.276,20v48.383H359.77
		v60.007h-30v-60.007h-30v117.658c0,1.353-0.035,2.697-0.088,4.036l61.838-27.797c2.956,10.392,10.019,19.097,19.311,24.21
		c5.695,3.134,12.222,4.923,19.147,4.923v-0.067l0.017,0.067v35.023h30v-65H399.995z"/>
	<path id="XMLID_1280_" style="fill:#FF8417;" d="M291.098,291.825c5.052-11.296,8.066-23.7,8.584-36.748
		c0.053-1.34,0.088-2.684,0.088-4.036V133.383h-30v60.007h-30v-60.007h-100h-0.135H55c-30.327,0-55,24.68-55,55.007s24.673,55,55,55
		h77.439v-30H55c-13.785,0-25-11.215-25-25s11.215-25,25-25h77.439l13.905,11.124c12.884,10.307,36.926,18.741,53.426,18.741
		v127.785h-30V435h30v-83.959c10.453,0,20.529-1.607,30-4.581C257.178,337.851,279.499,317.761,291.098,291.825z"/>
	<rect id="XMLID_1281_" x="239.77" y="133.383" style="fill:#943D4F;" width="30" height="60.007"/>
	<rect id="XMLID_1282_" x="329.77" y="133.383" style="fill:#FF8417;" width="30" height="60.007"/>
</g>
<g>
</g>
<g>
</g>
<g>
</g>
<g>
</g>
<g>
</g>
<g>
</g>
<g>
</g>
<g>
</g>
<g>
</g>
<g>
</g>
<g>
</g>
<g>
</g>
<g>
</g>
<g>
</g>
<g>
</g>
</svg>
