<?xml version="1.0" encoding="iso-8859-1"?>
<!-- Generator: Adobe Illustrator 19.0.0, SVG Export Plug-In . SVG Version: 6.00 Build 0)  -->
<svg version="1.1" id="Capa_1" xmlns="http://www.w3.org/2000/svg" xmlns:xlink="http://www.w3.org/1999/xlink" x="0px" y="0px"
	 viewBox="0 0 460 460" style="enable-background:new 0 0 460 460;" xml:space="preserve">
<g id="XMLID_915_">
	<path id="XMLID_916_" style="fill:#AA67E3;" d="M230,173.605c11.907,0,23.513,1.274,34.702,3.675
		c-3.199-35.694-33.175-63.675-69.702-63.675v63.745C206.281,174.908,217.987,173.605,230,173.605z"/>
	<path id="XMLID_917_" style="fill:#D9BBF2;" d="M125.642,277.932L80,346.394c40.871,0,75.373-27.246,86.349-64.564L125.642,277.932
		z"/>
	<path id="XMLID_918_" style="fill:#BF8DEA;" d="M330,256.105c0-22.091,17.908-40,40-40l10.139,1.126l-94.258-33.903
		c-17.453-6.283-36.263-9.723-55.882-9.723v82.652L330,256.105z"/>
	<path id="XMLID_919_" style="fill:#AA67E3;" d="M370,216.105l90,10v30H330C330,234.014,347.908,216.105,370,216.105z"/>
	<path id="XMLID_920_" style="fill:#D9BBF2;" d="M158.79,189.744l-80.361,38.494C52.578,207.492,17.688,183.958,0,191.419
		l40.01,64.839h50.97H230v-82.652C204.494,173.605,180.35,179.411,158.79,189.744z"/>
	<path id="XMLID_921_" style="fill:#FFE9B8;" d="M197.5,256.258H40c0.01,0-39.98,64.531-39.98,64.531
		c20.467,8.646,63.999-24.256,89.861-46.283l102.193,9.789c12.481,1.196,25.13,1.811,37.924,1.811
		c0.002,0,0.002-29.848,0.002-29.848H197.5z"/>
	<path id="XMLID_922_" style="fill:#D9BBF2;" d="M230,286.105c3.438,0,6.865-0.046,10.282-0.134L260,256.394l-30-0.137V286.105z"/>
	<path id="XMLID_923_" style="fill:#D9BBF2;" d="M290,256.394c0,8.932-1.307,17.558-3.731,25.703
		c32.762-4.701,64.221-13.437,93.85-25.702L290,256.394z"/>
	<path id="XMLID_924_" style="fill:#BF8DEA;" d="M200,346.395c49.706,0,90-40.295,90-90h-30L200,346.395z"/>
</g>
<g>
</g>
<g>
</g>
<g>
</g>
<g>
</g>
<g>
</g>
<g>
</g>
<g>
</g>
<g>
</g>
<g>
</g>
<g>
</g>
<g>
</g>
<g>
</g>
<g>
</g>
<g>
</g>
<g>
</g>
</svg>
