<?xml version="1.0" encoding="iso-8859-1"?>
<!-- Generator: Adobe Illustrator 19.0.0, SVG Export Plug-In . SVG Version: 6.00 Build 0)  -->
<svg version="1.1" id="Capa_1" xmlns="http://www.w3.org/2000/svg" xmlns:xlink="http://www.w3.org/1999/xlink" x="0px" y="0px"
	 viewBox="0 0 460 460" style="enable-background:new 0 0 460 460;" xml:space="preserve">
<g id="XMLID_952_">
	<path id="XMLID_953_" style="fill:#943D4F;" d="M380,291.991V370h40V260.534C408.595,273.154,395.077,283.827,380,291.991z"/>
	<path id="XMLID_954_" style="fill:#FFDA88;" d="M113.048,209.875c0.013,0.027,23.847,2.41,23.847,2.41
		C136.903,212.266,113.048,209.875,113.048,209.875z"/>
	<path id="XMLID_955_" style="fill:#FFDA88;" d="M13.702,209.875C5.307,217.206,0,227.979,0,240h110
		c0-10.319,1.046-20.393,3.03-30.125H13.702z"/>
	<path id="XMLID_956_" style="fill:#943D4F;" d="M113.035,209.849c8.717-42.621,35.519-78.682,72.042-99.795
		c0.019-0.042-165.051,95.283-165.051,95.283c-2.253,1.315-4.372,2.834-6.324,4.539C13.702,209.875,113.03,209.875,113.035,209.849z
		"/>
	<path id="XMLID_957_" style="fill:#943D4F;" d="M190,309.436V370h40v-36.838c16.312-5.766,31.005-14.955,43.214-26.709
		l-73.024-7.302C197.003,302.78,193.598,306.214,190,309.436z"/>
	<path id="XMLID_958_" style="fill:#CA6033;" d="M136.903,212.266c-0.008,0.02,93.077,9.328,93.077,9.328L136.903,212.266z"/>
	<path id="XMLID_959_" style="fill:#FFDA88;" d="M417.619,160v15.251c-5.487,39.386-31.905,72.16-67.619,86.689v42.293
		c10.518-3.008,20.564-7.134,30-12.243c15.077-8.164,28.595-18.837,40-31.457c24.039-26.601,38.681-61.856,38.681-100.534H417.619z"
		/>
	<path id="XMLID_960_" style="fill:#FFDA88;" d="M310,269.932l-87.28-8.728c-5.143,14.067-12.835,26.906-22.53,37.947L308.681,310
		c0.441,0,0.879-0.013,1.319-0.017V269.932z"/>
	<path id="XMLID_961_" style="fill:#FF8417;" d="M200.19,299.151c9.695-11.041,17.387-23.879,22.53-37.947
		c4.525-12.379,7.078-25.708,7.26-39.61l-93.085-9.309l-23.833-2.383C111.046,219.607,110,229.681,110,240v130h40v-36.837
		c14.905-5.27,28.459-13.395,40-23.727C193.598,306.214,197.003,302.78,200.19,299.151z"/>
	<path id="XMLID_962_" style="fill:#CA6033;" d="M350,261.94c35.713-14.529,62.131-47.303,67.619-86.689V160h-38.641v12.16
		c-5.621,31.92-33.265,56.256-65.694,57.765l-83.304-8.331c-0.181,13.902-2.734,27.231-7.26,39.61l87.28,8.728V370h40V261.94z"/>
	<path id="XMLID_963_" style="fill:#943D4F;" d="M230,220c0,0.533-0.013,1.063-0.02,1.594l83.304,8.331
		c32.429-1.509,60.073-25.845,65.694-57.765V160H375c0-4.714,0.822-9.235,2.319-13.435C349.837,112.101,307.507,90,260,90
		c-10.274,0-20.306,1.035-30,3.003V220z"/>
	<path id="XMLID_964_" style="fill:#801C80;" d="M113.048,209.875l116.932,11.719c0.007-0.531,0.02-1.061,0.02-1.594V93.003
		c-16.059,3.26-31.175,9.103-44.923,17.05C148.554,131.167,121.752,167.228,113.048,209.875z"/>
	<path id="XMLID_965_" style="fill:#943D4F;" d="M460,160c0-22.091-17.908-40-40-40h-5v40H460z"/>
	<path id="XMLID_966_" style="fill:#5E79BC;" d="M415,160v-40c-17.377,0-32.16,11.084-37.681,26.565
		c-1.498,4.2-2.319,8.72-2.319,13.435H415z"/>
</g>
<g>
</g>
<g>
</g>
<g>
</g>
<g>
</g>
<g>
</g>
<g>
</g>
<g>
</g>
<g>
</g>
<g>
</g>
<g>
</g>
<g>
</g>
<g>
</g>
<g>
</g>
<g>
</g>
<g>
</g>
</svg>
