<?xml version="1.0" encoding="iso-8859-1"?>
<!-- Generator: Adobe Illustrator 19.0.0, SVG Export Plug-In . SVG Version: 6.00 Build 0)  -->
<svg version="1.1" id="Capa_1" xmlns="http://www.w3.org/2000/svg" xmlns:xlink="http://www.w3.org/1999/xlink" x="0px" y="0px"
	 viewBox="0 0 460 460" style="enable-background:new 0 0 460 460;" xml:space="preserve">
<g id="XMLID_481_">
	<path id="XMLID_482_" style="fill:#943D4F;" d="M370,278.234v35.637h29.787v-85.047C399.787,247.984,387.036,268.528,370,278.234z"
		/>
	<path id="XMLID_483_" style="fill:#FF8417;" d="M369.786,13.871H291v30h30l18.786,20v87.384l-37.477-10.997
		c-47.497-13.938-103.09,11.542-123.539,56.62l-16.128,35.554h142.727c-0.24-1.646-0.37-3.326-0.37-5.036l0.015-35.133H340
		l-0.009,40.169H370l-0.213-158.561h30v-30h-30V13.871z"/>
	<path id="XMLID_484_" style="fill:#FFE9B8;" d="M340,262.408l-0.015-0.059v0.059c-17.532,0-32.156-13.084-34.616-29.977H212.9
		c41.173,0,74.86,33.687,74.86,74.859L340,289.396V262.408z"/>
	<path id="XMLID_486_" style="fill:#FFE9B8;" d="M370,232.432v45.802c17.037-9.706,29.787-30.25,29.787-49.41V73.871h-30
		L370,232.432z"/>
	<path id="XMLID_487_" style="fill:#FFB308;" d="M370,232.432h-30c-0.009,0,0-40.169,0-40.169h-34.985L305,227.396
		c0,1.71,0.13,3.39,0.37,5.036c2.46,16.892,17.083,29.977,34.616,29.977v-0.059l0.015,0.059v51.463h30V232.432z"/>
	<path id="XMLID_488_" style="fill:#FF9C0F;" d="M267.87,324.937c-37.405,0-67.728-30.323-67.728-67.728
		c0-8.749,1.677-17.101,4.697-24.777h-42.197L95.45,380.637c-8.032,13.881-26.482,25.492-40.675,25.492H0v40h54.775
		c28.592,0,61.274-20.095,76.023-46.742l0.386-0.696l30.085-66.32l81.386,17.994v93.507h45v-83.558l0.105,0.023v-38.374
		C281.47,323.893,274.792,324.937,267.87,324.937z"/>
	<rect id="XMLID_489_" x="369.786" y="13.871" style="fill:#FFCB00;" width="90.214" height="30"/>
	<path id="XMLID_490_" style="fill:#FFB308;" d="M212.9,232.432h-8.061c-3.02,7.677-4.697,16.029-4.697,24.777
		c0,37.405,30.323,67.728,67.728,67.728c6.922,0,13.6-1.044,19.889-2.974v-14.672C287.76,266.118,254.073,232.432,212.9,232.432z"/>
</g>
<g>
</g>
<g>
</g>
<g>
</g>
<g>
</g>
<g>
</g>
<g>
</g>
<g>
</g>
<g>
</g>
<g>
</g>
<g>
</g>
<g>
</g>
<g>
</g>
<g>
</g>
<g>
</g>
<g>
</g>
</svg>
