<?xml version="1.0" encoding="iso-8859-1"?>
<!-- Generator: Adobe Illustrator 19.0.0, SVG Export Plug-In . SVG Version: 6.00 Build 0)  -->
<svg version="1.1" id="Capa_1" xmlns="http://www.w3.org/2000/svg" xmlns:xlink="http://www.w3.org/1999/xlink" x="0px" y="0px"
	 viewBox="0 0 460 460" style="enable-background:new 0 0 460 460;" xml:space="preserve">
<g id="XMLID_1301_">
	<path id="XMLID_1302_" style="fill:#A4C662;" d="M409.225,294.368V340.5h30v-95.545
		C439.224,264.118,426.308,284.665,409.225,294.368z"/>
	<path id="XMLID_1303_" style="fill:#006E5E;" d="M439.225,50c0-27.5-22.5-50-50-50h-20c-16.5,0-30,13.5-30,30v20h39.786v108.391
		h-66.365c-57.25,0-105.623,38.008-121.263,90.167c0.009,0.003,60.742,0.003,60.742,0.003c41.173,0,74.86,33.687,74.86,74.86
		l52.24-17.896v-0.268l-0.013-0.05v0.05c-16.492,0-29.987-13.506-29.987-30.011l0.013-34.989h29.987l-0.007,35.048
		c0.007-0.025,30.007-0.025,30.007-0.025v19.089c17.083-9.703,29.999-30.25,30-49.413C439.225,244.953,439.225,50,439.225,50z"/>
	<path id="XMLID_1304_" style="fill:#A4C662;" d="M239.367,273.338c0-8.748,1.677-17.101,4.697-24.777h-52.672
		c-3.458,11.533-5.324,23.752-5.324,36.409c0,41.071,0,94.996,0,94.996c0,22.065-17.952,40.017-40.017,40.017H20.775V460h125.276
		c44.131,0,80.034-35.903,80.034-80.034v-13.5h55.795v-30.27C256.967,326.192,239.367,301.828,239.367,273.338z"/>
	<path id="XMLID_1305_" style="fill:#A4C662;" d="M326.88,366.466c0.065,0,0.105,0,0.105,0v-28.374
		c-0.035,0.011-0.07,0.019-0.105,0.03V366.466z"/>
	<path id="XMLID_1306_" style="fill:#42915F;" d="M326.985,323.42c0-41.173-33.687-74.86-74.86-74.86h-8.061
		c-3.02,7.677-4.697,16.029-4.697,24.777c0,28.49,17.6,52.854,42.513,62.858V460h45V338.122c0.035-0.011,0.07-0.019,0.105-0.03
		V323.42z"/>
	<path id="XMLID_1307_" style="fill:#42915F;" d="M409.225,275.279h-30c-0.007,0.025,0-35.023,0-35.023h-29.987l-0.013,34.989
		c0,16.505,13.495,30.011,29.987,30.011v-0.05l0.013,0.05v35.023h30V275.279z"/>
</g>
<g>
</g>
<g>
</g>
<g>
</g>
<g>
</g>
<g>
</g>
<g>
</g>
<g>
</g>
<g>
</g>
<g>
</g>
<g>
</g>
<g>
</g>
<g>
</g>
<g>
</g>
<g>
</g>
<g>
</g>
</svg>
