<?xml version="1.0" encoding="iso-8859-1"?>
<!-- Generator: Adobe Illustrator 19.0.0, SVG Export Plug-In . SVG Version: 6.00 Build 0)  -->
<svg version="1.1" id="Capa_1" xmlns="http://www.w3.org/2000/svg" xmlns:xlink="http://www.w3.org/1999/xlink" x="0px" y="0px"
	 viewBox="0 0 459.992 459.992" style="enable-background:new 0 0 459.992 459.992;" xml:space="preserve">
<g id="XMLID_351_">
	<path id="XMLID_352_" style="fill:#CA6033;" d="M194.439,142.26L20.026,242.085l0.091,0.172C8.1,248.859,0,261.501,0,277.248
		h119.75v-5.25C119.75,216.608,149.778,168.24,194.439,142.26z"/>
	<path id="XMLID_439_" style="fill:#FFB308;" d="M389.75,309.037v92.962h35V265.626C418.488,284.126,405.767,299.242,389.75,309.037
		z"/>
	<path id="XMLID_440_" style="fill:#FFB308;" d="M203.918,292.497c-6.932,8.334-15.079,15.619-24.168,21.59v87.911h35V326.28
		c14.618-4.931,27.85-12.869,38.968-23.074L203.918,292.497z"/>
	<path id="XMLID_441_" style="fill:#FFE9B8;" d="M452.934,146.336c-3.803,8.362-9.132,16.199-16.01,23.077
		c-13.466,13.466-30.593,21.038-48.177,22.717v20.118h18.384l-9.475,39.188c-4.554,18.818-19.86,33.173-37.906,38.049v30.735
		c10.678-1.759,20.872-5.602,30-11.184c16.017-9.794,28.738-24.91,35-43.41c0.788-2.328,1.488-4.702,2.064-7.133
		C432.389,235,445.237,179.59,452.934,146.336z"/>
	<path id="XMLID_443_" style="fill:#FFE9B8;" d="M324.75,287.814l-104.342-22.26c-4.19,9.799-9.769,18.863-16.49,26.943
		L324.75,318.48V287.814z"/>
	<path id="XMLID_444_" style="fill:#FF8417;" d="M359.75,289.485c18.046-4.876,33.352-19.231,37.906-38.049l9.475-39.188H274.75v-20
		c0-16.5,12.81-34.261,28.466-39.47l38.06-12.661c-21.26-11.555-45.627-18.119-71.526-18.119c-14.06,0-27.669,1.935-40.574,5.552
		c-12.292,3.452-23.94,8.43-34.737,14.71c-44.661,25.979-74.689,74.348-74.689,129.738v130h35V326.28
		c8.903-3.003,17.289-7.126,25-12.192c9.089-5.971,17.236-13.256,24.168-21.59c6.721-8.081,12.3-17.144,16.49-26.943l104.342,22.26
		v114.185h35V289.485z M219.75,187.248v30h-30v-30H219.75z M179.75,237.248v30h-30v-30H179.75z"/>
	<path id="XMLID_448_" style="fill:#FFB308;" d="M274.75,192.248v20h113.997V192.13c17.584-1.679,34.711-9.251,48.177-22.717
		c6.878-6.878,12.207-14.715,16.01-23.077c13.209-29.043,7.88-64.454-16.01-88.343l-75.384,75.384l-20.264,6.741l-38.06,12.661
		C287.56,157.987,274.75,175.748,274.75,192.248z"/>
	<rect id="XMLID_449_" x="149.75" y="237.248" style="fill:#CA6033;" width="30" height="30"/>
	<rect id="XMLID_450_" x="189.75" y="187.248" style="fill:#CA6033;" width="30" height="30"/>
</g>
<g>
</g>
<g>
</g>
<g>
</g>
<g>
</g>
<g>
</g>
<g>
</g>
<g>
</g>
<g>
</g>
<g>
</g>
<g>
</g>
<g>
</g>
<g>
</g>
<g>
</g>
<g>
</g>
<g>
</g>
</svg>
