<?xml version="1.0" encoding="iso-8859-1"?>
<!-- Generator: Adobe Illustrator 19.0.0, SVG Export Plug-In . SVG Version: 6.00 Build 0)  -->
<svg version="1.1" id="Capa_1" xmlns="http://www.w3.org/2000/svg" xmlns:xlink="http://www.w3.org/1999/xlink" x="0px" y="0px"
	 viewBox="0 0 460 460" style="enable-background:new 0 0 460 460;" xml:space="preserve">
<g id="XMLID_1211_">
	<path id="XMLID_1212_" style="fill:#FF9C0F;" d="M241.76,47.012l16.887-16.887L237.434,8.912l-16.887,16.887
		c0,0,0.015,0.015,0.043,0.043L241.76,47.012z"/>
	<path id="XMLID_1213_" style="fill:#CA6033;" d="M198.28,198.08l-4.297-4.297c-38.99-38.99-38.99-102.431,0-141.421l26.563-26.563
		C160.128-14.257,77.911-7.672,24.667,45.572L0,70.24l128.406,128.406l5.747,63.561L198.28,198.08z"/>
	<path id="XMLID_1214_" style="fill:#943D4F;" d="M193.983,193.783l4.297,4.297l21.211-21.211l0.962,0.962
		c0.002-0.002-5.256-5.261-5.256-5.261c-27.224-27.224-27.224-71.771,0-98.995l26.563-26.563l-21.17-21.171
		c-0.028-0.028-0.043-0.043-0.043-0.043l-26.563,26.563C154.993,91.352,154.993,154.793,193.983,193.783z"/>
	<path id="XMLID_1215_" style="fill:#FF8417;" d="M434.159,239.411c0.028,0.028,0.043,0.043,0.043,0.043l16.887-16.887
		l-21.213-21.213l-16.887,16.887L434.159,239.411z"/>
	<path id="XMLID_1216_" style="fill:#943D4F;" d="M434.201,239.454l-26.563,26.563c-38.99,38.99-102.431,38.99-141.421,0
		l-4.297-4.297l-47.625,47.625l-16.502,16.502l63.561,5.747L389.76,460l24.667-24.667
		C467.672,382.089,474.257,299.872,434.201,239.454z"/>
	<path id="XMLID_1217_" style="fill:#CA6033;" d="M261.92,261.72l4.297,4.297c38.99,38.99,102.431,38.99,141.421,0l26.563-26.563
		c0,0-0.015-0.015-0.043-0.043l-21.171-21.171l-26.563,26.563c-27.224,27.224-71.771,27.224-98.995,0l-5.259-5.259
		c-0.002,0.002,0.959,0.964,0.959,0.964L261.92,261.72z"/>
	<path id="XMLID_1218_" style="fill:#943D4F;" d="M357.742,223.175c11.716-11.716,11.716-30.711,0-42.426l-25.102-25.102
		l-21.213,21.213L357.742,223.175z"/>
	<path id="XMLID_1219_" style="fill:#FF8417;" d="M332.64,155.646l-46.315-46.315c-15.621-15.621-40.947-15.621-56.568,0l74.6,74.6
		L332.64,155.646z"/>
	
		<rect id="XMLID_1220_" x="243.256" y="169.239" transform="matrix(0.7071 -0.7071 0.7071 0.7071 -54.5078 246.8854)" style="fill:#CA6033;" width="55.015" height="40"/>
	<path id="XMLID_1221_" style="fill:#FF8417;" d="M283.131,240.509l-31.82-31.82L148.515,311.485
		c3.714,3.714,7.933,6.632,12.438,8.77l-56.311,56.311l21.216,21.216L283.131,240.509z"/>
	<path id="XMLID_1222_" style="fill:#FF9C0F;" d="M220.453,177.831l-0.962-0.962L62.218,334.143l21.213,21.213l56.312-56.312
		c2.138,4.506,5.057,8.726,8.772,12.441l102.796-102.796L220.453,177.831z"/>
</g>
<g>
</g>
<g>
</g>
<g>
</g>
<g>
</g>
<g>
</g>
<g>
</g>
<g>
</g>
<g>
</g>
<g>
</g>
<g>
</g>
<g>
</g>
<g>
</g>
<g>
</g>
<g>
</g>
<g>
</g>
</svg>
