<?xml version="1.0" encoding="iso-8859-1"?>
<!-- Generator: Adobe Illustrator 19.0.0, SVG Export Plug-In . SVG Version: 6.00 Build 0)  -->
<svg version="1.1" id="Capa_1" xmlns="http://www.w3.org/2000/svg" xmlns:xlink="http://www.w3.org/1999/xlink" x="0px" y="0px"
	 viewBox="0 0 460 460" style="enable-background:new 0 0 460 460;" xml:space="preserve">
<g id="XMLID_1210_">
	<path id="XMLID_42_" style="fill:#384276;" d="M53.696,406.304c2.329,2.33,4.188,4.95,5.591,7.741
		c0.927,1.843,1.631,3.767,2.154,5.728l64.417-64.417c-0.003-0.003,49.238-49.243,49.238-49.243
		c-4.504-2.138-8.724-5.056-12.438-8.77c-3.715-3.715-6.633-7.935-8.772-12.441l-49.241,49.241L40.227,398.56
		c1.962,0.523,3.885,1.227,5.728,2.154C48.746,402.116,51.366,403.975,53.696,406.304z"/>
	<path id="XMLID_41_" style="fill:#FF8417;" d="M61.44,419.773c-0.523-1.961-1.227-3.885-2.154-5.728
		c-1.403-2.791-3.261-5.411-5.591-7.741L11.27,448.73c11.715,11.715,30.712,11.715,42.426,0
		C61.543,440.884,64.107,429.776,61.44,419.773z"/>
	<path id="XMLID_40_" style="fill:#FF9C0F;" d="M53.696,406.304c-2.33-2.329-4.95-4.188-7.741-5.591
		c-1.843-0.927-3.767-1.631-5.728-2.154c-10.003-2.667-21.111-0.102-28.958,7.744c-11.715,11.715-11.715,30.712,0,42.426
		L53.696,406.304z"/>
	<path id="XMLID_39_" style="fill:#4B5E99;" d="M241.76,47.012l16.887-16.887L237.434,8.912l-16.887,16.887
		c0,0,0.015,0.015,0.043,0.043L241.76,47.012z"/>
	<path id="XMLID_38_" style="fill:#FF9C0F;" d="M198.28,198.08l-4.297-4.297c-38.99-38.99-38.99-102.431,0-141.421l26.563-26.563
		C160.128-14.257,77.911-7.672,24.667,45.572L0,70.24l128.406,128.406l5.748,63.561L198.28,198.08z"/>
	<path id="XMLID_37_" style="fill:#FF8417;" d="M193.983,193.783l4.297,4.297l21.211-21.211l0.962,0.962
		c0.002-0.002-5.256-5.261-5.256-5.261c-27.224-27.224-27.224-71.771,0-98.995l1.024-1.024l25.539-25.539l-21.17-21.171
		c-0.028-0.028-0.043-0.043-0.043-0.043l-26.563,26.563C154.993,91.352,154.993,154.793,193.983,193.783z"/>
	<path id="XMLID_36_" style="fill:#4B5E99;" d="M434.159,239.411c0.028,0.028,0.042,0.043,0.042,0.043l16.887-16.887l-21.213-21.213
		l-16.887,16.887L434.159,239.411z"/>
	<path id="XMLID_35_" style="fill:#FF8417;" d="M434.201,239.454l-26.563,26.563c-38.99,38.99-102.431,38.99-141.421,0l-4.297-4.297
		l-64.126,64.127l63.561,5.747L389.76,460l24.667-24.667C467.672,382.089,474.257,299.872,434.201,239.454z"/>
	<path id="XMLID_34_" style="fill:#CA6033;" d="M261.92,261.72l4.297,4.297c38.99,38.99,102.431,38.99,141.421,0l26.563-26.563
		c0,0-0.014-0.015-0.042-0.043l-21.171-21.171l-25.539,25.539l-1.024,1.024c-27.224,27.224-71.771,27.224-98.995,0l-5.259-5.259
		c-0.002,0.002,0.959,0.964,0.959,0.964L261.92,261.72z"/>
	<path id="XMLID_33_" style="fill:#384276;" d="M290.214,198.073l14.142-14.142c11.716-11.716,11.716-30.711,0-42.426
		l-27.666-27.666c-11.716-11.716-30.711-11.716-42.427,0l33.372,50.243L290.214,198.073z"/>
	<path id="XMLID_32_" style="fill:#5E79BC;" d="M153.885,284.902c2.138,4.506,5.057,8.726,8.772,12.441l88.654-88.654l-31.82-31.82
		L83.431,312.93l21.213,21.213L153.885,284.902z"/>
	<path id="XMLID_3_" style="fill:#4B5E99;" d="M283.131,240.509l-17.676-17.676l24.76-24.76l-22.578-33.991l-30.466,30.466
		l14.141,14.141l-88.654,88.654c3.714,3.714,7.934,6.632,12.438,8.77l-49.24,49.24l21.216,21.216L283.131,240.509z"/>
</g>
<g>
</g>
<g>
</g>
<g>
</g>
<g>
</g>
<g>
</g>
<g>
</g>
<g>
</g>
<g>
</g>
<g>
</g>
<g>
</g>
<g>
</g>
<g>
</g>
<g>
</g>
<g>
</g>
<g>
</g>
</svg>
