<?xml version="1.0" encoding="iso-8859-1"?>
<!-- Generator: Adobe Illustrator 19.0.0, SVG Export Plug-In . SVG Version: 6.00 Build 0)  -->
<svg version="1.1" id="Capa_1" xmlns="http://www.w3.org/2000/svg" xmlns:xlink="http://www.w3.org/1999/xlink" x="0px" y="0px"
	 viewBox="0 0 460 460" style="enable-background:new 0 0 460 460;" xml:space="preserve">
<g id="XMLID_1283_">
	<path id="XMLID_1284_" style="fill:#9541DC;" d="M233.084,364.44V460h30v-90c45.035,0,81.748-35.567,83.62-80.141
		c-21.027,7.278-45.062,15.598-63.948,22.135C274.986,336.095,256.591,355.41,233.084,364.44z"/>
	<path id="XMLID_1285_" style="fill:#9541DC;" d="M403.31,269.416v65.022h30V220C433.31,239.163,420.393,259.712,403.31,269.416z"/>
	<path id="XMLID_1286_" style="fill:#FFE9B8;" d="M338.31,264.402l0.004-17.367l-51.519,17.833v21.423
		c0,8.97-1.426,17.603-4.038,25.704c18.886-6.537,42.921-14.857,63.948-22.135c0.651-0.225,1.298-0.449,1.943-0.673
		C342.272,282.836,338.31,274.06,338.31,264.402z"/>
	<path id="XMLID_1287_" style="fill:#FFE9B8;" d="M433.308,52.5h-43.213v166.61c0,5.5-4.252,11.472-9.45,13.271l-7.341,2.541
		l-0.005,34.552c0.01-0.037,29.973-0.037,29.973-0.037c17.121-9.726,30.037-30.274,30.037-49.438V49.5L433.308,52.5z"/>
	<path id="XMLID_1288_" style="fill:#801C80;" d="M373.31,269.438c-0.01,0.037-0.005-34.515-0.005-34.515l7.341-2.541
		c5.198-1.799,9.45-7.771,9.45-13.271v-60.713c-0.001-0.007-102.988,27.528-102.988,27.528l-0.313,0.084v78.858l51.519-17.833
		l-0.004,17.367c0,9.658,3.962,18.434,10.338,24.785c6.336,6.311,15.057,10.227,24.647,10.227v-0.059l0.015,0.059v35.023h30v-65
		H373.31z"/>
	<path id="XMLID_1289_" style="fill:#AA67E3;" d="M282.756,311.994c2.612-8.101,4.038-16.734,4.038-25.704V186.009l0.313-0.084
		l-0.342-0.023L97.629,236.47c-19.121,5.112-36.984,17.478-50.298,34.819s-20.646,37.792-20.646,57.584v82.175h35v-82.175
		c0-25.241,20.6-52.072,44.984-58.591l101.247-27.07c-3.099,8.159-4.832,16.699-4.832,25.177v57.651h-30V460h30v-90
		c10.576,0,20.684-1.981,30-5.56C256.591,355.41,274.986,336.095,282.756,311.994z"/>
	<path id="XMLID_1290_" style="fill:#801C80;" d="M433.314,37.5c0-20.625-16.875-37.5-37.5-37.5h-25l-10,10l-32.5,2.5v30h61.781v10
		h43.213L433.314,37.5z"/>
</g>
<g>
</g>
<g>
</g>
<g>
</g>
<g>
</g>
<g>
</g>
<g>
</g>
<g>
</g>
<g>
</g>
<g>
</g>
<g>
</g>
<g>
</g>
<g>
</g>
<g>
</g>
<g>
</g>
<g>
</g>
</svg>
