<?xml version="1.0" encoding="iso-8859-1"?>
<!-- Generator: Adobe Illustrator 19.0.0, SVG Export Plug-In . SVG Version: 6.00 Build 0)  -->
<svg version="1.1" id="Capa_1" xmlns="http://www.w3.org/2000/svg" xmlns:xlink="http://www.w3.org/1999/xlink" x="0px" y="0px"
	 viewBox="0 0 460 460" style="enable-background:new 0 0 460 460;" xml:space="preserve">
<g id="XMLID_1153_">
	
		<rect id="XMLID_1154_" x="22.326" y="191.668" transform="matrix(0.866 -0.5 0.5 0.866 -94.5879 45.3477)" style="fill:#FFCB00;" width="30" height="15.018"/>
	
		<rect id="XMLID_1155_" x="65.626" y="166.668" transform="matrix(0.866 -0.5 0.5 0.866 -76.2856 63.648)" style="fill:#FFCB00;" width="30" height="15.013"/>
	
		<rect id="XMLID_1156_" x="152.226" y="116.669" transform="matrix(0.866 -0.5 0.5 0.866 -39.6813 100.2488)" style="fill:#FFCB00;" width="30" height="15.003"/>
	
		<rect id="XMLID_1157_" x="108.926" y="141.669" transform="matrix(0.866 -0.5 0.5 0.866 -57.9834 81.9484)" style="fill:#FFCB00;" width="30" height="15.008"/>
	<path id="XMLID_1158_" style="fill:#FFCB00;" d="M275,103.245V87.5h-30v15.745c4.934-0.491,9.937-0.745,15-0.745
		S270.066,102.755,275,103.245z"/>
	<path id="XMLID_1159_" style="fill:#FFCB00;" d="M223.278,90.94l-28.532,9.271l4.858,14.951c9.076-3.997,18.624-7.115,28.535-9.259
		L223.278,90.94z"/>
	<path id="XMLID_1160_" style="fill:#FFCB00;" d="M325.254,100.211l-28.532-9.271l-4.861,14.962
		c9.912,2.144,19.458,5.267,28.534,9.264L325.254,100.211z"/>
	<path id="XMLID_1161_" style="fill:#FFCB00;" d="M369.12,127.829l-24.271-17.634l-9.25,12.731
		c8.679,5.075,16.802,10.997,24.257,17.653L369.12,127.829z"/>
	<path id="XMLID_1162_" style="fill:#CA6033;" d="M420,344.214v-69.748c-11.459,12.356-24.973,22.776-40,30.721V372.5h60
		C440,359.439,431.65,348.333,420,344.214z"/>
	<path id="XMLID_1163_" style="fill:#FF8417;" d="M185.096,122.514c0-0.003-1.131,0.65-1.131,0.65l-25.979,15.002l-17.32,10.002
		l-25.979,15.002l-17.32,10.002l-25.979,15.002l-17.32,10.002L28.09,213.18l-8.064,4.657C8.061,224.759,0,237.684,0,252.5h110
		C110,196.939,140.208,148.436,185.096,122.514z"/>
	<path id="XMLID_1164_" style="fill:#CA6033;" d="M190,311.934V372.5h40v-36.838c13.886-4.909,26.598-12.299,37.605-21.641
		l-66.59-13.318C197.592,304.683,193.911,308.434,190,311.934z"/>
	<path id="XMLID_1165_" style="fill:#FF8417;" d="M420,172.5h-40v-10.009c-5.978-7.957-12.732-15.294-20.144-21.912
		c-7.455-6.656-15.577-12.578-24.257-17.653c-4.898-2.864-9.973-5.457-15.205-7.76c-9.076-3.997-18.622-7.12-28.534-9.264
		c-5.514-1.193-11.139-2.09-16.861-2.658c-4.934-0.49-9.937-0.745-15-0.745s-10.066,0.254-15,0.745
		c-5.078,0.505-10.083,1.261-15,2.259V222.5c0,14.67-2.637,28.723-7.455,41.716L310,281.708V372.5h60
		c0-13.061-8.35-24.167-20-28.286v-69.245C390.934,258.934,420,219.049,420,172.5z M375,202.5h-30v-15h30V202.5z M325,202.5h-30v-15
		h30V202.5z M275,187.5v15h-30v-15H275z"/>
	<path id="XMLID_1170_" style="fill:#FFE9B8;" d="M222.545,264.216c-4.994,13.469-12.336,25.796-21.53,36.487L310,322.5v-40.792
		L222.545,264.216z"/>
	<path id="XMLID_1171_" style="fill:#FFE9B8;" d="M420,274.466c24.819-26.762,40-62.588,40-101.966h-40
		c0,46.549-29.066,86.434-70,102.469v42.129c10.508-2.901,20.552-6.916,30-11.911C395.027,297.242,408.541,286.822,420,274.466z"/>
	<path id="XMLID_1172_" style="fill:#FF9C0F;" d="M201.015,300.703c9.194-10.69,16.536-23.018,21.53-36.487
		C227.363,251.223,230,237.17,230,222.5V105.503c-0.623,0.126-1.241,0.265-1.861,0.399c-9.911,2.144-19.46,5.262-28.535,9.259
		c-4.983,2.194-9.826,4.649-14.508,7.353C140.208,148.436,110,196.939,110,252.5v120h40v-36.838
		c14.905-5.269,28.458-13.396,40-23.728C193.911,308.434,197.592,304.683,201.015,300.703z"/>
	<path id="XMLID_1173_" style="fill:#CA6033;" d="M460,172.5c0-22.091-17.908-40-40-40l-40,10v30H460z"/>
	<rect id="XMLID_1174_" x="245" y="187.5" style="fill:#FFB308;" width="30" height="15"/>
	<rect id="XMLID_1175_" x="295" y="187.5" style="fill:#FFB308;" width="30" height="15"/>
	<rect id="XMLID_1176_" x="345" y="187.5" style="fill:#FFB308;" width="30" height="15"/>
</g>
<g>
</g>
<g>
</g>
<g>
</g>
<g>
</g>
<g>
</g>
<g>
</g>
<g>
</g>
<g>
</g>
<g>
</g>
<g>
</g>
<g>
</g>
<g>
</g>
<g>
</g>
<g>
</g>
<g>
</g>
</svg>
