<?xml version="1.0" encoding="iso-8859-1"?>
<!-- Generator: Adobe Illustrator 19.0.0, SVG Export Plug-In . SVG Version: 6.00 Build 0)  -->
<svg version="1.1" id="Capa_1" xmlns="http://www.w3.org/2000/svg" xmlns:xlink="http://www.w3.org/1999/xlink" x="0px" y="0px"
	 viewBox="0 0 460 460" style="enable-background:new 0 0 460 460;" xml:space="preserve">
<g id="XMLID_1134_">
	<path id="XMLID_1135_" style="fill:#FFB308;" d="M189,304.163V390h30v-80c34.754,0,64.319-22.167,75.36-53.128l-56.874-11.375
		C232.238,272.226,213.682,294.168,189,304.163z"/>
	<path id="XMLID_1136_" style="fill:#FF8417;" d="M369.994,247.516c0.006,0,0.006,65,0.006,65h30v-82.527
		C390.766,236.925,380.707,242.819,369.994,247.516z"/>
	<polygon id="XMLID_1137_" style="fill:#FFCB00;" points="239,205.007 310,219.208 310,185 280,185 280,170 310,170 310,140 
		239,140 	"/>
	<path id="XMLID_1138_" style="fill:#FFCB00;" d="M159,140H30c-16.569,0-30,13.432-30,30h130c0,16.233,12.896,29.446,29,29.975V140z
		"/>
	<path id="XMLID_1139_" style="fill:#FFE9B8;" d="M310,247.506v-28.298l-71-14.2V230c0,5.304-0.529,10.482-1.514,15.497L310,260
		c0.913,0,1.818-0.031,2.727-0.048C310.982,256.154,310,251.94,310,247.506z"/>
	<path id="XMLID_1140_" style="fill:#FFDA88;" d="M460,110h-40c0,50.259-33.886,92.745-80.008,105.833v31.805l29.962-0.121
		c10.753-4.698,20.813-10.592,30.046-17.527C436.43,202.626,460,159.071,460,110z"/>
	<path id="XMLID_1141_" style="fill:#FF8417;" d="M460,110c0-22.091-17.908-40-40-40l-60,10v30H460z"/>
	<path id="XMLID_1142_" style="fill:#FFDA88;" d="M237.486,245.497C238.471,240.482,239,235.304,239,230v-90h-80v140h-30v110h30v-80
		c10.613,0,20.733-2.085,30-5.837C213.682,294.168,232.238,272.226,237.486,245.497z"/>
	<path id="XMLID_1143_" style="fill:#FFB308;" d="M369.994,247.516c-0.041,0-30.003,0.122-30.003,0.122v-31.805
		C386.114,202.745,420,160.259,420,110h-30c0,10.558-2.13,20.695-5.969,30H310v30h-30v15h30v62.506
		c0,4.435,0.982,8.649,2.727,12.447c4.749,10.337,15.2,17.564,27.261,17.564l0.013,35h30C370,312.516,370,247.516,369.994,247.516z
		 M370,170v15h-30v-15H370z"/>
	<rect id="XMLID_1146_" x="340" y="125" style="fill:#FF9C0F;" width="30" height="15"/>
	<rect id="XMLID_1147_" x="280" y="125" style="fill:#FFB308;" width="30" height="15"/>
	<rect id="XMLID_1148_" x="340" y="170" style="fill:#FF9C0F;" width="30" height="15"/>
	<rect id="XMLID_1149_" x="220" y="125" style="fill:#FFB308;" width="30" height="15"/>
	<rect id="XMLID_1150_" x="160" y="125" style="fill:#FFB308;" width="30" height="15"/>
	<rect id="XMLID_1151_" x="100" y="125" style="fill:#FFB308;" width="30" height="15"/>
	<rect id="XMLID_1152_" x="40" y="125" style="fill:#FFB308;" width="30" height="15"/>
</g>
<g>
</g>
<g>
</g>
<g>
</g>
<g>
</g>
<g>
</g>
<g>
</g>
<g>
</g>
<g>
</g>
<g>
</g>
<g>
</g>
<g>
</g>
<g>
</g>
<g>
</g>
<g>
</g>
<g>
</g>
</svg>
