<?xml version="1.0" encoding="iso-8859-1"?>
<!-- Generator: Adobe Illustrator 19.0.0, SVG Export Plug-In . SVG Version: 6.00 Build 0)  -->
<svg version="1.1" id="Capa_1" xmlns="http://www.w3.org/2000/svg" xmlns:xlink="http://www.w3.org/1999/xlink" x="0px" y="0px"
	 viewBox="0 0 460 460" style="enable-background:new 0 0 460 460;" xml:space="preserve">
<g id="XMLID_240_">
	<polygon id="XMLID_241_" style="fill:#FFE9B8;" points="430,47.625 400,47.625 400,122.406 430,92.406 	"/>
	<path id="XMLID_242_" style="fill:#9541DC;" d="M389.75,349.413v92.962h35V306.003C418.488,324.503,405.767,339.619,389.75,349.413
		z"/>
	<path id="XMLID_243_" style="fill:#9541DC;" d="M176.344,187.69L20.026,277.961C8.061,284.884,0,297.809,0,312.625h109.75v-0.25
		C109.75,260.4,136.187,214.605,176.344,187.69z"/>
	<path id="XMLID_244_" style="fill:#9541DC;" d="M190,361.587v80.788h40v-56.588c20.444-7.227,38.344-19.833,51.999-36.123
		l-69.674-14.982C206.22,344.712,198.682,353.772,190,361.587z"/>
	<path id="XMLID_245_" style="fill:#BF8DEA;" d="M320.217,183.175v-8.103C320.216,175.072,320.216,183.176,320.217,183.175z"/>
	<path id="XMLID_307_" style="fill:#D9BBF2;" d="M324.75,328.19L224.715,306.85c-2.956,9.871-7.141,19.21-12.389,27.833
		l112.424,24.175V328.19z"/>
	<path id="XMLID_308_" style="fill:#AA67E3;" d="M212.326,334.682c5.249-8.623,9.434-17.962,12.389-27.833
		c3.27-10.92,5.035-22.49,5.035-34.475V165.378c-19.431,3.944-37.494,11.648-53.406,22.312
		c-40.157,26.915-66.594,72.71-66.594,124.685v130h40v-56.838c15.013-5.307,28.654-13.512,40.25-23.95
		C198.682,353.772,206.22,344.712,212.326,334.682z M199.75,242.375v30h-30v-30H199.75z M139.75,342.375v-30h30v30H139.75z"/>
	<rect id="XMLID_333_" x="169.75" y="242.375" style="fill:#BF8DEA;" width="30" height="30"/>
	<rect id="XMLID_334_" x="139.75" y="312.375" style="fill:#BF8DEA;" width="30" height="30"/>
	<polygon id="XMLID_337_" style="fill:#FFE9B8;" points="320.216,183.176 320.216,115.228 290.216,115.228 290.216,193.155 	"/>
	<path id="XMLID_338_" style="fill:#D9BBF2;" d="M435.037,207.903c-5.992,5.992-12.661,10.888-19.753,14.722h0.463v30h-8.616
		l-9.475,39.188c-4.554,18.818-19.86,33.173-37.906,38.049v30.735c10.678-1.759,20.872-5.602,30-11.184
		c16.017-9.794,28.738-24.91,35-43.41c0.788-2.328,1.487-4.702,2.064-7.133c6.372-26.851,22.243-95.391,29.067-124.895
		C451.845,186.381,444.89,198.049,435.037,207.903z"/>
	<path id="XMLID_340_" style="fill:#9541DC;" d="M430,92.406l-30,30L359.706,162.7h-39.489v20.475c0,0-30,9.98-30,9.98
		c-15.656,5.208-28.466,22.97-28.466,39.47v20h113.997v-30h39.537c7.091-3.834,13.761-8.73,19.753-14.722
		c9.854-9.854,16.808-21.521,20.844-33.927c2.454-7.543,3.832-15.36,4.119-23.209v-58.36H430z"/>
	<rect id="XMLID_341_" x="430" y="17.625" style="fill:#FFDA88;" width="30" height="74.781"/>
	<rect id="XMLID_348_" x="375.747" y="222.625" style="fill:#FFE9B8;" width="40" height="30"/>
	<path id="XMLID_350_" style="fill:#BF8DEA;" d="M359.75,329.862c18.046-4.876,33.352-19.231,37.906-38.049l9.475-39.188H261.75v-20
		c0-16.5,12.81-34.261,28.466-39.47v-27.682c-9.838-2.03-20.027-3.099-30.466-3.099c-10.274,0-20.307,1.033-30,3l0,107
		c0,11.984-1.765,23.554-5.035,34.475L324.75,328.19v114.185h35V329.862z"/>
</g>
<g>
</g>
<g>
</g>
<g>
</g>
<g>
</g>
<g>
</g>
<g>
</g>
<g>
</g>
<g>
</g>
<g>
</g>
<g>
</g>
<g>
</g>
<g>
</g>
<g>
</g>
<g>
</g>
<g>
</g>
</svg>
