<?xml version="1.0" encoding="iso-8859-1"?>
<!-- Generator: Adobe Illustrator 19.0.0, SVG Export Plug-In . SVG Version: 6.00 Build 0)  -->
<svg version="1.1" id="Capa_1" xmlns="http://www.w3.org/2000/svg" xmlns:xlink="http://www.w3.org/1999/xlink" x="0px" y="0px"
	 viewBox="0 0 460 460" style="enable-background:new 0 0 460 460;" xml:space="preserve">
<g id="XMLID_1261_">
	<rect id="XMLID_1262_" x="429.995" y="74.221" style="fill:#C5D762;" width="30.005" height="30"/>
	<path id="XMLID_1263_" style="fill:#C5D762;" d="M460,24.215h-77.168c20.393-0.331,37.623,11.981,44.249,30.006H460V24.215z"/>
	<path id="XMLID_1264_" style="fill:#384276;" d="M399.995,259.604v59.978h30V205.791
		C429.995,226.555,417.559,247.617,399.995,259.604z"/>
	<path id="XMLID_1265_" style="fill:#384276;" d="M200,346.182v89.609h30v-83.959c40.172,0,73.719-28.303,81.828-66.052
		l-65.718,16.678C237.111,322.431,220.519,338.23,200,346.182z"/>
	<path id="XMLID_1266_" style="fill:#83B461;" d="M382.832,24.226c-0.898,0.015-1.802,0.051-2.712,0.116l-90.615,6.45v30l90.494,20
		v83.383h-96.52v30.008h-30v73.94c0,0.511-0.029,1.015-0.039,1.524l76.57-19.432c0.176,10.895,4.753,20.765,12.028,27.898
		c7.222,7.082,17.091,11.469,27.938,11.469v-0.067l0.017,0.067v30h30v-59.977h-30c-0.012,0.041-0.008-19.536-0.008-19.536
		l4.164-1.057c13.284-3.371,25.844-19.516,25.844-33.221l-0.001-11.609h30.001V70.791c0-5.879-1.033-11.453-2.914-16.571
		C420.455,36.196,403.225,23.884,382.832,24.226z"/>
	<path id="XMLID_1267_" style="fill:#DFEB9B;" d="M330.012,250.215l-76.57,19.432c-0.209,11.679-2.808,22.769-7.332,32.812
		l65.718-16.678l30.212-7.667C334.765,270.98,330.187,261.109,330.012,250.215z"/>
	<path id="XMLID_1268_" style="fill:#DFEB9B;" d="M399.994,194.183l0.001,11.609c0,13.705-12.56,29.85-25.844,33.221l-4.164,1.057
		l-0.004,19.577c0.012-0.041,30.01-0.041,30.01-0.041c17.565-11.989,30.001-33.05,30.001-53.814v-11.609H399.994z"/>
	<path id="XMLID_1269_" style="fill:#C5D762;" d="M246.109,302.459c4.524-10.043,7.123-21.132,7.332-32.812
		c0.009-0.509,0.039-1.013,0.039-1.524v-13.94h-30v-30h30v-60.008h-30v30.008h-30v-30.008H55c-30.327,0-55,24.681-55,55.008
		s24.673,55,55,55h84.77v-30H55c-13.785,0-25-11.215-25-25s11.215-25,25-25h61.344c0,0,10.858,0,23.426,0c0,16.5,13.5,30,30,30
		v97.65h-30v113.959h30v-83.959c10.663,0,20.85-2.015,30.23-5.65C220.519,338.23,237.111,322.431,246.109,302.459z"/>
	<rect id="XMLID_1270_" x="223.48" y="224.182" style="fill:#384276;" width="30" height="30"/>
	<rect id="XMLID_1271_" x="253.48" y="164.174" style="fill:#384276;" width="30" height="30.008"/>
	<rect id="XMLID_1272_" x="193.48" y="164.174" style="fill:#384276;" width="30" height="30.008"/>
</g>
<g>
</g>
<g>
</g>
<g>
</g>
<g>
</g>
<g>
</g>
<g>
</g>
<g>
</g>
<g>
</g>
<g>
</g>
<g>
</g>
<g>
</g>
<g>
</g>
<g>
</g>
<g>
</g>
<g>
</g>
</svg>
