<?xml version="1.0" encoding="iso-8859-1"?>
<!-- Generator: Adobe Illustrator 19.0.0, SVG Export Plug-In . SVG Version: 6.00 Build 0)  -->
<svg version="1.1" id="Capa_1" xmlns="http://www.w3.org/2000/svg" xmlns:xlink="http://www.w3.org/1999/xlink" x="0px" y="0px"
	 viewBox="0 0 460 460" style="enable-background:new 0 0 460 460;" xml:space="preserve">
<g id="XMLID_1186_">
	<path id="XMLID_1187_" style="fill:#006E5E;" d="M280,149.875v-30h-30v31.301c6.464-0.85,13.054-1.301,19.75-1.301H280z"/>
	<path id="XMLID_1188_" style="fill:#42915F;" d="M149.75,360.961v98.914h40v-94.75c50.121,0,92.369-33.698,105.331-79.672
		l-73.053,9.211C209.821,326.683,183.02,351.497,149.75,360.961z"/>
	<path id="XMLID_1189_" style="fill:#006E5E;" d="M389.995,273.486v69.975h30V266.35c-6.125,2.934-12.692,4.953-19.525,5.815
		L389.995,273.486z"/>
	<path id="XMLID_1190_" style="fill:#C5D762;" d="M194.439,170.137L20.026,269.961l0.091,0.172C8.1,276.735,0,289.378,0,305.125
		h119.75v-5.25C119.75,244.484,149.778,196.116,194.439,170.137z"/>
	<path id="XMLID_1191_" style="fill:#DFEB9B;" d="M319.995,263.447l0.007-21.456L280,247.035l-50.823,6.408v2.255
		c0,13.727-2.535,26.86-7.15,38.966l73.053-9.211l29.384-3.705C321.616,276.254,319.995,270.032,319.995,263.447z"/>
	<path id="XMLID_1192_" style="fill:#DFEB9B;" d="M420,204.655c0,12.94-11.69,26.2-24.53,27.82l-35.48,4.474l-0.007,36.577
		c0.012-0.041,30.012-0.041,30.012-0.041c0,0.001,10.475-1.319,10.475-1.319c6.833-0.862,13.4-2.881,19.525-5.815
		C443.219,255.227,460,230.768,460,204.655v-54.78h-40V204.655z"/>
	<polygon id="XMLID_1193_" style="fill:#006E5E;" points="420,0.125 420,149.875 460,149.875 460,13.429 	"/>
	<path id="XMLID_1194_" style="fill:#42915F;" d="M420,0.125l-67.671,22.508C332.347,29.284,316,51.949,316,73.005v14.006
		l104,18.502V0.125z"/>
	<path id="XMLID_1195_" style="fill:#A4C662;" d="M222.027,294.664c4.615-12.106,7.15-25.239,7.15-38.966v-2.255L280,247.035v-97.16
		h-10.25c-6.696,0-13.286,0.451-19.75,1.301c-7.109,0.934-14.064,2.354-20.82,4.25c-12.295,3.453-23.943,8.431-34.741,14.712
		c-44.661,25.979-74.689,74.348-74.689,129.738v35.25h-40v124.75h40v-94.75c10.403,0,20.467-1.452,30-4.164
		C183.02,351.497,209.821,326.683,222.027,294.664z"/>
	<rect id="XMLID_1196_" x="310" y="119.875" style="fill:#42915F;" width="30" height="30"/>
	<path id="XMLID_1197_" style="fill:#C5D762;" d="M389.995,273.484h-30c-0.012,0.041-0.005-36.536-0.005-36.536l35.48-4.474
		c12.84-1.62,24.53-14.88,24.53-27.82v-99.142l-50-8.895v53.258h-90v97.16l40.002-5.044l-0.007,21.456
		c0,6.586,1.621,12.807,4.469,18.302c6.668,12.865,20.105,21.713,35.514,21.713v-0.067l0.017,0.067v40h30V273.484z"/>
</g>
<g>
</g>
<g>
</g>
<g>
</g>
<g>
</g>
<g>
</g>
<g>
</g>
<g>
</g>
<g>
</g>
<g>
</g>
<g>
</g>
<g>
</g>
<g>
</g>
<g>
</g>
<g>
</g>
<g>
</g>
</svg>
