<svg height="512" viewBox="0 0 58 58" width="512" xmlns="http://www.w3.org/2000/svg"><g id="002---Tulip" fill="none"><path id="Shape" d="m57.89 32.43-5.25-26.22c-.0822211-.43124423-.4360928-.75843219-.872448-.80666092-.4363552-.04822874-.8531383.19378158-1.027552.59666092l-5.31 12.7-15.68-17.84c-.189833-.21525044-.4629994-.33856217-.75-.33856217s-.560167.12331173-.75.33856217l-15.68 17.84-5.31-12.7c-.17113011-.40286498-.58437379-.64761917-1.01990659-.60406589s-.79212726.36529129-.88009341.79406589l-5.25 26.24c-.08862945.3689457.0391876.7562701.33 1l28.56 24.57 28.56-24.62c.2728147-.2342949.3988183-.5970326.33-.95z" fill="#ff5364"/><path id="Shape" d="m45.43 18.7-16.43 39.3-16.43-39.3 15.68-17.84c.189833-.21525044.4629994-.33856217.75-.33856217s.560167.12331173.75.33856217z" fill="#df4d60"/><path id="Shape" d="m29 58-28.56-24.62c-.2908124-.2437299-.41862945-.6310543-.33-1l5.25-26.17c.08222107-.43124423.43609278-.75843219.872448-.80666092.43635523-.04822874.85313832.19378158 1.027552.59666092z" fill="#ff5364"/><path id="Shape" d="m57.56 33.38-28.56 24.62 21.74-52c.1711301-.40286498.5843738-.64761917 1.0199066-.60406589s.7921272.36529129.8800934.79406589l5.25 26.22c.0765808.3594067-.0501301.73186-.33.97z" fill="#ff5364"/><g fill="#802d40"><path id="Shape" d="m30 1.14v18.86c0 .5522847-.4477153 1-1 1s-1-.4477153-1-1v-18.86l.25-.28c.189833-.21525044.4629994-.33856217.75-.33856217s.560167.12331173.75.33856217z"/><path id="Shape" d="m29 27c-.5522847 0-1-.4477153-1-1v-2c0-.5522847.4477153-1 1-1s1 .4477153 1 1v2c0 .5522847-.4477153 1-1 1z"/></g></g></svg>