<svg height="512" viewBox="0 0 49 58" width="512" xmlns="http://www.w3.org/2000/svg"><g id="008---Fox" fill="none"><path id="Shape" d="m49 55-2-17-19.75-13.83 6.75-7.17 2-17-9 10h-18l-9-10 2 17 16 17v20c0 .5522847.4477153 1 1 1h20.35l-1.35 3z" fill="#e57e25"/><path id="Shape" d="m47 38-7.65 17h-20.35c-.5522847 0-1-.4477153-1-1v-20l9.25-9.83z" fill="#d25627"/><path id="Shape" d="m34 17-16 17-16-17 7-7h18z" fill="#e57e25"/><path id="Shape" d="m2 17-2-17 9 10z" fill="#f29c1f"/><path id="Shape" d="m34 17 2-17-9 10z" fill="#f29c1f"/><path id="Shape" d="m49 55-11 3 9-20z" fill="#e57e25"/><g fill="#3f5c6c"><path id="Shape" d="m14 20c-.34 0-.13.05-4.45-2.11-.34603864-.1440974-.58243228-.4696151-.61238167-.8432591s.15157553-.73266.47024333-.9300368c.3186678-.1973769.72095754-.1999648 1.04213834-.0067041l4 2c.4101627.2101126.6236218.6733224.51688 1.1216381-.1067419.4483157-.5060402.7656308-.96688.7683619z"/><path id="Shape" d="m22 20c-.4608398-.0027311-.8601381-.3200462-.96688-.7683619-.1067418-.4483157.1067173-.9115255.51688-1.1216381l4-2c.3211808-.1932607.7234705-.1906728 1.0421383.0067041.3186678.1973768.5001928.5563928.4702434.9300368s-.2663431.6991617-.6123817.8432591c-4.32 2.16-4.12 2.11-4.45 2.11z"/><path id="Shape" d="m20.65 31.18-2.65 2.82-2.65-2.82c1.51-2.91 3.79-2.91 5.3 0z"/></g></g></svg>