<svg height="512" viewBox="0 0 58 58" width="512" xmlns="http://www.w3.org/2000/svg"><g id="011---Cat" fill="none"><path id="Shape" d="m3.85 17.33-3.85-17.33 14 9z" fill="#cf976a"/><path id="Shape" d="m24 9 14-9-3.85 17.33z" fill="#cf976a"/><path id="Shape" d="m43 51 15-18-10 25z" fill="#a56a43"/><path id="Shape" d="m32.84 24.02 11.16 13.98 4 20h-20.91l-1.09-33.98z" fill="#805333"/><path id="Shape" d="m30.85 26.64-2.77 30.45c-.046703.5168638-.4810348.9121057-1 .91h-16.17c-.5189652.0021057-.95329702-.3931362-1-.91l-2.76-30.45z" fill="#a56a43"/><path id="Shape" d="m27 7 8.57 12.37c.2543948.3709289.2298429.8660581-.06 1.21l-8.51 11.06c-.1903565.2285401-.4725678.360483-.77.36h-14.46c-.2974322.000483-.5796435-.1314599-.77-.36l-8.51-11.06c-.28984292-.3439419-.31439478-.8390711-.06-1.21l8.57-12.37z" fill="#cb8252"/><path id="Shape" d="m18.2 26.52-1-1.6c-.49-.79 0-1.92.8-1.92h2c.82 0 1.29 1.13.8 1.92l-1 1.6c-.1591106.293491-.466154.476295-.8.476295s-.6408894-.182804-.8-.476295z" fill="#fb7b76"/><g fill="#805333"><path id="Shape" d="m20 43v15h-2v-15c0-.5522847.4477153-1 1-1s1 .4477153 1 1z"/><path id="Shape" d="m19 40c-.5522847 0-1-.4477153-1-1v-1c0-.5522847.4477153-1 1-1s1 .4477153 1 1v1c0 .5522847-.4477153 1-1 1z"/></g></g></svg>