<svg height="512" viewBox="0 0 58 39" width="512" xmlns="http://www.w3.org/2000/svg"><g id="013---Mouse" fill="none"><path id="Shape" d="m40 34 18-7-15 12z" fill="#ff5364"/><path id="Shape" d="m18.52 9.75-18.52-9.75 9 37 4 1z" fill="#ecf0f1"/><path id="Shape" d="m5.09 2.68c-.84299161 1.42018892-2.13914464 2.51557912-3.68 3.11l-1.41-5.79z" fill="#ff5364"/><path id="Shape" d="m18 10-5 12v16c0 .5522847.4477153 1 1 1h29l-4.89-17.59c-.0713399-.2596689-.244393-.4795905-.48-.61z" fill="#95a5a5"/><path id="Shape" d="m13 22 7-2-2-10z" fill="#bdc3c7"/><path id="Shape" d="m20 20s9-3 10-10c0 0-4-4-12 0z" fill="#ff5364"/></g></svg>