<svg height="512" viewBox="0 0 58 58" width="512" xmlns="http://www.w3.org/2000/svg"><g id="015---Pinwheel" fill="none"><g fill="#955ba5"><path id="Shape" d="m29 29-9.17-9.17c-.7511082-.750273-1.1731466-1.768363-1.1731466-2.83s.4220384-2.079727 1.1731466-2.83l11.83-11.83c1.4991255-1.49745915 3.5310945-2.33901799 5.65-2.34h20.69z"/><path id="Shape" d="m29 29 9.17-9.17c.750273-.7511082 1.768363-1.1731466 2.83-1.1731466s2.079727.4220384 2.83 1.1731466l11.83 11.83c1.4974592 1.4991255 2.339018 3.5310945 2.34 5.65v20.69z"/><path id="Shape" d="m29 29 9.17 9.17c.7511082.750273 1.1731466 1.768363 1.1731466 2.83s-.4220384 2.079727-1.1731466 2.83l-11.83 11.83c-1.4991255 1.4974592-3.5310945 2.339018-5.65 2.34h-20.69z"/><path id="Shape" d="m29 29-9.17 9.17c-.750273.7511082-1.768363 1.1731466-2.83 1.1731466s-2.079727-.4220384-2.83-1.1731466l-11.83-11.83c-1.49745915-1.4991255-2.33901799-3.5310945-2.34-5.65v-20.69z"/></g><path id="Shape" d="m29 29v20c0 4.9705627-4.0294373 9-9 9h-20z" fill="#894b9d"/><path id="Shape" d="m29 29h-20c-4.97056275 0-9-4.0294373-9-9v-20z" fill="#894b9d"/><path id="Shape" d="m58 0-29 29v-20c0-4.97056275 4.0294373-9 9-9z" fill="#894b9d"/><path id="Shape" d="m58 38v20l-29-29h20c4.9705627 0 9 4.0294373 9 9z" fill="#894b9d"/></g></svg>