<svg height="512" viewBox="0 0 57 58" width="512" xmlns="http://www.w3.org/2000/svg"><g id="018---Rabbit" fill="none"><path id="Shape" d="m17 14 17-12-7-2-17 9z" fill="#ff5364"/><path id="Shape" d="m27 16-10.49 16.86-3.51-6.86-11.5-5.66c-.57539247-.3063996-.96535224-.8739966-1.04498368-1.521002s.1610591-1.2922209.64498368-1.728998l8.9-8.09c10.21 4.38 6.31 2.78 17 7z" fill="#bdc3c7"/><g fill="#95a5a5"><path id="Shape" d="m17.71 22.71c-4.3 4.3-4 4.05-4.25 4.18l-.46-.89-.9-.44c.11-.23-.18.1 4.19-4.27.3921222-.3921222 1.0278778-.3921222 1.42 0s.3921222 1.0278778 0 1.42z"/><path id="Shape" d="m26 41-15 5 13-31z"/><path id="Shape" d="m36 58h-18l11-12z"/></g><path id="Shape" d="m48.65 34.68 3.35-2.68 5 4v6l-9 3z" fill="#ecf0f1"/><path id="Shape" d="m36 58-12-16v-27l21.49 7.81c.3186304.1174602.5558753.3885972.63.72l4.75 20.89c.0909789.367025-.0328459.7539775-.32 1z" fill="#bdc3c7"/></g></svg>