<svg height="512" viewBox="0 0 58 58" width="512" xmlns="http://www.w3.org/2000/svg"><g id="020---Heart" fill="none"><path id="Shape" d="m50 0h-13l-8 9-8-9h-12l-9 9v13l28.22 35c.1897968.2365713.4767035.3742205.78.3742205s.5902032-.1376492.78-.3742205l28.22-35v-13z" fill="#ff5364"/><path id="Shape" d="m58 22-28.22 35c-.1897968.2365713-.4767035.3742205-.78.3742205s-.5902032-.1376492-.78-.3742205l-28.22-35 29-13z" fill="#ff5364"/><path id="Shape" d="m29 9-14.23 6.38-5.77-15.38h12z" fill="#df4d60"/><path id="Shape" d="m14.77 15.38-14.77 6.62v-13l9-9z" fill="#fb7b76"/><path id="Shape" d="m50 0-5.91 15.76-15.09-6.76 8-9z" fill="#df4d60"/><path id="Shape" d="m58 9v13l-13.91-6.24 5.91-15.76z" fill="#fb7b76"/><g fill="#df4d60"><path id="Shape" d="m29 25c-.5522847 0-1-.4477153-1-1v-1c0-.5522847.4477153-1 1-1s1 .4477153 1 1v1c0 .5522847-.4477153 1-1 1z"/><path id="Shape" d="m30 28v28.76l-.22.27c-.1897968.2365713-.4767035.3742205-.78.3742205s-.5902032-.1376492-.78-.3742205l-.22-.27v-28.76c0-.5522847.4477153-1 1-1s1 .4477153 1 1z"/></g></g></svg>