<svg height="512" viewBox="0 0 58 58" width="512" xmlns="http://www.w3.org/2000/svg"><g id="026---Flower" fill="none"><path id="Shape" d="m38 32.56 8.59-12 11.41 2.44-13-12h-11l2.29-2.29c.1893127-.1877666.2957983-.44336246.2957983-.71s-.1064856-.5222334-.2957983-.71l-6.58-6.58c-.1877666-.18931265-.4433625-.29579832-.71-.29579832s-.5222334.10648567-.71.29579832l-6.58 6.58c-.1893127.1877666-.2957983.44336246-.2957983.71s.1064856.5222334.2957983.71l2.29 2.29h-11l-13 12 11.38-2.47 8.59 12-1.97 1.47h-16l27 24 27-24h-16z" fill="#894b9d"/><path id="Shape" d="m36.29 8.71-5.29 5.29v13.45l-2-1.45-2 1.45v-13.45l-5.29-5.29c-.1893127-.1877666-.2957983-.44336246-.2957983-.71s.1064856-.5222334.2957983-.71l6.58-6.58c.1877666-.18931265.4433625-.29579832.71-.29579832s.5222334.10648567.71.29579832l6.58 6.58c.1893127.1877666.2957983.44336246.2957983.71s-.1064856.5222334-.2957983.71z" fill="#f0c419"/><path id="Shape" d="m23 18-23 5 13-12z" fill="#955ba5"/><path id="Shape" d="m26.83 27.58-6.86 4.98-8.59-12.03 11.62-2.53z" fill="#894b9d"/><path id="Shape" d="m58 23-23-5 10-7z" fill="#955ba5"/><path id="Shape" d="m46.62 20.53-8.59 12.03-6.86-4.98 3.83-9.58z" fill="#894b9d"/><path id="Shape" d="m45 11-10 7-3.83 9.58-.17-.13v-13.45l3-3z" fill="#3d324c"/><path id="Shape" d="m27 14v13.45l-.17.13-3.83-9.58-10-7h11z" fill="#3d324c"/><path id="Shape" d="m40 34-11 24-11-24 11-8z" fill="#4fba6f"/><g fill="#24ae5f"><path id="Shape" d="m29 58-27-24h16z"/><path id="Shape" d="m56 34-27 24 11-24z"/></g></g></svg>