<svg height="512" viewBox="0 0 50 58" width="512" xmlns="http://www.w3.org/2000/svg"><g id="028---Flower" fill="none"><path id="Shape" d="m44 29 6-14-15.33-2.74-9.67-12.26-9.68 12.26-15.32 2.74c7.22 16.85 5.05 11.74 9.64 22.6 8.3266667.76 8.3266667.76 0 0l-3.64-8.6-6 14 15.33 2.74 9.67 12.26 9.67-12.26 15.33-2.74zm-27.72 4.89.49-.28z" fill="#3b97d3"/><path id="Shape" d="m34.72 45.73 6.2-7.82-7.19-13.8 6.63-3.71 9.64 22.6z" fill="#3b97d3"/><path id="Shape" d="m40.92 37.91-15.92 20.09-9.64-12.22 9.64 1.74c6.78-10.52 4.81-7.52 8.74-13.63z" fill="#2980ba"/><path id="Shape" d="m33.74 33.89-8.74 13.63v-18.52z" fill="#84b5cb"/><path id="Shape" d="m25 39v8.52l-25-4.52 6-14 3.66 8.56z" fill="#3b97d3"/><path id="Shape" d="m16.28 33.88-6.64 3.72-9.64-22.6 15.32-2.74-6.19 7.85z" fill="#2980ba"/><path id="Shape" d="m34.65 12.24-9.65-1.74-8.74 13.61-7.12-3.99 15.86-20.12z" fill="#3b97d3"/><path id="Shape" d="m50 15-6 14-3.64-8.6-15.36-1.4v-8.5z" fill="#2980ba"/><path id="Shape" d="m40.36 20.4-15.36 8.6v-10z" fill="#84b5cb"/><path id="Shape" d="m40.92 37.91-15.92-8.91 8.73-4.89z" fill="#9fc9d3"/><path id="Shape" d="m25 29-8.72 4.88-7.14-13.76z" fill="#84b5cb"/><g fill="#9fc9d3"><path id="Shape" d="m25 10.5v18.5l-8.74-4.89z"/><path id="Shape" d="m25 29v10l-15.36-1.4z"/></g></g></svg>