<svg height="512" viewBox="0 0 42 58" width="512" xmlns="http://www.w3.org/2000/svg"><g id="037---Kite-Base" fill="none"><path id="Shape" d="m42 19-21 39-21-39 20.33-18.4c.3806191-.34351854.9593809-.34351854 1.34 0z" fill="#f29c1f"/><g fill="#e57e25"><path id="Shape" d="m21 16c-.5522847 0-1-.4477153-1-1v-1c0-.5522847.4477153-1 1-1s1 .4477153 1 1v1c0 .5522847-.4477153 1-1 1z"/><path id="Shape" d="m21 11c-.5522847 0-1-.4477153-1-1v-1c0-.55228475.4477153-1 1-1s1 .44771525 1 1v1c0 .5522847-.4477153 1-1 1z"/><path id="Shape" d="m22 .9v4.1c0 .55228475-.4477153 1-1 1s-1-.44771525-1-1v-4.1l.33-.3c.3806191-.34351854.9593809-.34351854 1.34 0z"/></g><path id="Shape" d="m42 19-21 39v-39z" fill="#f3d55b"/><path id="Shape" d="m21 19v39l-21-39z" fill="#f0c419"/></g></svg>