<svg height="512" viewBox="0 0 58 50" width="512" xmlns="http://www.w3.org/2000/svg"><g id="040---Rabbit-Ear-Fold" fill="none"><path id="Shape" d="m29 0-29 16 28.24 33.11c.1899882.2221664.4676758.3500769.76.3500769s.5700118-.1279105.76-.3500769l28.24-33.11z" fill="#f29c1f"/><path id="Shape" d="m41 13-19 3h-22l29-16z" fill="#f3d55b"/><path id="Shape" d="m22 16 19-3-12-13 29 16z" fill="#f0c419"/><path id="Shape" d="m58 16-28.24 33.11c-.1899882.2221664-.4676758.3500769-.76.3500769s-.5700118-.1279105-.76-.3500769l-28.24-33.11z" fill="#f29c1f"/><g fill="#e57e25"><path id="Shape" d="m30 16v2c0 .5522847-.4477153 1-1 1s-1-.4477153-1-1v-2z"/><path id="Shape" d="m29 24c-.5522847 0-1-.4477153-1-1v-1c0-.5522847.4477153-1 1-1s1 .4477153 1 1v1c0 .5522847-.4477153 1-1 1z"/><path id="Shape" d="m29 29c-.5522847 0-1-.4477153-1-1v-1c0-.5522847.4477153-1 1-1s1 .4477153 1 1v1c0 .5522847-.4477153 1-1 1z"/><path id="Shape" d="m29 34c-.5522847 0-1-.4477153-1-1v-1c0-.5522847.4477153-1 1-1s1 .4477153 1 1v1c0 .5522847-.4477153 1-1 1z"/><path id="Shape" d="m29 39c-.5522847 0-1-.4477153-1-1v-1c0-.5522847.4477153-1 1-1s1 .4477153 1 1v1c0 .5522847-.4477153 1-1 1z"/><path id="Shape" d="m29 44c-.5522847 0-1-.4477153-1-1v-1c0-.5522847.4477153-1 1-1s1 .4477153 1 1v1c0 .5522847-.4477153 1-1 1z"/><path id="Shape" d="m30 47v1.83l-.24.28c-.1899882.2221664-.4676758.3500769-.76.3500769s-.5700118-.1279105-.76-.3500769l-.24-.28v-1.83c0-.5522847.4477153-1 1-1s1 .4477153 1 1z"/></g><path id="Shape" d="m29 0-1.35.74-.29.78c-.0914187.25576123-.0748697.53770617.0458422.78101625.120712.24331009.3352015.42705196.5941578.50898375.5163058.18853122 1.087988-.07497854 1.28-.59l.53-1.4zm-1.75 4.68c-.2492527-.09367345-.5255717-.08407106-.7677204.02667913-.2421487.11075018-.4301283.31350144-.5222796.56332087l-.71 1.87c-.1932996.51914766.0708524 1.09670031.59 1.28999997.5191477.19329966 1.0967003-.07085232 1.29-.58999997l.7-1.87c.0941865-.24797515.0859902-.52321197-.022785-.76514317-.1087753-.2419312-.3092163-.43073237-.557215-.52485683zm-2.11 5.62c-.2479752-.0941865-.523212-.0859902-.7651432.022785-.2419312.1087753-.4307323.3092163-.5248568.557215l-.7 1.88c-.1237979.3309788-.0637212.7027214.1580296.9778567s.5722477.412808.9219704.3621433c.3602272-.0535633.6628529-.2987285.79-.64l.7-1.87c.0941865-.2479752.0859902-.523212-.022785-.7651432-.1087753-.2419312-.3092163-.4307323-.557215-.5248568z" fill="#f0c419"/></g></svg>