<?xml version="1.0" encoding="iso-8859-1"?>
<!-- Generator: Adobe Illustrator 19.0.0, SVG Export Plug-In . SVG Version: 6.00 Build 0)  -->
<svg version="1.1" id="Capa_1" xmlns="http://www.w3.org/2000/svg" xmlns:xlink="http://www.w3.org/1999/xlink" x="0px" y="0px"
	 viewBox="0 0 460 460" style="enable-background:new 0 0 460 460;" xml:space="preserve">
<g id="XMLID_791_">
	<path id="XMLID_792_" style="fill:#801C80;" d="M235.812,188.192h-49.72C100.023,188.192,30,118.07,30,32V0H0v32
		c0,49.744,19.347,96.487,54.477,131.616c35.129,35.13,81.872,54.477,131.616,54.477v-4.975c0,13.764,12.556,29.985,27.902,36.047
		l21.818,8.619V188.192z"/>
	<path id="XMLID_793_" style="fill:#A11F95;" d="M429.998,274.649V350h30V220C459.998,240.837,447.551,262.268,429.998,274.649z"/>
	<path id="XMLID_794_" style="fill:#801C80;" d="M265.812,366.964V460h30v-86.29c38.66,0,70-31.34,70-70v-7.425l-60.66,16.929
		C301.919,337.023,286.728,357.027,265.812,366.964z"/>
	<path id="XMLID_795_" style="fill:#FFE9B8;" d="M429.998,118.333V220c0,13.994-12.745,30.782-26.225,34.545l-3.781,1.055
		l-0.003,19.429c0.008-0.029,29.5-0.029,29.5-0.029c0.17-0.117,0.34-0.232,0.509-0.351c17.552-12.381,30-33.812,30-54.649V118.333
		H429.998z"/>
	<path id="XMLID_796_" style="fill:#FFE9B8;" d="M369.998,274.966v-10.995l-64.477,17.994c0.181,2.053,0.291,4.127,0.291,6.227
		v15.518c0,3.226-0.237,6.394-0.66,9.503l60.66-16.929l10.523-2.937C372.372,288.26,369.998,281.878,369.998,274.966z"/>
	<path id="XMLID_797_" style="fill:#BF8DEA;" d="M399.998,275c-0.008,0.029-0.005-19.4-0.005-19.4l3.781-1.055
		c13.479-3.763,26.225-20.551,26.225-34.545v-31.808h-30v34h-30v-34h-30v34h-30v-34h-74.186v30c36.56,0,66.556,28.033,69.709,63.773
		l64.477-17.994v10.995c0,6.913,2.374,13.294,6.337,18.382c5.499,7.062,14.066,11.628,23.651,11.628v-0.05l0.013,0.05V350h30v-75
		H399.998z"/>
	<path id="XMLID_798_" style="fill:#BF8DEA;" d="M459.998,118.333L460,107.215c0.001-17.639-14.43-32.071-32.07-32.071h-46.823v30
		l48.891,13.19H459.998z"/>
	<path id="XMLID_799_" style="fill:#A11F95;" d="M305.153,313.213c0.422-3.109,0.66-6.278,0.66-9.503v-15.518
		c0-2.1-0.109-4.174-0.291-6.227c-3.153-35.74-33.149-63.773-69.709-63.773V333.71h-30V460h30v-86.29
		c10.738,0,20.906-2.425,30-6.746C286.728,357.027,301.919,337.023,305.153,313.213z"/>
	<rect id="XMLID_800_" x="369.998" y="188.192" style="fill:#801C80;" width="30" height="34"/>
	<rect id="XMLID_801_" x="309.998" y="188.192" style="fill:#A11F95;" width="30" height="34"/>
</g>
<g>
</g>
<g>
</g>
<g>
</g>
<g>
</g>
<g>
</g>
<g>
</g>
<g>
</g>
<g>
</g>
<g>
</g>
<g>
</g>
<g>
</g>
<g>
</g>
<g>
</g>
<g>
</g>
<g>
</g>
</svg>
