<?xml version="1.0" encoding="iso-8859-1"?>
<!-- Generator: Adobe Illustrator 19.0.0, SVG Export Plug-In . SVG Version: 6.00 Build 0)  -->
<svg version="1.1" id="Capa_1" xmlns="http://www.w3.org/2000/svg" xmlns:xlink="http://www.w3.org/1999/xlink" x="0px" y="0px"
	 viewBox="0 0 460 460" style="enable-background:new 0 0 460 460;" xml:space="preserve">
<g id="XMLID_1024_">
	<path id="XMLID_1025_" style="fill:#CA6033;" d="M240,175.769c9.055,0.931,17.86,2.703,26.344,5.222l15.375-37.12
		c-13.341-4.298-27.344-7.124-41.819-8.278c0.033,0.003,0.067,0.011,0.1,0.014V175.769z"/>
	<path id="XMLID_1026_" style="fill:#CA6033;" d="M380,240v-21c-4.281-6.555-8.958-12.829-14.012-18.773
		c-0.004,0.002-28.404,28.402-28.404,28.402c2.963,3.646,5.746,7.444,8.35,11.371H380z"/>
	<path id="XMLID_1027_" style="fill:#CA6033;" d="M316.371,207.416l28.4-28.4c-10.778-9.179-22.63-17.135-35.336-23.664
		l-15.375,37.12C301.972,196.765,309.434,201.779,316.371,207.416z"/>
	<path id="XMLID_1028_" style="fill:#FF8417;" d="M150.398,195.638c1.823-1.085,3.67-2.144,5.544-3.16l-15.378-37.126
		c-12.706,6.529-24.55,14.492-35.336,23.664l27.341,27.34L150.398,195.638z"/>
	<path id="XMLID_1029_" style="fill:#FF8417;" d="M51.778,254.925l54.294-32.64l-22.056-22.056
		C70.331,216.321,59.349,234.789,51.778,254.925z"/>
	<path id="XMLID_1030_" style="fill:#FF8417;" d="M210.063,135.599c-14.46,1.159-28.45,3.982-41.782,8.272l15.377,37.123
		c5.327-1.582,10.779-2.873,16.342-3.84c3.297-0.573,6.634-1.03,10.003-1.377C210.002,175.777,210.042,135.601,210.063,135.599z"/>
	<path id="XMLID_1031_" style="fill:#801C80;" d="M225,175c5.065,0,10.069,0.262,15,0.769v-40.161
		c-4.948-0.397-9.949-0.607-15-0.607s-10.052,0.21-15,0.607v40.169C214.931,175.268,219.934,175,225,175z"/>
	<path id="XMLID_1032_" style="fill:#943D4F;" d="M183.658,180.994l-15.377-37.123c-9.604,3.09-18.869,6.935-27.716,11.48
		l15.378,37.126C164.677,187.737,173.956,183.875,183.658,180.994z"/>
	<path id="XMLID_1033_" style="fill:#801C80;" d="M294.06,192.471l15.375-37.12c-8.847-4.546-18.112-8.39-27.716-11.48
		l-15.375,37.12C276.045,183.872,285.325,187.731,294.06,192.471z"/>
	<path id="XMLID_1034_" style="fill:#801C80;" d="M337.584,228.629l28.4-28.4c-6.488-7.63-13.583-14.725-21.213-21.213l-28.4,28.4
		C324.151,213.738,331.262,220.849,337.584,228.629z"/>
	<path id="XMLID_1035_" style="fill:#CA6033;" d="M451.752,239.151c-0.417,1.202-0.849,2.398-1.296,3.586
		C450.903,241.549,451.335,240.354,451.752,239.151z"/>
	<path id="XMLID_1036_" style="fill:#CA6033;" d="M452.985,235.44c-0.383,1.206-0.781,2.405-1.194,3.598
		C452.204,237.846,452.602,236.646,452.985,235.44z"/>
	<path id="XMLID_1037_" style="fill:#CA6033;" d="M450.432,242.801c-0.454,1.206-0.922,2.404-1.406,3.594
		C449.509,245.205,449.978,244.007,450.432,242.801z"/>
	<path id="XMLID_1038_" style="fill:#CA6033;" d="M454.149,231.603c-0.358,1.242-0.732,2.477-1.122,3.706
		C453.417,234.08,453.792,232.845,454.149,231.603z"/>
	<path id="XMLID_1039_" style="fill:#CA6033;" d="M456.997,220c-0.794,3.911-1.741,7.765-2.834,11.558
		C455.254,227.765,456.203,223.911,456.997,220z"/>
	<path id="XMLID_1040_" style="fill:#CA6033;" d="M420,40h40c0-22.091-17.908-40-40-40h-40C402.092,0,420,17.909,420,40z"/>
	<path id="XMLID_1041_" style="fill:#CA6033;" d="M419.66,250c-1.329,20.186-6.649,39.279-15.182,56.501
		c19.499-15.832,34.942-36.458,44.54-60.086c-0.489,1.203-0.993,2.398-1.511,3.585H419.66z"/>
	<rect id="XMLID_1042_" x="420" y="70" style="fill:#CA6033;" width="40" height="30"/>
	<path id="XMLID_1043_" style="fill:#CA6033;" d="M420,220h36.997c1.968-9.693,3.003-19.726,3.003-30h-40V220z"/>
	<rect id="XMLID_1044_" x="420" y="130" style="fill:#CA6033;" width="40" height="30"/>
	<rect id="XMLID_1045_" x="420" y="40" style="fill:#801C80;" width="40" height="30"/>
	<rect id="XMLID_1046_" x="420" y="100" style="fill:#801C80;" width="40" height="30"/>
	<rect id="XMLID_1047_" x="420" y="160" style="fill:#801C80;" width="40" height="30"/>
	<path id="XMLID_1048_" style="fill:#801C80;" d="M420,240c0,3.361-0.122,6.694-0.34,10h27.846c0.519-1.187,1.023-2.382,1.511-3.585
		c0.492-1.21,0.96-2.408,1.414-3.614c0.008-0.021,0.016-0.042,0.024-0.064c0.447-1.188,0.878-2.384,1.296-3.586
		c0.013-0.038,0.027-0.075,0.04-0.113c0.413-1.192,0.81-2.392,1.194-3.598c0.014-0.044,0.029-0.087,0.043-0.132
		c0.389-1.229,0.763-2.464,1.122-3.706c1.106-3.837,2.053-7.692,2.847-11.603L420,220V240z"/>
	<path id="XMLID_1049_" style="fill:#5F196B;" d="M220,460c0-13.061-8.349-24.167-20-28.286V460H220z"/>
	<path id="XMLID_1050_" style="fill:#5F196B;" d="M160,379.415V427.5l40,2.5v-26.838c13.077-4.623,25.113-11.448,35.664-20.029
		l-66.157-13.231C166.517,373.247,163.343,376.422,160,379.415z"/>
	<path id="XMLID_1051_" style="fill:#943D4F;" d="M120,425v6.714c11.651,4.119,20,15.225,20,28.286h60v-30L120,425z"/>
	<path id="XMLID_1052_" style="fill:#943D4F;" d="M40,420V320h40.059c0.002-2.613,0.003-4.121,0.004-4.141
		c1.432-51.065,29.267-95.52,70.336-120.21c0-0.011-17.829,10.707-17.829,10.707l-27.341-27.34
		c-7.63,6.488-14.725,13.583-21.213,21.213l22.056,22.056l-25.815,15.519L29.13,268.54C11.684,279.031,0,298.149,0,320v100
		c0,22.091,17.909,40,40,40h40v-37.5L40,420z"/>
	<path id="XMLID_1053_" style="fill:#5F196B;" d="M380,0l-40,10v30h80C420,17.909,402.092,0,380,0z"/>
	<path id="XMLID_1054_" style="fill:#FFE9B8;" d="M420,240V40h-40v200c0,46.549-29.066,86.434-70,102.469v42.129
		c41.465-11.446,75.724-40.245,94.478-78.097c8.533-17.222,13.853-36.315,15.182-56.501C419.878,246.694,420,243.361,420,240z"/>
	<path id="XMLID_1055_" style="fill:#FFE9B8;" d="M270,349.208l-78.18-15.636c-5.25,13.46-12.851,25.74-22.313,36.33L270,390
		V349.208z"/>
	<path id="XMLID_1056_" style="fill:#943D4F;" d="M310,342.469c40.934-16.035,70-55.92,70-102.469h-34.059
		C319.98,200.832,275.51,175,225,175c-8.526,0-16.878,0.742-25,2.154V290c0,15.374-2.911,30.063-8.18,43.571L270,349.208V460h60
		c0-13.061-8.349-24.167-20-28.286V342.469z"/>
	<path id="XMLID_1057_" style="fill:#CA6033;" d="M120,431.714v-28.552c14.909-5.27,28.456-13.414,40-23.748
		c3.343-2.993,6.517-6.167,9.507-9.513c9.462-10.59,17.063-22.87,22.313-36.33C197.089,320.063,200,305.374,200,290V177.154
		c-17.87,3.106-34.616,9.485-49.602,18.495c-41.069,24.69-68.904,69.145-70.336,120.21c0,0.021-0.002,1.528-0.004,4.141
		c-0.009,11.557-0.03,44.816-0.045,67.5C80,387.5,80,460,80,460h60C140,446.939,131.651,435.833,120,431.714z"/>
</g>
<g>
</g>
<g>
</g>
<g>
</g>
<g>
</g>
<g>
</g>
<g>
</g>
<g>
</g>
<g>
</g>
<g>
</g>
<g>
</g>
<g>
</g>
<g>
</g>
<g>
</g>
<g>
</g>
<g>
</g>
</svg>
