<?xml version="1.0" encoding="iso-8859-1"?>
<!-- Generator: Adobe Illustrator 19.0.0, SVG Export Plug-In . SVG Version: 6.00 Build 0)  -->
<svg version="1.1" id="Capa_1" xmlns="http://www.w3.org/2000/svg" xmlns:xlink="http://www.w3.org/1999/xlink" x="0px" y="0px"
	 viewBox="0 0 460 460" style="enable-background:new 0 0 460 460;" xml:space="preserve">
<g id="XMLID_925_">
	<rect id="XMLID_926_" x="430" y="40" style="fill:#FF9C0F;" width="30" height="30"/>
	<rect id="XMLID_927_" x="430" y="100" style="fill:#FF9C0F;" width="30" height="30"/>
	<rect id="XMLID_928_" x="430" y="160" style="fill:#FF9C0F;" width="30" height="30"/>
	<path id="XMLID_929_" style="fill:#FF9C0F;" d="M429.66,250H460v-30h-30v20C430,243.361,429.878,246.694,429.66,250z"/>
	<path id="XMLID_930_" style="fill:#FF9C0F;" d="M245,170.745V130h-30v40.745c4.934-0.491,9.937-0.745,15-0.745
		S240.066,170.254,245,170.745z"/>
	<path id="XMLID_931_" style="fill:#FF9C0F;" d="M316.568,150.203l-27.716-11.48l-15.584,37.623
		c9.687,2.914,18.962,6.775,27.714,11.485L316.568,150.203z"/>
	<path id="XMLID_932_" style="fill:#FF9C0F;" d="M374.957,196.256l-21.213-21.213l-28.817,28.817
		c7.757,6.348,14.865,13.457,21.213,21.213L374.957,196.256z"/>
	<path id="XMLID_933_" style="fill:#FF9C0F;" d="M186.732,176.344l-11.756-28.382l-27.716,11.48l11.761,28.394
		C167.773,183.125,177.045,179.257,186.732,176.344z"/>
	<polygon id="XMLID_934_" style="fill:#FF9C0F;" points="134.177,202.964 113.327,182.114 92.114,203.327 108.055,219.269 	"/>
	<path id="XMLID_935_" style="fill:#5F196B;" d="M220,460c0-13.061-8.349-24.167-20-28.286V460H220z"/>
	<path id="XMLID_936_" style="fill:#5F196B;" d="M160,379.434V427.5l40,2.5v-26.838c13.887-4.909,26.598-12.299,37.605-21.641
		l-66.59-13.318C167.592,372.183,163.911,375.934,160,379.434z"/>
	<path id="XMLID_937_" style="fill:#943D4F;" d="M40,420V320h40c0-53.72,28.244-100.836,70.687-127.329
		c0-0.012-122.413,76.393-122.413,76.393C11.311,279.659,0,298.504,0,320v100c0,22.091,17.909,40,40,40h40v-37.5L40,420z"/>
	<path id="XMLID_938_" style="fill:#943D4F;" d="M120,425v6.714c11.651,4.119,20,15.225,20,28.286h60v-30L120,425z"/>
	<path id="XMLID_939_" style="fill:#943D4F;" d="M390,0l-40,10v30h80C430,17.909,412.092,0,390,0z"/>
	<path id="XMLID_940_" style="fill:#D9BBF2;" d="M430,40h-40v200c0,46.549-29.066,86.434-70,102.469v42.129
		C380.332,367.944,425.41,314.552,429.66,250c0.218-3.306,0.34-6.639,0.34-10V40z"/>
	<path id="XMLID_941_" style="fill:#D9BBF2;" d="M280,349.208l-87.455-17.491c-4.994,13.469-12.336,25.796-21.53,36.487L280,390
		V349.208z"/>
	<path id="XMLID_942_" style="fill:#943D4F;" d="M320,342.469c40.934-16.035,70-55.92,70-102.469h-33.101
		c-26.572-42.061-73.469-70-126.899-70c-10.274,0-20.306,1.036-30,3.003V290c0,14.67-2.637,28.723-7.455,41.716L280,349.208V460h60
		c0-13.061-8.349-24.167-20-28.286V342.469z M315,300h-30v-30h30V300z"/>
	<rect id="XMLID_945_" x="285" y="270" style="fill:#FF9C0F;" width="30" height="30"/>
	<path id="XMLID_946_" style="fill:#CA6033;" d="M120,431.714v-28.552c14.905-5.269,28.458-13.396,40-23.728
		c3.911-3.5,7.592-7.251,11.015-11.231c9.194-10.69,16.536-23.018,21.53-36.487C197.363,318.723,200,304.67,200,290V173.003
		c-17.784,3.61-34.42,10.373-49.313,19.668C108.244,219.164,80,266.28,80,320v140h60C140,446.939,131.651,435.833,120,431.714z
		 M170,335h-30v-30h30V335z M110,265h30v30h-30V265z"/>
	<rect id="XMLID_950_" x="140" y="305" style="fill:#FF8417;" width="30" height="30"/>
	<rect id="XMLID_951_" x="110" y="265" style="fill:#FF8417;" width="30" height="30"/>
</g>
<g>
</g>
<g>
</g>
<g>
</g>
<g>
</g>
<g>
</g>
<g>
</g>
<g>
</g>
<g>
</g>
<g>
</g>
<g>
</g>
<g>
</g>
<g>
</g>
<g>
</g>
<g>
</g>
<g>
</g>
</svg>
