<?xml version="1.0" encoding="iso-8859-1"?>
<!-- Generator: Adobe Illustrator 19.0.0, SVG Export Plug-In . SVG Version: 6.00 Build 0)  -->
<svg version="1.1" id="Capa_1" xmlns="http://www.w3.org/2000/svg" xmlns:xlink="http://www.w3.org/1999/xlink" x="0px" y="0px"
	 viewBox="0 0 460 460" style="enable-background:new 0 0 460 460;" xml:space="preserve">
<g id="XMLID_1116_">
	<path id="XMLID_1117_" style="fill:#5F196B;" d="M220,460c0-13.061-8.349-24.167-20-28.286V460H220z"/>
	<path id="XMLID_1118_" style="fill:#5F196B;" d="M160,379.434V427.5l40,2.5v-26.838c16.239-5.74,30.876-14.872,43.053-26.552
		l-67.846-13.569C170.654,368.968,165.561,374.456,160,379.434z"/>
	<path id="XMLID_1119_" style="fill:#384276;" d="M120,425v6.714c11.651,4.119,20,15.225,20,28.286h60v-30L120,425z"/>
	<path id="XMLID_1120_" style="fill:#384276;" d="M40,420V320h40c0-56.392,28.293-106.171,71.455-135.93
		c0-0.009-125.471,86.498-125.471,86.498C10.294,281.399,0,299.494,0,320v100c0,22.091,17.909,40,40,40h40v-37.5L40,420z"/>
	<path id="XMLID_1121_" style="fill:#384276;" d="M420,0l-40,10v30h80C460,17.909,442.092,0,420,0z"/>
	<path id="XMLID_1122_" style="fill:#384276;" d="M420,240h-30.67c-28.157-50.691-82.233-85-144.33-85
		c-15.601,0-30.695,2.167-45,6.213V290c0,12.581-1.94,24.707-5.53,36.102L310,349.208V460h60c0-13.061-8.349-24.167-20-28.286
		v-89.245C390.934,326.434,420,286.549,420,240z"/>
	<path id="XMLID_1123_" style="fill:#D9BBF2;" d="M420,40v200c0,46.549-29.066,86.434-70,102.469v42.129
		C413.422,367.091,460,308.989,460,240V40H420z"/>
	<path id="XMLID_1124_" style="fill:#D9BBF2;" d="M194.47,326.102c-4.254,13.5-10.833,25.968-19.263,36.94L310,390v-40.792
		L194.47,326.102z"/>
	<path id="XMLID_1125_" style="fill:#4B5E99;" d="M120,431.714v-28.552c14.905-5.269,28.458-13.396,40-23.728
		c5.561-4.978,10.654-10.466,15.207-16.393c8.43-10.972,15.009-23.439,19.263-36.94C198.06,314.707,200,302.581,200,290V161.213
		c-17.546,4.963-33.9,12.759-48.545,22.857C108.293,213.829,80,263.608,80,320v140h60C140,446.939,131.651,435.833,120,431.714z"/>
</g>
<g>
</g>
<g>
</g>
<g>
</g>
<g>
</g>
<g>
</g>
<g>
</g>
<g>
</g>
<g>
</g>
<g>
</g>
<g>
</g>
<g>
</g>
<g>
</g>
<g>
</g>
<g>
</g>
<g>
</g>
</svg>
