<?xml version="1.0" encoding="iso-8859-1"?>
<!-- Generator: Adobe Illustrator 19.0.0, SVG Export Plug-In . SVG Version: 6.00 Build 0)  -->
<svg version="1.1" id="Capa_1" xmlns="http://www.w3.org/2000/svg" xmlns:xlink="http://www.w3.org/1999/xlink" x="0px" y="0px"
	 viewBox="0 0 460 460" style="enable-background:new 0 0 460 460;" xml:space="preserve">
<g id="XMLID_1177_">
	<path id="XMLID_1178_" style="fill:#83B461;" d="M370,385h50c0-13.061-8.349-24.167-20-28.286v-92.047
		c-9.231,6.934-19.291,12.821-30,17.5V385z"/>
	<path id="XMLID_1179_" style="fill:#42915F;" d="M227.89,278.238c-2.509,15.057-9.219,28.685-18.89,39.648V385h30v-45.837
		c21.791-8.824,38.802-26.959,46.102-49.482L230,278.66L227.89,278.238z"/>
	<path id="XMLID_1180_" style="fill:#FFE9B8;" d="M459.991,114.66c0.001,0.114,0.009,0.226,0.009,0.34
		C460,115,460,114.66,459.991,114.66z"/>
	<path id="XMLID_1181_" style="fill:#FFE9B8;" d="M420,144.66c0,10.521-1.491,20.698-4.262,30.34
		c-10.465,36.417-39.273,65.148-75.738,75.499v41.158c10.436-2.118,20.474-5.327,30-9.49c10.709-4.679,20.769-10.566,30-17.5
		c36.432-27.366,60-70.933,60-120.007V115h-40V144.66z"/>
	<path id="XMLID_1182_" style="fill:#FFE9B8;" d="M310,253.868l-80-16l-1-0.2V265c0,4.512-0.392,8.93-1.11,13.238l2.11,0.422l80,16
		V253.868z"/>
	<path id="XMLID_1183_" style="fill:#83B461;" d="M420,75l-40,10v30h80c0-0.114-0.008-0.226-0.009-0.34
		C459.808,92.727,441.978,75,420,75z"/>
	<path id="XMLID_1184_" style="fill:#C5D762;" d="M227.89,278.238c0.718-4.308,1.11-8.727,1.11-13.238V140.36
		c-40.307,20.25-69.859,58.741-77.838,104.64c-1.412,8.123-2.162,16.473-2.162,25v115h30v-45.837
		c11.604-4.699,21.85-12.036,30-21.276C218.671,306.923,225.381,293.295,227.89,278.238z"/>
	<path id="XMLID_1185_" style="fill:#A4C662;" d="M340,250.499c36.465-10.351,65.273-39.082,75.738-75.499h-12.21
		c-26.586-30.625-65.79-50-109.528-50c-17.688,0-34.632,3.177-50.304,8.978c0.004-0.016-224.103,82.876-224.103,82.876
		C8.157,221.084,0,232.089,0,245h151.162c7.98-45.898,37.531-84.39,77.838-104.64v97.308l1,0.2l80,16V385h50
		c0-13.061-8.349-24.167-20-28.286V250.499z"/>
</g>
<g>
</g>
<g>
</g>
<g>
</g>
<g>
</g>
<g>
</g>
<g>
</g>
<g>
</g>
<g>
</g>
<g>
</g>
<g>
</g>
<g>
</g>
<g>
</g>
<g>
</g>
<g>
</g>
<g>
</g>
</svg>
