<?xml version="1.0" encoding="iso-8859-1"?>
<!-- Generator: Adobe Illustrator 19.0.0, SVG Export Plug-In . SVG Version: 6.00 Build 0)  -->
<svg version="1.1" id="Capa_1" xmlns="http://www.w3.org/2000/svg" xmlns:xlink="http://www.w3.org/1999/xlink" x="0px" y="0px"
	 viewBox="0 0 459.763 459.763" style="enable-background:new 0 0 459.763 459.763;" xml:space="preserve">
<g id="XMLID_522_">
	<path id="XMLID_523_" style="fill:#5E79BC;" d="M55,154.272c-30.327,0-55,24.673-55,55s24.673,55,55,55h54.535v-30H55
		c-13.785,0-25-11.215-25-25s11.215-25,25-25h45.585l18.096,27.178c6.055,9.093,19.89,16.536,30.854,16.638v-73.816H55z"/>
	<path id="XMLID_524_" style="fill:#5E79BC;" d="M159.535,154.272h-10c3.408,0,6.769,0.196,10.079,0.565L159.535,154.272z"/>
	<path id="XMLID_525_" style="fill:#384276;" d="M179.535,346.794v89.087h40v-83.959c42.681,0,78.421-29.71,87.671-69.576
		l-75.954,17.327C221.124,321.561,202.463,338.689,179.535,346.794z"/>
	<rect id="XMLID_526_" x="409.765" y="277.225" style="fill:#5E79BC;" width="30" height="29.977"/>
	<path id="XMLID_527_" style="fill:#5E79BC;" d="M334.765,245.289l-95.378,21.758c-0.651,11.6-3.5,22.61-8.135,32.627l75.954-17.327
		l27.773-6.336c-0.138-1.256-0.214-2.53-0.214-3.821V245.289z"/>
	<path id="XMLID_530_" style="fill:#4B5E99;" d="M231.252,299.673c4.635-10.017,7.483-21.027,8.135-32.627
		c0.095-1.696,0.148-3.404,0.148-5.124v-17.65c0-46.297-34.96-84.423-79.921-89.435c-3.309-0.369-6.671-0.565-10.079-0.565v157.65
		h-40v123.959h40v-83.959c10.52,0,20.616-1.811,30-5.128C202.463,338.689,221.124,321.561,231.252,299.673z"/>
	<rect id="XMLID_531_" x="347.072" y="55.333" style="fill:#4B5E99;" width="30" height="30"/>
	<path id="XMLID_532_" style="fill:#384276;" d="M369.755,277.262l0.006-39.957l4.584-1.046c13.066-2.98,25.42-18.471,25.42-31.872
		v-89.506h29.998v-41c0-27.5-22.5-50-50-50H257.177v31.452h119.9v30h-119.9v29.548h112.588v39.391h-10v50h-30v-50h-30v50h-30v-50
		h-110.23l0.079,0.565c44.961,5.011,79.921,43.137,79.921,89.435v17.65c0,1.72-0.053,3.428-0.148,5.124l95.378-21.758v26.9
		c0,1.292,0.076,2.565,0.214,3.821c1.918,17.476,16.82,31.191,34.771,31.191v-0.059l0.015,0.059h40v-29.977
		C409.765,277.225,369.765,277.225,369.755,277.262z"/>
	<path id="XMLID_533_" style="fill:#5E79BC;" d="M459.763,73.881h-30v41h-29.998v89.506c0,13.401-12.354,28.892-25.42,31.872
		l-4.584,1.046l-0.006,39.957c0.01-0.037,30-0.037,30-0.037l0.003-19.861c17.579-11.582,30.007-32.279,30.007-52.977
		c0,0,0-20.554,0-40.506h29.998v-30h-29.998v-7.095c-0.001,0-0.002-14.034-0.002-22.905h30V73.881z"/>
	<rect id="XMLID_534_" x="329.765" y="154.272" style="fill:#4B5E99;" width="30" height="50"/>
	<rect id="XMLID_535_" x="269.765" y="154.272" style="fill:#4B5E99;" width="30" height="50"/>
</g>
<g>
</g>
<g>
</g>
<g>
</g>
<g>
</g>
<g>
</g>
<g>
</g>
<g>
</g>
<g>
</g>
<g>
</g>
<g>
</g>
<g>
</g>
<g>
</g>
<g>
</g>
<g>
</g>
<g>
</g>
</svg>
