<?xml version="1.0" encoding="iso-8859-1"?>
<!-- Generator: Adobe Illustrator 19.0.0, SVG Export Plug-In . SVG Version: 6.00 Build 0)  -->
<svg version="1.1" id="Capa_1" xmlns="http://www.w3.org/2000/svg" xmlns:xlink="http://www.w3.org/1999/xlink" x="0px" y="0px"
	 viewBox="0 0 460 460" style="enable-background:new 0 0 460 460;" xml:space="preserve">
<g id="XMLID_898_">
	<path id="XMLID_899_" style="fill:#BF8DEA;" d="M342.147,74.999c-12.586,19.246-31.041,34.347-52.818,42.715
		c-1.711,16.247-6.666,31.524-14.202,45.18c50.52-8.522,92.457-42.295,112.381-87.896H342.147z"/>
	<polygon id="XMLID_900_" style="fill:#BF8DEA;" points="238.701,121.947 170,108.207 170,148.999 214.706,157.94 	"/>
	<path id="XMLID_901_" style="fill:#384276;" d="M460,44.999l-77.853-10c-10.14,0-19.393,3.781-26.443,10H170v63.208l68.701,13.74
		l-23.996,35.993L170,224.999c45.279,0,84.694-25.082,105.127-62.104c7.536-13.656,12.491-28.934,14.202-45.18
		c21.777-8.368,40.232-23.469,52.819-42.744C342.147,74.999,460,74.999,460,74.999V44.999z"/>
	<path id="XMLID_902_" style="fill:#D9BBF2;" d="M170,108.207l-80-16v-0.208c-23.748,0-43,19.252-43,43v163.404
		c0,13.117,5.88,24.854,15.14,32.741L90,132.999l80,16V108.207z"/>
	<path id="XMLID_903_" style="fill:#4B5E99;" d="M47,298.404V134.999c0-23.748,19.252-43,43-43v0.208l80,16V44.999H90
		c-49.706,0-90,40.294-90,90v151.368h0.085L0,286.404c0,49.706,40.294,90,90,90v-17.062h50.964l40.01-65.128
		c-20.769-8.76-65.253,25.174-90.974,47.189c-10.631,0-20.354-3.867-27.86-10.259C52.88,323.258,47,311.52,47,298.404z"/>
	<path id="XMLID_904_" style="fill:#384276;" d="M90,376.404c25.711,22.016,70.196,55.949,90.954,47.181l-39.99-64.242H90V376.404z"
		/>
</g>
<g>
</g>
<g>
</g>
<g>
</g>
<g>
</g>
<g>
</g>
<g>
</g>
<g>
</g>
<g>
</g>
<g>
</g>
<g>
</g>
<g>
</g>
<g>
</g>
<g>
</g>
<g>
</g>
<g>
</g>
</svg>
