<?xml version="1.0" encoding="iso-8859-1"?>
<!-- Generator: Adobe Illustrator 19.0.0, SVG Export Plug-In . SVG Version: 6.00 Build 0)  -->
<svg version="1.1" id="Capa_1" xmlns="http://www.w3.org/2000/svg" xmlns:xlink="http://www.w3.org/1999/xlink" x="0px" y="0px"
	 viewBox="0 0 460 460" style="enable-background:new 0 0 460 460;" xml:space="preserve">
<g id="XMLID_880_">
	<path id="XMLID_881_" style="fill:#FF8417;" d="M239,350.29v95.56h30V330.484C260.625,339.096,250.417,345.905,239,350.29z"/>
	<path id="XMLID_882_" style="fill:#384276;" d="M269,330.484v25.366c45.035,0,81.748-35.566,83.62-80.14
		c-21.027,7.278-45.062,15.597-63.948,22.135C284.676,310.24,277.869,321.366,269,330.484z"/>
	<path id="XMLID_883_" style="fill:#5E79BC;" d="M266.96,178.74l77.27-20.66l28.255-7.655l-206.435,55.308
		c2.087,7.817,2.521,15.684,1.534,23.238c-0.6,4.596-1.734,9.071-3.346,13.352l49.592-13.259
		C222.795,205.467,243.271,185.079,266.96,178.74z"/>
	<path id="XMLID_884_" style="fill:#5E79BC;" d="M409.225,255.266V355.85h30v-150C439.225,225.013,426.309,245.562,409.225,255.266z
		"/>
	<path id="XMLID_885_" style="fill:#D9BBF2;" d="M409.225,61.6v144.25c0,9.205-8.872,21.622-17.67,24.636l-12.337,4.27
		l-0.003,20.568c0.01-0.037,29.973-0.037,29.973-0.037c17.121-9.726,30.037-30.274,30.037-49.438V61.6H409.225z"/>
	<path id="XMLID_886_" style="fill:#D9BBF2;" d="M344.225,250.252l0.001-3.383L292.71,264.7v7.44c0,8.97-1.426,17.603-4.038,25.704
		c18.886-6.537,42.921-14.856,63.948-22.135c0.651-0.225,1.298-0.449,1.943-0.673C348.187,268.686,344.225,259.91,344.225,250.252z"
		/>
	<path id="XMLID_887_" style="fill:#384276;" d="M379.225,255.287c-0.01,0.037-0.007-20.531-0.007-20.531l12.337-4.27
		c8.798-3.014,17.67-15.432,17.67-24.636V61.6h-29.986l-0.012,86.999l-34.997,9.481v71.223l-0.004,17.565l-0.001,3.383
		c0,9.658,3.962,18.434,10.338,24.785c6.336,6.311,15.057,10.227,24.647,10.227v-0.059l0.015,0.059v70.586h30V255.287H379.225z"/>
	<rect id="XMLID_888_" x="179" y="325.381" style="fill:#FFB308;" width="30" height="120.469"/>
	<path id="XMLID_889_" style="fill:#4B5E99;" d="M269,330.484c8.869-9.119,15.676-20.245,19.672-32.64
		c2.612-8.101,4.038-16.734,4.038-25.704v-7.44l51.516-17.832l0.004-17.565V158.08l-77.27,20.66
		c-23.689,6.338-44.165,26.727-53.129,50.323c-2.697,7.099-4.356,14.486-4.74,21.872c-0.057,1.102-0.091,2.205-0.091,3.306v101.61
		c10.576,0,20.684-1.981,30-5.56C250.417,345.905,260.625,339.096,269,330.484z"/>
	<path id="XMLID_890_" style="fill:#4B5E99;" d="M1.305,254.325c7.899,22.797,28.476,38.132,51.564,40.101
		C29.781,292.453,9.204,277.12,1.305,254.325z"/>
	<path id="XMLID_891_" style="fill:#4B5E99;" d="M0,250.129c0,0,11.247-3.007,11.247-3.007L0,250.129z"/>
	<path id="XMLID_892_" style="fill:#4B5E99;" d="M159.361,252.351c1.93-3.181,3.564-6.538,4.878-10.029
		c1.612-4.281,2.746-8.756,3.346-13.352C166.495,237.315,163.656,245.269,159.361,252.351z"/>
	<path id="XMLID_893_" style="fill:#AA67E3;" d="M379.24,61.6h59.985V45.453c0-20.245-16.343-34.109-36.317-30.821
		c0,0-10.159,1.681-23.668,3.889V61.6z"/>
	<path id="XMLID_894_" style="fill:#FF8417;" d="M379.24,18.522c-2.11,0.356-4.319,0.724-6.576,1.092
		c-16.625,2.748-30.232,21.741-30.232,41.986h36.808V18.522z"/>
	<path id="XMLID_895_" style="fill:#384276;" d="M167.585,228.971c0.986-7.554,0.553-15.421-1.534-23.238
		c-0.001-0.003-28.991,7.747-28.991,7.747c2.07,7.75,1,15.83-3.01,22.77c-4.01,6.93-10.48,11.89-18.22,13.96l-50.12,13.4
		c-15.98,4.28-32.46-5.25-36.73-21.23l-17.733,4.742L0,250.13c0.382,1.428,0.828,2.82,1.305,4.195
		c7.899,22.795,28.477,38.128,51.564,40.101c6.736,0.575,13.684,0.02,20.591-1.825l50.12-13.4
		c15.562-4.162,28.037-14.083,35.781-26.849C163.656,245.269,166.495,237.315,167.585,228.971z"/>
	<path id="XMLID_896_" style="fill:#4B5E99;" d="M65.71,263.61l50.12-13.4c7.74-2.07,14.21-7.03,18.22-13.96
		c4.01-6.94,5.08-15.02,3.01-22.77l-108.08,28.9C33.25,258.36,49.73,267.89,65.71,263.61z"/>
	<polygon id="XMLID_897_" style="fill:#AA67E3;" points="439.225,61.6 439.225,132.344 460,126.716 460,61.6 	"/>
</g>
<g>
</g>
<g>
</g>
<g>
</g>
<g>
</g>
<g>
</g>
<g>
</g>
<g>
</g>
<g>
</g>
<g>
</g>
<g>
</g>
<g>
</g>
<g>
</g>
<g>
</g>
<g>
</g>
<g>
</g>
</svg>
