<?xml version="1.0" encoding="iso-8859-1"?>
<!-- Generator: Adobe Illustrator 19.0.0, SVG Export Plug-In . SVG Version: 6.00 Build 0)  -->
<svg version="1.1" id="Capa_1" xmlns="http://www.w3.org/2000/svg" xmlns:xlink="http://www.w3.org/1999/xlink" x="0px" y="0px"
	 viewBox="0 0 460 460" style="enable-background:new 0 0 460 460;" xml:space="preserve">
<g id="XMLID_2_">
	<path id="XMLID_4_" style="fill:#FFDA88;" d="M85,84.096h40v-40C102.94,44.096,85,62.036,85,84.096z"/>
	<rect id="XMLID_5_" x="125" y="44.096" style="fill:#FFCB00;" width="45" height="40"/>
	<path id="XMLID_6_" style="fill:#FF9C0F;" d="M125,44.096v-30c-38.66,0-70,31.34-70,70h30C85,62.036,102.94,44.096,125,44.096z"/>
	<rect id="XMLID_7_" x="125" y="14.096" style="fill:#FF8417;" width="45" height="30"/>
	<path id="XMLID_8_" style="fill:#FFB308;" d="M220,164.096H55c-13.785,0-25-11.215-25-25s11.215-25,25-25h115v-30H55
		c-30.327,0-55,24.673-55,55c0,26.162,18.366,48.138,42.878,53.686L220,238.812V164.096z"/>
	<path id="XMLID_9_" style="fill:#FFDA88;" d="M411.84,249.344l-11.843,3.56H430v-12.351
		C424.388,244.511,418.258,247.553,411.84,249.344z"/>
	<rect id="XMLID_10_" x="430" y="252.904" style="fill:#FFDA88;" width="30" height="70"/>
	<path id="XMLID_11_" style="fill:#FFCB00;" d="M280,315.678c-7.084,11.76-17.526,21.264-30,27.19v103.035h29.719v-30H280V315.678z"
		/>
	<path id="XMLID_12_" style="fill:#9541DC;" d="M288.815,292.393c-1.546,8.379-4.57,16.238-8.815,23.285v33.936
		c22.703,0,42.872-10.816,55.661-27.568C316.236,318.994,299.468,307.955,288.815,292.393z"/>
	<path id="XMLID_13_" style="fill:#FFCB00;" d="M430.893,94.199H430v69.896H220v30c23.274,0,43.882,11.368,56.609,28.844
		c0-0.036,123.387-0.036,123.387-0.036v30l11.843-3.56c6.417-1.791,12.547-4.833,18.16-8.791c17.552-12.381,30-33.812,30-54.649
		v-91.7C460,94.204,430.92,94.204,430.893,94.199z"/>
	<polygon id="XMLID_14_" style="fill:#FFDA88;" points="220,309.614 190,309.614 190,445.904 219.719,445.904 219.719,415.904 
		220,415.904 220,349.614 	"/>
	<rect id="XMLID_15_" x="279.719" y="415.904" style="fill:#FF8417;" width="30" height="30"/>
	<rect id="XMLID_16_" x="219.719" y="415.904" style="fill:#FF9C0F;" width="30" height="30"/>
	<path id="XMLID_17_" style="fill:#AA67E3;" d="M280,315.678c4.245-7.047,7.269-14.906,8.815-23.285
		c-7.696-11.242-12.205-24.837-12.205-39.489V222.94c-12.727-17.476-33.335-28.844-56.609-28.844v155.518
		c10.737,0,20.906-2.425,30-6.745C262.474,336.942,272.916,327.438,280,315.678z"/>
	<path id="XMLID_18_" style="fill:#FF8417;" d="M399.987,282.834c-16.481,0.047-29.968-13.44-29.986-29.93H276.61
		c0,14.652,4.509,28.248,12.205,39.489c10.653,15.562,27.421,26.601,46.846,29.653c3.568,0.561,7.223,0.858,10.948,0.858H400
		C400,322.904,400,282.881,399.987,282.834z"/>
	<rect id="XMLID_19_" x="276.61" y="222.904" style="fill:#FF9C0F;" width="93.39" height="30"/>
	<path id="XMLID_20_" style="fill:#FFB308;" d="M399.997,252.904v-30H370v29.966c0.02,16.523,13.506,30.011,29.987,30.011
		c0.013,0,0.013,40.023,0.013,40.023h30v-70H399.997z"/>
	<path id="XMLID_21_" style="fill:#9541DC;" d="M430,45.024v49.02l0.893,0.155C430.92,94.204,460,94.204,460,94.204v-19.18
		C460,58.524,446.5,45.024,430,45.024z"/>
	<polygon id="XMLID_22_" style="fill:#FF8417;" points="320.57,45.024 320.57,75.024 430,94.044 430,45.024 	"/>
</g>
<g>
</g>
<g>
</g>
<g>
</g>
<g>
</g>
<g>
</g>
<g>
</g>
<g>
</g>
<g>
</g>
<g>
</g>
<g>
</g>
<g>
</g>
<g>
</g>
<g>
</g>
<g>
</g>
<g>
</g>
</svg>
