<svg height="512" viewBox="0 0 58 42" width="512" xmlns="http://www.w3.org/2000/svg"><g id="012---Butterfly" fill="none"><path id="Shape" d="m22.74 30.58-4.5 9.9c-.1458497.3207825-.4497684.5411236-.8.58l-7.7.86c-.42752096.0351845-.82985884-.2062182-1-.6l-2.58-5.94c-.10001802-.2434614-.10001802-.5165386 0-.76l3.84-9.62z" fill="#894b9d"/><path id="Shape" d="m48 25 3.85 9.62c.100018.2434614.100018.5165386 0 .76l-2.55 5.94c-.1701412.3937818-.572479.6351845-1 .6l-7.7-.86c-.3502316-.0388764-.6541503-.2592175-.8-.58l-4.5-9.9z" fill="#894b9d"/><path id="Shape" d="m25 19c-5.25-10.49-4.86-9.94-5.32-10.15l-19.68000336-8.85.00000336 22.28c-.00110976.4299159.27268828.8124279.68.95l23.32 7.77z" fill="#955ba5"/><path id="Shape" d="m33 19c5.25-10.49 4.86-9.94 5.32-10.15l19.6800034-8.85-.0000034 22.28c.0011098.4299159-.2726883.8124279-.68.95l-23.32 7.77z" fill="#955ba5"/><path id="Shape" d="m34 16.48v17c-.0014028.304272-.1412626.5913526-.38.78l-4 3.2c-.3634448.2871976-.8765552.2871976-1.24 0l-4-3.2c-.2387374-.1886474-.3785972-.475728-.38-.78v-17c.0014028-.304272.1412626-.5913526.38-.78l4-3.2c.3634448-.2871976.8765552-.2871976 1.24 0l4 3.2c.2387374.1886474.3785972.475728.38.78z" fill="#3f5c6c"/><g fill="#35495e"><path id="Shape" d="m30 12.8v14.2c0 .5522847-.4477153 1-1 1s-1-.4477153-1-1v-14.2l.38-.3c.3634448-.2871976.8765552-.2871976 1.24 0z"/><path id="Shape" d="m30 31v6.2l-.38.3c-.3634448.2871976-.8765552.2871976-1.24 0l-.38-.3v-6.2c0-.5522847.4477153-1 1-1s1 .4477153 1 1z"/></g></g></svg>