<?xml version="1.0" encoding="iso-8859-1"?>
<!-- Generator: Adobe Illustrator 19.0.0, SVG Export Plug-In . SVG Version: 6.00 Build 0)  -->
<svg version="1.1" id="Capa_1" xmlns="http://www.w3.org/2000/svg" xmlns:xlink="http://www.w3.org/1999/xlink" x="0px" y="0px"
	 viewBox="0 0 460 460" style="enable-background:new 0 0 460 460;" xml:space="preserve">
<g id="XMLID_1099_">
	<rect id="XMLID_1100_" x="370" y="40" style="fill:#FF9C0F;" width="40" height="20"/>
	<path id="XMLID_1101_" style="fill:#CA6033;" d="M190,379.434V460h60c0-13.061-8.349-24.167-20-28.286v-28.552
		c13.886-4.909,26.598-12.299,37.605-21.641l-66.59-13.318C197.592,372.183,193.911,375.934,190,379.434z"/>
	<path id="XMLID_1102_" style="fill:#FF8417;" d="M194.521,175.936c0-0.012-163.786,91.673-163.786,91.673
		C12.413,277.871,0,297.481,0,320v110h30l10-110h70C110,258.098,144.093,204.166,194.521,175.936z"/>
	<path id="XMLID_1103_" style="fill:#FF8417;" d="M420,0h-25c-13.807,0-25,11.193-25,25v15h40v20c3.064,0,5,0,5,0h45V40
		C460,17.909,442.092,0,420,0z"/>
	<path id="XMLID_1104_" style="fill:#FFDA88;" d="M410,60v180c0,40.925-24.714,76.185-60,91.646v52.952
		C413.422,367.091,460,308.989,460,240V60h-45C415,60,413.064,60,410,60z"/>
	<path id="XMLID_1105_" style="fill:#FFDA88;" d="M225.641,322.138c-4.776,17.223-13.293,32.888-24.626,46.065L310,390v-50.991
		L225.641,322.138z"/>
	<path id="XMLID_1106_" style="fill:#FF9C0F;" d="M201.015,368.203c11.333-13.177,19.85-28.843,24.626-46.065
		C228.478,311.909,230,301.133,230,290V161.213c-12.493,3.534-24.38,8.509-35.479,14.723C144.093,204.166,110,258.098,110,320v140
		h60c0-13.061-8.349-24.167-20-28.286v-28.552c14.905-5.269,28.458-13.396,40-23.728
		C193.911,375.934,197.592,372.183,201.015,368.203z"/>
	<path id="XMLID_1107_" style="fill:#FF8417;" d="M350,331.646c35.286-15.461,60-50.72,60-91.646v-42.5l-19.336,4.834
		C360.888,173.061,320.055,155,275,155c-15.601,0-30.695,2.167-45,6.213V290c0,11.133-1.522,21.909-4.359,32.138L310,339.009V460h60
		c0-13.061-8.35-24.167-20-28.286V331.646z"/>
</g>
<g>
</g>
<g>
</g>
<g>
</g>
<g>
</g>
<g>
</g>
<g>
</g>
<g>
</g>
<g>
</g>
<g>
</g>
<g>
</g>
<g>
</g>
<g>
</g>
<g>
</g>
<g>
</g>
<g>
</g>
</svg>
