<?xml version="1.0" encoding="iso-8859-1"?>
<!-- Generator: Adobe Illustrator 19.0.0, SVG Export Plug-In . SVG Version: 6.00 Build 0)  -->
<svg version="1.1" id="Capa_1" xmlns="http://www.w3.org/2000/svg" xmlns:xlink="http://www.w3.org/1999/xlink" x="0px" y="0px"
	 viewBox="0 0 460 460" style="enable-background:new 0 0 460 460;" xml:space="preserve">
<g id="XMLID_827_">
	<path id="XMLID_828_" style="fill:#FFCB00;" d="M70,133.19v-40H30C30,115.25,47.94,133.19,70,133.19z"/>
	<path id="XMLID_829_" style="fill:#FFDA88;" d="M70,93.19C70,48.218,70,0,70,0H30v93.19H70z"/>
	<path id="XMLID_830_" style="fill:#FF8417;" d="M30,93.19H0c0,38.66,31.34,70,70,70v-30C47.94,133.19,30,115.25,30,93.19z"/>
	<rect id="XMLID_831_" style="fill:#FF9C0F;" width="30" height="93.19"/>
	<path id="XMLID_832_" style="fill:#5E79BC;" d="M235.813,188.192H125c-13.785,0-25-11.215-25-25S100,0,100,0H70v163.192
		c0,25.542,17.495,47.074,41.135,53.232l124.677,32.402V188.192z"/>
	<path id="XMLID_833_" style="fill:#384276;" d="M400,276.744V277h30v-12.351c-5.612,3.959-11.742,7-18.16,8.791L400,276.744z"/>
	<rect id="XMLID_834_" x="430" y="277" style="fill:#384276;" width="30" height="70"/>
	<path id="XMLID_835_" style="fill:#FF9C0F;" d="M295.812,339.774c-7.084,11.76-17.526,21.264-30,27.19V460h30V339.774z"/>
	<path id="XMLID_836_" style="fill:#5E79BC;" d="M304.639,316.425c-1.543,8.403-4.571,16.285-8.827,23.35v33.936
		c22.707,0,42.879-10.82,55.668-27.577C332.05,343.065,315.28,332.007,304.639,316.425z"/>
	<path id="XMLID_837_" style="fill:#4B5E99;" d="M430,188.192H235.813v30c23.31,0,43.945,11.404,56.667,28.925V247H400
		l-0.006,29.746c0.006-0.002,11.847-3.306,11.847-3.306c6.417-1.791,12.547-4.832,18.16-8.791c17.552-12.381,30-33.812,30-54.649
		v-91.7h-30V188.192z"/>
	<rect id="XMLID_838_" x="205.812" y="333.71" style="fill:#FF8417;" width="30" height="126.29"/>
	<path id="XMLID_839_" style="fill:#384276;" d="M295.812,339.774c4.256-7.065,7.284-14.947,8.827-23.35
		C296.97,305.196,292.48,291.624,292.48,277v-29.883c-12.722-17.521-33.357-28.925-56.667-28.925V373.71
		c10.738,0,20.906-2.425,30-6.745C278.286,361.038,288.729,351.534,295.812,339.774z"/>
	<path id="XMLID_840_" style="fill:#FFCB00;" d="M399.987,306.93c-16.481,0.047-29.968-13.44-29.986-29.93H292.48
		c0,14.624,4.49,28.196,12.159,39.425c10.641,15.582,27.411,26.641,46.842,29.708c3.584,0.566,7.256,0.867,10.999,0.867H400
		C400,347,400,306.977,399.987,306.93z"/>
	<rect id="XMLID_841_" x="292.48" y="247" style="fill:#FFDA88;" width="77.52" height="30"/>
	<path id="XMLID_842_" style="fill:#5E79BC;" d="M399.994,277.025c0-0.025,0-0.279,0-0.279L400,247h-30v29.966
		c0.02,16.524,13.506,30.011,29.987,30.011C400,306.977,400,347,400,347h30v-70C430,277,400,277,399.994,277.025z"/>
	<path id="XMLID_843_" style="fill:#FF8417;" d="M430.4,80.02c0,0-8.28,1.37-19.29,3.17v35.11H460v-13.16
		C460,88.64,446.68,77.34,430.4,80.02z"/>
	<path id="XMLID_844_" style="fill:#FFCB00;" d="M405.75,84.08c-13.55,2.24-24.64,17.72-24.64,34.22h30V83.19
		C409.39,83.48,407.59,83.78,405.75,84.08z"/>
</g>
<g>
</g>
<g>
</g>
<g>
</g>
<g>
</g>
<g>
</g>
<g>
</g>
<g>
</g>
<g>
</g>
<g>
</g>
<g>
</g>
<g>
</g>
<g>
</g>
<g>
</g>
<g>
</g>
<g>
</g>
</svg>
