<?xml version="1.0" encoding="iso-8859-1"?>
<!-- Generator: Adobe Illustrator 19.0.0, SVG Export Plug-In . SVG Version: 6.00 Build 0)  -->
<svg version="1.1" id="Capa_1" xmlns="http://www.w3.org/2000/svg" xmlns:xlink="http://www.w3.org/1999/xlink" x="0px" y="0px"
	 viewBox="0 0 460 460" style="enable-background:new 0 0 460 460;" xml:space="preserve">
<g id="XMLID_1291_">
	<path id="XMLID_1292_" style="fill:#FF8417;" d="M169.77,158.391H55c-30.327,0-55,24.673-55,55s24.673,55,55,55h77.439v-30H55
		c-13.785,0-25-11.215-25-25s11.215-25,25-25h114.773c0-0.045-0.003-0.09-0.003-0.135V158.391z"/>
	<path id="XMLID_1293_" style="fill:#CA6033;" d="M229.77,370.481V460h30v-83.959c43.527,0,79.282-33.224,83.319-75.693
		c-30.368,10.511-59.267,20.515-65.431,22.648C269.076,344.774,251.639,362.08,229.77,370.481z"/>
	<path id="XMLID_1294_" style="fill:#FF8417;" d="M460,30c0-16.5-13.5-30-30-30h-30l-80,10v30h139.995L460,30z"/>
	<path id="XMLID_1295_" style="fill:#CA6033;" d="M199.771,158.391c46.232,0,83.709,37.479,83.709,83.71v33.15l86.521-29.948
		l0.007-30.889c0.002,0,0.002-56.024,0.002-56.024S199.77,158.39,199.771,158.391z"/>
	<path id="XMLID_1296_" style="fill:#CA6033;" d="M429.995,269.416v65.022h30V220C459.995,239.163,447.079,259.712,429.995,269.416z
		"/>
	<path id="XMLID_1297_" style="fill:#FFDA88;" d="M459.995,40h-43.214v179.11c0,5.5-4.252,11.472-9.45,13.271l-7.339,2.54
		l-0.005,34.545c0.008-0.03,29.971-0.03,29.971-0.03c17.121-9.726,30.037-30.274,30.037-49.438V40z"/>
	<path id="XMLID_1298_" style="fill:#FFDA88;" d="M369.995,269.403l0.006-24.1l-86.521,29.948v17.08
		c0,10.829-2.079,21.166-5.822,30.665c6.164-2.133,35.063-12.136,65.431-22.648c11.481-3.974,23.162-8.017,33.904-11.736
		C372.632,283.397,369.995,276.694,369.995,269.403z"/>
	<path id="XMLID_1299_" style="fill:#FF8417;" d="M399.995,269.438c-0.008,0.03-0.003-34.516-0.003-34.516l7.339-2.54
		c5.197-1.799,9.45-7.771,9.45-13.271v-60.719c-0.001-0.001-46.771-0.001-46.771-0.001v56.024c-0.002,0-0.009,30.889-0.009,30.889
		l-0.006,24.1c0,7.291,2.636,13.994,6.998,19.209c5.512,6.59,13.782,10.802,22.989,10.802v-0.05l0.013,0.05v35.023h30v-65H399.995z"
		/>
	<path id="XMLID_1300_" style="fill:#FF9C0F;" d="M277.658,322.996c3.743-9.499,5.822-19.836,5.822-30.665v-50.23
		c0-46.231-37.477-83.709-83.709-83.71c-0.001-0.001,41.854-0.001,41.854-0.001v-0.134H169.77v30c0,0.045,0.003,0.09,0.003,0.135
		c0.074,16.438,13.542,29.865,29.997,29.865v127.785h-30V460h30v-83.959c10.576,0,20.684-1.981,30-5.56
		C251.639,362.08,269.076,344.774,277.658,322.996z"/>
</g>
<g>
</g>
<g>
</g>
<g>
</g>
<g>
</g>
<g>
</g>
<g>
</g>
<g>
</g>
<g>
</g>
<g>
</g>
<g>
</g>
<g>
</g>
<g>
</g>
<g>
</g>
<g>
</g>
<g>
</g>
</svg>
