<?xml version="1.0" encoding="iso-8859-1"?>
<!-- Generator: Adobe Illustrator 19.0.0, SVG Export Plug-In . SVG Version: 6.00 Build 0)  -->
<svg version="1.1" id="Capa_1" xmlns="http://www.w3.org/2000/svg" xmlns:xlink="http://www.w3.org/1999/xlink" x="0px" y="0px"
	 viewBox="0 0 460 460" style="enable-background:new 0 0 460 460;" xml:space="preserve">
<g id="XMLID_467_">
	<path id="XMLID_468_" style="fill:#5F196B;" d="M415.5,292.105v45.637h29.787v-95.047
		C445.287,261.855,432.536,282.399,415.5,292.105z"/>
	<path id="XMLID_469_" style="fill:#801C80;" d="M219.892,269.878c0-8.324,1.596-16.271,4.469-23.575h-46.219L110.95,394.508
		C102.918,408.389,84.468,420,70.275,420H14.5v40h55.775c28.592,0,61.274-20.095,76.023-46.742l0.386-0.696l30.085-66.32
		l81.386,17.994v-35.474C235.615,318.724,219.892,296.144,219.892,269.878z"/>
	<polygon id="XMLID_470_" style="fill:#D9BBF2;" points="415.372,157.743 415.415,187.742 445.287,187.742 445.287,157.743 	"/>
	<polygon id="XMLID_472_" style="fill:#D9BBF2;" points="415.286,97.742 415.329,127.742 445.287,127.742 445.287,97.742 	"/>
	<path id="XMLID_473_" style="fill:#D9BBF2;" d="M415.458,217.743l0.041,74.362c17.037-9.706,29.787-30.25,29.787-49.41v-24.952
		H415.458z"/>
	<path id="XMLID_474_" style="fill:#D9BBF2;" d="M385.5,276.279l-0.015-0.059v0.059c-9.962,0-18.98-4.23-25.367-10.977
		l-63.711,21.857c4.386,9.227,6.853,19.524,6.853,30.372v13.96l82.24-28.213V276.279z"/>
	<path id="XMLID_475_" style="fill:#A11F95;" d="M415.286,97.742h-30v77.384h-29.799l-45.88-25.661
		c-38.402-21.478-84.693-6.267-102.87,33.803l-28.594,63.034h53.889c28.327,0,52.922,16.764,64.375,40.856l63.711-21.857
		c6.387,6.747,15.405,10.977,25.367,10.977v-0.059l0.015,0.059v61.463h30L415.286,97.742z"/>
	<path id="XMLID_476_" style="fill:#5F196B;" d="M303.26,317.531c0-10.848-2.467-21.146-6.853-30.372
		c-11.454-24.093-36.048-40.856-64.375-40.856h-7.67c-2.874,7.304-4.469,15.251-4.469,23.575c0,26.266,15.723,48.846,38.263,58.883
		V460h45l0.105-128.509V317.531z"/>
	<path id="XMLID_477_" style="fill:#FF8417;" d="M445.287,29.909C445.287,13.384,431.903,0,415.393,0S385.5,13.384,385.5,29.894
		v4.32l-49,3.528v30h30l18.786,30H445.5V29.894L445.287,29.909z"/>
	<rect id="XMLID_478_" x="415.286" y="127.742" style="fill:#FF8417;" width="30" height="30"/>
	<rect id="XMLID_479_" x="415.286" y="187.742" style="fill:#FF8417;" width="30" height="30"/>
</g>
<g>
</g>
<g>
</g>
<g>
</g>
<g>
</g>
<g>
</g>
<g>
</g>
<g>
</g>
<g>
</g>
<g>
</g>
<g>
</g>
<g>
</g>
<g>
</g>
<g>
</g>
<g>
</g>
<g>
</g>
</svg>
