<?xml version="1.0" encoding="iso-8859-1"?>
<!-- Generator: Adobe Illustrator 19.0.0, SVG Export Plug-In . SVG Version: 6.00 Build 0)  -->
<svg version="1.1" id="Capa_1" xmlns="http://www.w3.org/2000/svg" xmlns:xlink="http://www.w3.org/1999/xlink" x="0px" y="0px"
	 viewBox="0 0 460 460" style="enable-background:new 0 0 460 460;" xml:space="preserve">
<g id="XMLID_1223_">
	<path id="XMLID_1224_" style="fill:#384276;" d="M30,133.34c0-13.785,11.215-25,25-25h77.439v-30H55c-30.327,0-55,24.673-55,55
		s24.673,55.051,55,55.051V158.34C41.215,158.34,30,147.125,30,133.34z"/>
	<rect id="XMLID_1225_" x="85" y="158.34" style="fill:#384276;" width="30" height="30.051"/>
	<path id="XMLID_1226_" style="fill:#D9BBF2;" d="M429.995,251.357v65.081h30V190.905
		C459.995,212.403,447.453,236.483,429.995,251.357z"/>
	<path id="XMLID_1227_" style="fill:#5E79BC;" d="M270.355,326.147c-10.352,20.76-28.486,36.955-50.585,44.766V460h35v-82.459
		c47.951-0.001,87.137-37.501,89.845-84.773L270.355,326.147z"/>
	<path id="XMLID_1228_" style="fill:#FFE9B8;" d="M369.995,251.403v-2.933l-90.281,40.583c-0.438,13.297-3.759,25.862-9.359,37.093
		l112.146-50.408C374.943,270.276,369.995,261.392,369.995,251.403z"/>
	<path id="XMLID_1229_" style="fill:#FFE9B8;" d="M429.995,100v90.905c0,15.726-13.561,36.69-27.903,43.138l-2.102,0.945
		l-0.002,16.479c0.008-0.03,29.91-0.03,29.91-0.03c0.032-0.028,0.066-0.053,0.098-0.081c17.458-14.874,30-38.953,30-60.452V100
		H429.995z"/>
	<path id="XMLID_1230_" style="fill:#384276;" d="M270.355,326.147c5.601-11.232,8.922-23.797,9.359-37.093
		c0.033-1.001,0.056-2.004,0.056-3.012v-37.785c0-46.325-35.001-84.395-80-89.361v-0.555h-54.719c0,0,0,13.481,0,29.958v0.093
		c0.05,16.452,12.668,34.619,28.087,40.406l16.632,6.243v111.001h-35V460h35v-83.959c10.52,0,20.616-1.811,30-5.128
		C241.869,363.101,260.003,346.906,270.355,326.147z"/>
	<path id="XMLID_1231_" style="fill:#5E79BC;" d="M460,83.75C460,59.688,440.313,40,416.25,40h-80.16v36.667L399.995,100v58.34
		H199.77v0.555c44.999,4.965,80,43.036,80,89.361v37.785c0,1.009-0.023,2.012-0.056,3.012l90.281-40.583v2.933
		c0,9.989,4.948,18.873,12.506,24.336c4.931,3.564,10.97,5.675,17.481,5.675v-0.05l0.013,0.05v35.023h30v-65h-30
		c-0.008,0.03-0.006-16.45-0.006-16.45l2.102-0.945c14.343-6.448,27.903-27.412,27.903-43.138V100h30v-5.139L460,83.75z
		 M332.064,218.391c-22.091,0-40-17.909-40-40v-20h80v20C372.064,200.482,354.155,218.391,332.064,218.391z"/>
	<rect id="XMLID_1234_" x="336.09" style="fill:#D9BBF2;" width="20" height="40"/>
	<rect id="XMLID_1235_" x="356.09" style="fill:#A11F95;" width="60.16" height="40"/>
	<path id="XMLID_1236_" style="fill:#384276;" d="M372.064,158.391h-80v20c0,22.091,17.909,40,40,40s40-17.909,40-40V158.391z"/>
	<path id="XMLID_1237_" style="fill:#5E79BC;" d="M145.051,158.34H115v30.051h30.051v-0.093
		C145.051,171.821,145.051,158.34,145.051,158.34z"/>
	<rect id="XMLID_1238_" x="55" y="158.34" style="fill:#5E79BC;" width="30" height="30.051"/>
</g>
<g>
</g>
<g>
</g>
<g>
</g>
<g>
</g>
<g>
</g>
<g>
</g>
<g>
</g>
<g>
</g>
<g>
</g>
<g>
</g>
<g>
</g>
<g>
</g>
<g>
</g>
<g>
</g>
<g>
</g>
</svg>
