<?xml version="1.0" encoding="iso-8859-1"?>
<!-- Generator: Adobe Illustrator 19.0.0, SVG Export Plug-In . SVG Version: 6.00 Build 0)  -->
<svg version="1.1" id="Capa_1" xmlns="http://www.w3.org/2000/svg" xmlns:xlink="http://www.w3.org/1999/xlink" x="0px" y="0px"
	 viewBox="0 0 460 460" style="enable-background:new 0 0 460 460;" xml:space="preserve">
<g id="XMLID_845_">
	<path id="XMLID_846_" style="fill:#FF8417;" d="M399.995,268.124v59.978h30V214.311
		C429.995,235.074,417.559,256.136,399.995,268.124z"/>
	<path id="XMLID_847_" style="fill:#FF9C0F;" d="M200,354.701v89.609h30v-83.959c40.172,0,73.719-28.303,81.828-66.052
		l-65.718,16.678C237.111,330.95,220.519,346.749,200,354.701z"/>
	<polygon id="XMLID_848_" style="fill:#943D4F;" points="399.995,64.117 399.995,89.311 430,89.311 430,54.136 	"/>
	<path id="XMLID_849_" style="fill:#FFE9B8;" d="M330.012,258.734l-76.57,19.432c-0.209,11.679-2.808,22.769-7.332,32.812
		l65.718-16.678l30.213-7.667C334.765,279.499,330.187,269.628,330.012,258.734z"/>
	<path id="XMLID_850_" style="fill:#FFE9B8;" d="M399.994,119.311l0.001,95c0,13.705-12.56,29.85-25.844,33.221l-4.164,1.057
		l-0.004,19.577c0.012-0.041,30.01-0.041,30.01-0.041c17.565-11.989,30.001-33.05,30.001-53.814v-95H399.994z"/>
	<path id="XMLID_851_" style="fill:#943D4F;" d="M369.995,268.124c-0.012,0.041-0.008-19.536-0.008-19.536l4.164-1.057
		c13.284-3.371,25.844-19.516,25.844-33.221l-0.001-95H360l-16.52,53.391v30h-30v-30h30l-60-0.005v56.873h-30v47.072
		c0,0.511-0.029,1.015-0.039,1.524l76.57-19.432c0.176,10.895,4.754,20.765,12.029,27.898c7.222,7.082,17.091,11.469,27.938,11.469
		v-0.067l0.017,0.067v30h30v-59.977H369.995z"/>
	<path id="XMLID_852_" style="fill:#FFCB00;" d="M246.109,310.978c4.524-10.042,7.123-21.132,7.332-32.812
		c0.009-0.509,0.039-1.013,0.039-1.524v-103.95h-30v83.747h-30v-83.747H55c-13.785,0-25-11.215-25-25s11.215-25,25-25h84.77v-30H55
		c-30.327,0-55,24.673-55,55s24.673,55.01,55,55.01h61.033c0,29.556,24.182,53.737,53.737,53.737v73.913h-30v113.959h30v-83.959
		c10.663,0,20.85-2.015,30.23-5.65C220.519,346.749,237.111,330.95,246.109,310.978z"/>
	<rect id="XMLID_853_" x="313.48" y="172.701" style="fill:#FF8417;" width="30" height="30"/>
	<rect id="XMLID_854_" x="253.48" y="172.692" style="fill:#FF8417;" width="30" height="56.878"/>
	<rect id="XMLID_855_" x="193.48" y="172.692" style="fill:#FF9C0F;" width="30" height="83.747"/>
	<path id="XMLID_856_" style="fill:#FFCB00;" d="M399.995,32.555v31.562L430,54.136l30-9.98l-9.469-28.467L347.972,49.806v-19.97
		h-30v29.95l-2.469,0.821l0.051,0.154c0.798-0.337,1.603-0.65,2.418-0.921L399.995,32.555z"/>
	<path id="XMLID_857_" style="fill:#FF8417;" d="M399.995,119.311V32.555l-82.023,27.286c-0.815,0.271-1.62,0.584-2.418,0.921
		c-14.535,6.141-26.049,22.907-26.049,38.549v20H399.995z"/>
	<rect id="XMLID_858_" x="399.995" y="89.311" style="fill:#FFCB00;" width="30.005" height="30"/>
</g>
<g>
</g>
<g>
</g>
<g>
</g>
<g>
</g>
<g>
</g>
<g>
</g>
<g>
</g>
<g>
</g>
<g>
</g>
<g>
</g>
<g>
</g>
<g>
</g>
<g>
</g>
<g>
</g>
<g>
</g>
</svg>
