<?xml version="1.0" encoding="iso-8859-1"?>
<!-- Generator: Adobe Illustrator 19.0.0, SVG Export Plug-In . SVG Version: 6.00 Build 0)  -->
<svg version="1.1" id="Capa_1" xmlns="http://www.w3.org/2000/svg" xmlns:xlink="http://www.w3.org/1999/xlink" x="0px" y="0px"
	 viewBox="0 0 460 460" style="enable-background:new 0 0 460 460;" xml:space="preserve">
<g id="XMLID_1253_">
	<path id="XMLID_1254_" style="fill:#006E5E;" d="M239.095,192.89l0.383-0.102l-0.411-0.002l-119.489,31.947
		c-19.121,5.113-36.983,17.479-50.297,34.819c-13.313,17.341-20.646,37.792-20.646,57.584V460h35V317.137
		c0-25.24,20.6-52.072,44.984-58.591l57.348-15.333C194.93,219.617,215.406,199.228,239.095,192.89z"/>
	<path id="XMLID_1255_" style="fill:#83B461;" d="M260.807,311.994c-7.77,24.101-26.165,43.416-49.672,52.446V460h40v-90
		c43.293,0,78.906-32.866,83.26-75.007c-2.826-1.579-5.417-3.535-7.696-5.806C305.221,296.621,280.278,305.255,260.807,311.994z"/>
	<path id="XMLID_1256_" style="fill:#42915F;" d="M381.36,269.416v85.022h30V220C411.36,239.163,398.444,259.712,381.36,269.416z"/>
	<path id="XMLID_1257_" style="fill:#DFEB9B;" d="M381.36,162.749V220c0,9.205-8.872,21.622-17.67,24.636l-12.337,4.27
		l-0.003,20.568c0.01-0.037,29.973-0.037,29.973-0.037c17.121-9.726,30.037-30.274,30.037-49.438v-57.251H381.36z"/>
	<path id="XMLID_1258_" style="fill:#DFEB9B;" d="M264.845,286.29c0,8.97-1.426,17.603-4.038,25.704
		c19.471-6.74,44.414-15.373,65.891-22.807c-6.376-6.351-10.338-15.127-10.338-24.785l0.001-3.383l-51.516,17.832V286.29z"/>
	<path id="XMLID_1259_" style="fill:#42915F;" d="M260.807,311.994c2.612-8.101,4.038-16.734,4.038-25.704v-7.44l51.516-17.832
		l0.004-17.565V172.23l-76.887,20.558l-0.383,0.102c-23.689,6.338-44.165,26.727-53.129,50.323
		c-2.697,7.099-4.356,14.486-4.74,21.872l-0.091,60.956h-40V460h40v-90c10.576,0,20.684-1.981,30-5.56
		C234.642,355.41,253.037,336.095,260.807,311.994z"/>
	<path id="XMLID_1260_" style="fill:#006E5E;" d="M411.365,37.5c0-20.625-16.875-37.5-37.5-37.5c0,0-10.014,0-22.252,0
		S329.36,13.5,329.36,30l20,6.25v10.525c0,7.414,4.044,13.87,10.037,17.325l-8.037,98.65l-34.995,9.481v71.223l-0.004,17.565
		l-0.001,3.383c0,9.658,3.962,18.434,10.338,24.785c2.279,2.271,4.87,4.226,7.696,5.806c5.03,2.811,10.81,4.421,16.951,4.421v-0.059
		l0.015,0.059v55.023h30v-85h-30c-0.01,0.037-0.007-20.531-0.007-20.531l12.337-4.27c8.798-3.014,17.67-15.432,17.67-24.636v-57.251
		h30c0.005,0,0.005-122.749,0.005-122.749C411.359,40,411.365,37.5,411.365,37.5z"/>
</g>
<g>
</g>
<g>
</g>
<g>
</g>
<g>
</g>
<g>
</g>
<g>
</g>
<g>
</g>
<g>
</g>
<g>
</g>
<g>
</g>
<g>
</g>
<g>
</g>
<g>
</g>
<g>
</g>
<g>
</g>
</svg>
