<svg height="512" viewBox="0 0 58 56" width="512" xmlns="http://www.w3.org/2000/svg"><g id="029---Flower" fill="none"><path id="Shape" d="m44.29 15.67c-3.5941178 1.3173547-6.8134837 3.4899119-9.38 6.33 1.90806-3.3250508 2.9692144-7.0682815 3.09-10.9 0-8-9-11-9-11s-9 3-9 11c.1207856 3.8317185 1.18194 7.5749492 3.09 10.9-2.5709888-2.8255314-5.7899783-4.9841075-9.38-6.29-7.61-2.51-13.24 5.12-13.24 5.12s.07 9.49 7.68 12c3.6789697 1.0625262 7.5623574 1.2067368 11.31.42-3.4998921 1.5660463-6.560065 3.9702226-8.91 7-4.7 6.47.82 14.19.82 14.19s9 2.86 13.74-3.61c2.1680945-3.2015848 3.5049686-6.8925944 3.89-10.74.3963409 3.8231692 1.7327388 7.4888158 3.89 10.67 4.7 6.47 13.74 3.61 13.74 3.61s5.52-7.72.82-14.19c-2.3447172-3.0227227-5.3933385-5.4259151-8.88-7 3.7375556.7870705 7.6113238.6428345 11.28-.42 7.61-2.47 7.68-12 7.68-12s-5.63-7.56-13.24-5.09z" fill="#f0c419"/><path id="Shape" d="m38 11.1c0 6.27-3.64 12.8-7.66 17.52-.6432494-.5819702-1.5883201-.6829393-2.34-.25-1.4141132-2.2859388-3.0594242-4.4204868-4.91-6.37.17 0-3.09-4.81-3.09-10.9 0-8 9-11 9-11s9 3 9 11z" fill="#f29c1f"/><path id="Shape" d="m29 29.1c-.5522847 0-1-.4477153-1-1v-12c0-.5522847.4477153-1 1-1s1 .4477153 1 1v12c0 .5522847-.4477153 1-1 1z" fill="#e57e25"/><path id="Shape" d="m27 30.52c-2.606918.6260559-5.1408317 1.5243216-7.56 2.68-3.7542862.7811755-7.6419965.6404904-11.33-.41-7.61-2.47-7.68-12-7.68-12s5.67-7.59 13.28-5.12c6 1.94 11 7.38 14.29 12.7-.7680355.4204954-1.1732465 1.291699-1 2.15z" fill="#f3d55b"/><path id="Shape" d="m27.1 30.48c-.23 0 .64.27-11.72-3.76-.5045975-.1858221-.7719067-.737413-.605095-1.24861.1668116-.5111969.7080145-.7989576 1.225095-.65139l11.41 3.71c.4662858.1532566.7524169.6222666.6753559 1.1070053s-.4945313.8418941-.9853559.8429947z" fill="#e57e25"/><path id="Shape" d="m29 40.09c-.3963409 3.8231692-1.7327388 7.4888158-3.89 10.67-4.7 6.47-13.74 3.61-13.74 3.61s-5.52-7.72-.82-14.19c3.66-5.04 10.45-8.18 16.45-9.66.1816906.8471426.8881794 1.480964 1.75 1.57-.193247 2.6681428-.1094662 5.3491294.25 8z" fill="#f0c419"/><path id="Shape" d="m20.77 42.43c-.3697971-.0136567-.7018225-.2304117-.863111-.563462-.1612885-.3330502-.1254701-.7279434.093111-1.026538l7-9.71c.2250773-.2786672.5817245-.4160889.935596-.3604998s.6512058.2957437.78.63c.1287942.3342562.0694813.7118326-.155596.9904998l-7 9.63c-.184645.2527839-.4770089.404517-.79.41z" fill="#e57e25"/><path id="Shape" d="m46.63 54.37s-9 2.86-13.74-3.61c-3.7-5.09-4.57-12.49-4.1-18.67.8501302.0735967 1.6533227-.4002868 2-1.18 2.4857106 1.0251339 5.0689064 1.7957371 7.71 2.3 3.4956443 1.573071 6.5542453 3.9760123 8.91 7 4.74 6.44-.78 14.16-.78 14.16z" fill="#f3d55b"/><path id="Shape" d="m37.23 42.43c-.3200539.0008303-.6211686-.1515858-.81-.41l-7.06-9.71c-.2107867-.2929578-.2492705-.6761153-.100955-1.0051408.1483155-.3290256.4608978-.5539323.82-.59.3591022-.0360678.7101683.122183.920955.4151408l7 9.71c.2185811.2985946.2543995.6934878.093111 1.026538-.1612885.3330503-.4933139.5498053-.863111.563462z" fill="#e57e25"/><path id="Shape" d="m57.53 20.83s-.07 9.49-7.68 12c-6 2-13.24.51-19-1.88.3473635-.7891534.1498791-1.7120907-.49-2.29 1.7415219-2.0577295 3.2662496-4.2895288 4.55-6.66 2.5709888-2.8255314 5.7899783-4.9841075 9.38-6.29 7.61-2.51 13.24 5.12 13.24 5.12z" fill="#f0c419"/><path id="Shape" d="m30.9 30.48c-.4908246-.0011006-.9082949-.358256-.9853559-.8429947s.2090701-.9537487.6753559-1.1070053l11.41-3.71c.5170805-.1475676 1.0582834.1401931 1.225095.65139.1668117.511197-.1004975 1.0627879-.605095 1.24861-12.37 4.03-11.48 3.76-11.72 3.76z" fill="#e57e25"/><path id="Shape" d="m31 30.1c.0009952.9708446-.6953759 1.8021888-1.6513562 1.9714278-.9559804.1692391-1.8954332-.3725121-2.2277939-1.2846944-.3323606-.9121824.0383739-1.9313103.8791501-2.4167334.618485-.357083 1.3804444-.3572786 1.9991126-.0005132.6186683.3567653 1.0001553 1.0163484 1.0008874 1.7305132z" fill="#d25627"/></g></svg>