<svg height="512" viewBox="0 0 58 58" width="512" xmlns="http://www.w3.org/2000/svg"><g id="005---Frog" fill="none"><path id="Shape" d="m57 45h-56l1.6-4h7.4c4-8 .39-.29 19-41l19 41h7.4z" fill="#26b99a"/><path id="Shape" d="m13 35-3 6-5-6z" fill="#33907c"/><path id="Shape" d="m53 35-5 6-3-6z" fill="#33907c"/><path id="Shape" d="m55.4 41h-7.4l5-6z" fill="#14a085"/><path id="Shape" d="m10 41h-7.4l2.4-6z" fill="#14a085"/><path id="Shape" d="m29 0-13.96 30.55-6.04-7.55z" fill="#14a085"/><path id="Shape" d="m15.82 15.16-6.82 7.84-1-20z" fill="#33907c"/><path id="Shape" d="m49 23-6.04 7.55-13.96-30.55z" fill="#14a085"/><path id="Shape" d="m50 3-1 20-6.82-7.84z" fill="#33907c"/><path id="Shape" d="m13 45-3 10-9-10z" fill="#14a085"/><path id="Shape" d="m10 55-10 3 5.4-8.11z" fill="#33907c"/><path id="Shape" d="m57 45-9 10-3-10z" fill="#14a085"/><g fill="#33907c"><path id="Shape" d="m58 58-10-3 4.6-5.11z"/><path id="Shape" d="m55.77 41.93c-.33.07 1.38.07-24.77.07-.5522847 0-1-.4477153-1-1s.4477153-1 1-1h24z"/><path id="Shape" d="m28 41c0 .5522847-.4477153 1-1 1-26.15 0-24.44 0-24.77-.07l.77-1.93h24c.5522847 0 1 .4477153 1 1z"/></g></g></svg>