<?xml version="1.0" encoding="iso-8859-1"?>
<!-- Generator: Adobe Illustrator 19.0.0, SVG Export Plug-In . SVG Version: 6.00 Build 0)  -->
<svg version="1.1" id="Capa_1" xmlns="http://www.w3.org/2000/svg" xmlns:xlink="http://www.w3.org/1999/xlink" x="0px" y="0px"
	 viewBox="0 0 463 463" style="enable-background:new 0 0 463 463;" xml:space="preserve">
<g id="XMLID_802_">
	<path id="XMLID_803_" style="fill:#C5D762;" d="M431.383,287.478v64.866h30V234.506
		C461.383,255.201,448.957,275.895,431.383,287.478z"/>
	<path id="XMLID_804_" style="fill:#DFEB9B;" d="M241.153,357.244c-8.44,8.412-18.643,15.048-30,19.334V463h30V357.244z"/>
	<path id="XMLID_805_" style="fill:#5E79BC;" d="M241.153,357.244v24.797c0.095,0,0.188-0.007,0.282-0.007
		c40.357-0.132,74.068-28.39,82.607-66.197l-64.79,14.78C254.939,340.633,248.765,349.657,241.153,357.244z"/>
	<path id="XMLID_806_" style="fill:#DFEB9B;" d="M371.383,274.267l-105.261,24.012c-0.165,11.473-2.59,22.396-6.87,32.338
		l64.79-14.78l52.372-11.947c-3.174-4.759-5.031-10.462-5.031-16.58V274.267z"/>
	<rect id="XMLID_807_" x="151.153" y="353.031" style="fill:#C5D762;" width="30" height="109.969"/>
	<path id="XMLID_808_" style="fill:#4B5E99;" d="M259.251,330.617c4.28-9.942,6.706-20.865,6.87-32.338
		c0.006-0.414,0.031-0.823,0.031-1.238v-53.308h-85v138.308c0.095,0,0.188-0.007,0.282-0.007
		c10.461-0.034,20.471-1.966,29.718-5.456c11.357-4.286,21.56-10.922,30-19.334C248.765,349.657,254.939,340.633,259.251,330.617z"
		/>
	<path id="XMLID_809_" style="fill:#A4C662;" d="M431.383,287.344h-30c-0.008,0.029-0.005-19.92-0.005-19.92l4.585-1.046
		c13.066-2.98,25.42-18.471,25.42-31.872V154h-45v30.392c0,32.638-26.704,59.342-59.342,59.342h-60.888v53.308
		c0,0.415-0.025,0.824-0.031,1.238l105.261-24.012v13.043c0,6.118,1.857,11.821,5.031,16.58
		c5.388,8.079,14.577,13.431,24.956,13.431v-0.05l0.013,0.05v35.023h30V287.344z"/>
	<path id="XMLID_810_" style="fill:#DFEB9B;" d="M438.119,112.324c-14.383,14.383-32.91,22.084-51.737,23.128V154h45v80.506
		c0,13.401-12.354,28.892-25.42,31.872l-4.585,1.046l-0.003,19.949c0.008-0.029,30.008-0.029,30.008-0.029v0.134
		c17.575-11.583,30-32.277,30-52.972V56.163C461.382,76.489,453.628,96.815,438.119,112.324z"/>
	<path id="XMLID_811_" style="fill:#C5D762;" d="M438.119,112.324c15.509-15.508,23.263-35.835,23.263-56.161
		c0-20.327-7.754-40.654-23.263-56.163l-79.521,79.521L304.773,97.43V154h81.61v-18.548
		C405.21,134.408,423.737,126.707,438.119,112.324z"/>
	<path id="XMLID_812_" style="fill:#5E79BC;" d="M327.041,243.733c32.638,0,59.342-26.704,59.342-59.342h-254.18
		c0,0-75.585,0-75.585,0c-13.785,0-25-11.215-25-25s11.215-25,25-25h34.77v-30h-34.77c-30.327,0-55,24.673-55,55s24.673,55,55,55
		h73.406c10.346,17.519,29.419,29.342,51.129,29.342H327.041z"/>
	<path id="XMLID_813_" style="fill:#4B5E99;" d="M301.303,98.58c-14.59,4.85-26.53,21.41-26.53,36.78V154h30V97.43L301.303,98.58z"
		/>
</g>
<g>
</g>
<g>
</g>
<g>
</g>
<g>
</g>
<g>
</g>
<g>
</g>
<g>
</g>
<g>
</g>
<g>
</g>
<g>
</g>
<g>
</g>
<g>
</g>
<g>
</g>
<g>
</g>
<g>
</g>
</svg>
