<?xml version="1.0" encoding="iso-8859-1"?>
<!-- Generator: Adobe Illustrator 19.0.0, SVG Export Plug-In . SVG Version: 6.00 Build 0)  -->
<svg version="1.1" id="Capa_1" xmlns="http://www.w3.org/2000/svg" xmlns:xlink="http://www.w3.org/1999/xlink" x="0px" y="0px"
	 viewBox="0 0 460 460" style="enable-background:new 0 0 460 460;" xml:space="preserve">
<g id="XMLID_814_">
	<path id="XMLID_815_" style="fill:#42915F;" d="M430,75c0-27.5-22.5-50-50-50h-30v50H430z"/>
	<path id="XMLID_816_" style="fill:#DFEB9B;" d="M355,264.243v-20.728l-64.782,22.55c4.739,9.806,7.4,20.785,7.4,32.355v7.423
		c16.966-5.906,42.943-14.948,63.377-22.062C357.213,278.191,355,271.463,355,264.243z"/>
	<path id="XMLID_817_" style="fill:#DFEB9B;" d="M389.995,269.316c0-0.037,10.157-0.037,10.157-0.037
		C417.158,259.54,430,239.055,430,219.95V75h-80v30h39.995V269.316z"/>
	<path id="XMLID_818_" style="fill:#006E5E;" d="M340,25c-16.5,0-30,13.5-30,30v20h40V25H340z"/>
	<path id="XMLID_819_" style="fill:#A4C662;" d="M210,248.338c0-8.748,1.677-17.101,4.697-24.777h-69.356
		c-3.458,11.535-5.324,23.753-5.324,36.409c0,3.235,0,81.496,0,81.496v13.5c0,22.065-17.952,40.017-40.017,40.017H0V435h100
		c44.131,0,80.034-35.903,80.034-80.034v-13.5h67.479v-32.515C225.278,297.845,210,274.882,210,248.338z"/>
	<path id="XMLID_820_" style="fill:#83B461;" d="M290.218,266.065c-12.125-25.09-37.857-42.504-67.46-42.504h-8.061
		c-3.02,7.677-4.697,16.029-4.697,24.777c0,26.544,15.278,49.507,37.513,60.613V435h50V313.122c0.035-0.011,0.07-0.02,0.105-0.03
		V298.42C297.617,286.85,294.957,275.872,290.218,266.065z"/>
	<rect id="XMLID_821_" x="430" y="269.279" style="fill:#A4C662;" width="30" height="29.977"/>
	<path id="XMLID_822_" style="fill:#42915F;" d="M389.995,269.279c0,0.037,0-164.279,0-164.279H350v28.39h-30v30h-30v-30h-23.4
		c-57.25,0-105.63,38.01-121.27,90.17c0.011,0.001,77.428,0.001,77.428,0.001c29.603,0,55.335,17.414,67.46,42.504L355,243.515
		v20.728c0,7.22,2.213,13.948,5.995,19.538c6.303,9.318,16.974,15.474,29,15.474v-0.059v0.059H430v-29.977H389.995z M270,193.39h-30
		v-30h30V193.39z"/>
	<rect id="XMLID_825_" x="290" y="133.39" style="fill:#006E5E;" width="30" height="30"/>
	<rect id="XMLID_826_" x="240" y="163.39" style="fill:#006E5E;" width="30" height="30"/>
</g>
<g>
</g>
<g>
</g>
<g>
</g>
<g>
</g>
<g>
</g>
<g>
</g>
<g>
</g>
<g>
</g>
<g>
</g>
<g>
</g>
<g>
</g>
<g>
</g>
<g>
</g>
<g>
</g>
<g>
</g>
</svg>
