<?xml version="1.0" encoding="iso-8859-1"?>
<!-- Generator: Adobe Illustrator 19.0.0, SVG Export Plug-In . SVG Version: 6.00 Build 0)  -->
<svg version="1.1" id="Capa_1" xmlns="http://www.w3.org/2000/svg" xmlns:xlink="http://www.w3.org/1999/xlink" x="0px" y="0px"
	 viewBox="0 0 460 460" style="enable-background:new 0 0 460 460;" xml:space="preserve">
<g id="XMLID_1086_">
	<polygon id="XMLID_1087_" style="fill:#FFDA88;" points="110,122.044 80,122.044 80,200.703 110,183.378 	"/>
	<path id="XMLID_1088_" style="fill:#FFDA88;" d="M20.026,235.336L50,218.027v-61.332H20C20,156.695,20,235.365,20.026,235.336z"/>
	<path id="XMLID_1089_" style="fill:#CA6033;" d="M172.384,148.244l-0.386-0.668L110,183.378l-60,34.649l-29.974,17.31
		C8.047,242.282,0,255.197,0,270h110C110,219.865,134.6,175.48,172.384,148.244z"/>
	<path id="XMLID_1090_" style="fill:#FFDA88;" d="M275,120.745V50h-30v70.745c4.934-0.491,9.937-0.745,15-0.745
		S270.066,120.254,275,120.745z"/>
	<path id="XMLID_1091_" style="fill:#FFDA88;" d="M198.353,133.224L162.99,71.975l-25.98,15l34.988,60.601l0.386,0.668
		C180.473,142.413,189.167,137.371,198.353,133.224z"/>
	<path id="XMLID_1092_" style="fill:#FFDA88;" d="M365.981,146.436c16.569-28.698,6.736-65.393-21.961-81.961l-36.498,63.216
		c19.377,6.467,36.989,16.784,51.939,30.038L365.981,146.436z"/>
	<path id="XMLID_1093_" style="fill:#943D4F;" d="M190,329.434V410h60c0-13.061-8.35-24.167-20-28.286v-28.552
		c13.886-4.909,26.598-12.299,37.605-21.641l-66.59-13.318C197.592,322.183,193.911,325.934,190,329.434z"/>
	<path id="XMLID_1094_" style="fill:#FFDA88;" d="M310,299.208l-87.455-17.491c-4.994,13.469-12.336,25.796-21.53,36.487L310,340
		V299.208z"/>
	<path id="XMLID_1095_" style="fill:#FFDA88;" d="M390,190c0,15.184,11.283,27.725,25.92,29.716
		c-9.357,33.306-34.038,60.264-65.92,72.752v42.129C413.422,317.091,460,258.989,460,190H390z"/>
	<path id="XMLID_1096_" style="fill:#FF8417;" d="M201.015,318.203c9.194-10.69,16.536-23.018,21.53-36.487
		C227.363,268.723,230,254.67,230,240V123.003c-11.039,2.241-21.634,5.7-31.647,10.22c-9.186,4.147-17.88,9.189-25.969,15.021
		C134.6,175.48,110,219.865,110,270v140h60c0-13.061-8.35-24.167-20-28.286v-28.552c14.905-5.269,28.458-13.396,40-23.728
		C193.911,325.934,197.592,322.183,201.015,318.203z"/>
	<path id="XMLID_1097_" style="fill:#CA6033;" d="M350,292.469c31.882-12.489,56.563-39.446,65.92-72.752
		C401.283,217.725,390,205.184,390,190h-30v-30l1.668-0.278c-0.729-0.672-1.465-1.336-2.207-1.994
		c-14.951-13.254-32.563-23.571-51.939-30.038c-10.382-3.465-21.268-5.829-32.521-6.946c-4.934-0.49-9.937-0.745-15-0.745
		s-10.066,0.254-15,0.745c-5.079,0.505-10.083,1.261-15,2.259V240c0,14.67-2.637,28.723-7.455,41.716L310,299.208V410h60
		c0-13.061-8.35-24.167-20-28.286V292.469z"/>
	<path id="XMLID_1098_" style="fill:#943D4F;" d="M360,190h100c0-22.091-17.908-40-40-40l-58.332,9.722L360,160V190z"/>
</g>
<g>
</g>
<g>
</g>
<g>
</g>
<g>
</g>
<g>
</g>
<g>
</g>
<g>
</g>
<g>
</g>
<g>
</g>
<g>
</g>
<g>
</g>
<g>
</g>
<g>
</g>
<g>
</g>
<g>
</g>
</svg>
