<?xml version="1.0" encoding="iso-8859-1"?>
<!-- Generator: Adobe Illustrator 19.0.0, SVG Export Plug-In . SVG Version: 6.00 Build 0)  -->
<svg version="1.1" id="Capa_1" xmlns="http://www.w3.org/2000/svg" xmlns:xlink="http://www.w3.org/1999/xlink" x="0px" y="0px"
	 viewBox="0 0 460 460" style="enable-background:new 0 0 460 460;" xml:space="preserve">
<g id="XMLID_905_">
	<path id="XMLID_906_" style="fill:#384276;" d="M133.938,287.743c-2.57,11.002-3.938,22.468-3.938,34.253
		c37.6,0,71.156-17.298,93.158-44.365l-70.164-14.033C147.688,272.453,141.271,280.563,133.938,287.743z"/>
	<path id="XMLID_907_" style="fill:#5E79BC;" d="M167.647,225.737L230,238.208V175h-60v26.997
		C170,210.125,169.187,218.063,167.647,225.737z"/>
	<path id="XMLID_908_" style="fill:#5E79BC;" d="M170,175H40c-22.091,0-40,17.909-40,40h94.877
		C115.152,195.079,141.063,180.874,170,175z"/>
	<path id="XMLID_909_" style="fill:#FFE9B8;" d="M230,238.208l-62.353-12.471c-2.728,13.592-7.753,26.353-14.652,37.862
		l70.164,14.033L230,279V238.208z"/>
	<path id="XMLID_910_" style="fill:#D9BBF2;" d="M460,145h-40c0,46.802-29.385,86.865-70.672,102.725
		c-1.712,16.242-6.666,31.516-14.2,45.168C406.006,280.937,460,219.279,460,145z"/>
	<polygon id="XMLID_911_" style="fill:#D9BBF2;" points="298.701,251.948 230,238.208 230,279 274.706,287.941 	"/>
	<path id="XMLID_912_" style="fill:#384276;" d="M460,145c0-22.091-17.908-40-40-40l-110,10v30H460z"/>
	<path id="XMLID_913_" style="fill:#4B5E99;" d="M152.995,263.599c6.899-11.51,11.924-24.27,14.652-37.862
		c1.54-7.674,2.353-15.612,2.353-23.74V175c-28.937,5.874-54.848,20.079-75.123,40C67.179,242.214,50,280.098,50,321.997
		c32.677,0,62.298-13.067,83.938-34.253C141.271,280.563,147.688,272.453,152.995,263.599z"/>
	<path id="XMLID_914_" style="fill:#4B5E99;" d="M349.328,247.725C390.615,231.865,420,191.802,420,145h-30
		c0,10.558-2.13,20.695-5.969,30H230v63.208l68.701,13.74l-23.996,35.994L230,355c45.28,0,84.696-25.082,105.129-62.107
		C342.663,279.241,347.616,263.967,349.328,247.725z"/>
</g>
<g>
</g>
<g>
</g>
<g>
</g>
<g>
</g>
<g>
</g>
<g>
</g>
<g>
</g>
<g>
</g>
<g>
</g>
<g>
</g>
<g>
</g>
<g>
</g>
<g>
</g>
<g>
</g>
<g>
</g>
</svg>
