<?xml version="1.0" encoding="iso-8859-1"?>
<!-- Generator: Adobe Illustrator 19.0.0, SVG Export Plug-In . SVG Version: 6.00 Build 0)  -->
<svg version="1.1" id="Capa_1" xmlns="http://www.w3.org/2000/svg" xmlns:xlink="http://www.w3.org/1999/xlink" x="0px" y="0px"
	 viewBox="0 0 461 461" style="enable-background:new 0 0 461 461;" xml:space="preserve">
<g id="XMLID_491_">
	<path id="XMLID_493_" style="fill:#FF8417;" d="M430.787,60.5v-30c0-16.568-13.431-30-30-30s-30,13.432-30,30v30H430.787z"/>
	<path id="XMLID_494_" style="fill:#FFB308;" d="M401,292.605v45.637h29.787v-95.047C430.787,262.355,418.036,282.899,401,292.605z"
		/>
	<polygon id="XMLID_495_" style="fill:#FFB308;" points="461,90.5 461,60.5 430.787,60.5 430.763,90.5 	"/>
	<path id="XMLID_496_" style="fill:#A11F95;" d="M430.787,60.5H322v30h30l18.786,20v68.345l-59.907-33.557
		c-44.373-24.818-97.863-7.242-118.867,39.06l-28.37,62.455h53.889c28.327,0,52.922,16.764,64.375,40.856l63.711-21.857
		c6.387,6.747,15.405,10.977,25.367,10.977v-0.059l0.015,0.059v61.463h30v-210h29.733l0.03-37.742L430.787,60.5z M269.77,200.891
		h-30v-30h30V200.891z M309.77,240.891h-30v-30h30V240.891z"/>
	<rect id="XMLID_501_" x="279.77" y="210.891" style="fill:#FF8417;" width="30" height="30"/>
	<rect id="XMLID_502_" x="239.77" y="170.891" style="fill:#FF8417;" width="30" height="30"/>
	<path id="XMLID_503_" style="fill:#FF8417;" d="M243.655,329.261c-22.54-10.037-38.263-32.617-38.263-58.883
		c0-8.324,1.596-16.271,4.469-23.575h-46.219L96.45,395.008C88.418,408.889,69.968,420.5,55.775,420.5H0v40h55.775
		c28.592,0,61.274-20.095,76.023-46.742l0.386-0.696l30.085-66.32l51.396,11.363c0.199,16.398,13.546,29.631,29.991,29.631V329.261z
		"/>
	<path id="XMLID_504_" style="fill:#FFE9B8;" d="M370.985,276.721v0.059c-9.962,0-18.98-4.23-25.367-10.977l-63.711,21.857
		c4.386,9.227,6.853,19.524,6.853,30.372v13.96L371,303.778v-26.999L370.985,276.721z"/>
	<path id="XMLID_505_" style="fill:#FFE9B8;" d="M401,292.605c17.037-9.706,29.787-30.25,29.787-49.41V128.242H401V292.605z"/>
	<path id="XMLID_506_" style="fill:#FFB308;" d="M288.76,318.031c0-10.848-2.467-21.146-6.853-30.372
		c-11.454-24.093-36.048-40.856-64.375-40.856h-7.67c-2.874,7.304-4.469,15.251-4.469,23.575c0,26.266,15.723,48.846,38.263,58.883
		V460.5h45l0.105-128.509V318.031z"/>
</g>
<g>
</g>
<g>
</g>
<g>
</g>
<g>
</g>
<g>
</g>
<g>
</g>
<g>
</g>
<g>
</g>
<g>
</g>
<g>
</g>
<g>
</g>
<g>
</g>
<g>
</g>
<g>
</g>
<g>
</g>
</svg>
