<?xml version="1.0" encoding="iso-8859-1"?>
<!-- Generator: Adobe Illustrator 19.0.0, SVG Export Plug-In . SVG Version: 6.00 Build 0)  -->
<svg version="1.1" id="Capa_1" xmlns="http://www.w3.org/2000/svg" xmlns:xlink="http://www.w3.org/1999/xlink" x="0px" y="0px"
	 viewBox="0 0 459.89 459.89" style="enable-background:new 0 0 459.89 459.89;" xml:space="preserve">
<g id="XMLID_451_">
	<path id="XMLID_452_" style="fill:#FF9C0F;" d="M384.973,294.253v25.637h29.866v-74.905
		C414.775,264.103,401.966,284.572,384.973,294.253z"/>
	<path id="XMLID_453_" style="fill:#FFCB00;" d="M414.838,42.24h-27.208v29.997h-30V42.24h-37.879l-12.76,16.97v30.68h33.06v67.62
		c0,34.242-27.758,62-62,62c-24.111,0-44.993-13.773-55.247-33.872c-16.256,12.343-29.673,27.866-37.333,44.672l-3.78,8.14
		c0.002,0,49.891,0,49.891,0c33.199,0,61.274,23.021,69.07,53.887l45.027-15.424c-11.945-3.959-20.628-15.259-20.628-28.497v-31.543
		h30l-0.007,31.601c0.007-0.023,29.928-0.023,29.928-0.023v-90.94h29.869V72.237C414.838,72.237,414.838,42.24,414.838,42.24z"/>
	<path id="XMLID_454_" style="fill:#FFE9B8;" d="M384.973,294.253c16.993-9.682,29.802-30.151,29.866-49.269
		c0-0.048,0.003-0.097,0.003-0.145v-87.33h-29.869V294.253z"/>
	<path id="XMLID_455_" style="fill:#FFE9B8;" d="M355.051,278.427l-0.013-0.05v0.05c-3.266,0-6.41-0.537-9.359-1.514l-45.027,15.424
		c1.404,5.557,2.158,11.365,2.158,17.342v13.597c0,0.034,52.24-17.861,52.24-17.861V278.427z"/>
	<path id="XMLID_458_" style="fill:#FFB308;" d="M387.631,42.237c0,0.003,27.208,0.003,27.208,0.003
		C414.84,18.908,395.921,0,372.602,0c-13.82,0-26.08,6.63-33.79,16.88l-19.06,25.36h37.879
		C357.631,42.237,387.631,42.237,387.631,42.237z"/>
	<path id="XMLID_459_" style="fill:#FFB308;" d="M384.973,248.451h-29.921c-0.007,0.023,0-31.577,0-31.577h-30v31.543
		c0,13.237,8.684,24.538,20.628,28.497c2.949,0.977,6.094,1.514,9.359,1.514v-0.05l0.013,41.513h29.921V248.451z"/>
	<path id="XMLID_460_" style="fill:#5E79BC;" d="M302.811,356.356l0-33.046C302.812,323.31,302.783,356.35,302.811,356.356z"/>
	<path id="XMLID_461_" style="fill:#5E79BC;" d="M219.444,262.026c0-8.324,1.596-16.271,4.469-23.575h-42.219
		c-0.004,0.01-71.192,155.947-71.192,155.947c-8.032,13.881-26.482,25.492-40.675,25.492H15.052v40h54.775
		c28.592,0,61.274-20.095,76.023-46.742l0.386-0.696l37.682-83.067l78.895,17.897v-24.357
		C237.574,314.192,219.444,290.233,219.444,262.026z"/>
	<path id="XMLID_462_" style="fill:#384276;" d="M302.811,309.679c0-5.977-0.755-11.785-2.158-17.342
		c-7.796-30.865-35.871-53.887-69.07-53.887h-7.67c-2.874,7.304-4.469,15.251-4.469,23.575c0,28.208,18.131,52.166,43.368,60.899
		V459.89h39.88l0.091-103.541l0.029-33.04C302.811,323.31,302.811,309.679,302.811,309.679z"/>
	<rect id="XMLID_463_" x="414.838" y="42.237" style="fill:#FF9C0F;" width="30" height="30"/>
	<rect id="XMLID_464_" x="357.631" y="42.237" style="fill:#FF9C0F;" width="30" height="30"/>
	<path id="XMLID_466_" style="fill:#5E79BC;" d="M278.052,219.51c34.241,0,62-27.758,62-62h-41.399
		c-25.52,0-53.36,11.034-75.814,28.104C233.059,205.737,253.94,219.51,278.052,219.51z"/>
</g>
<g>
</g>
<g>
</g>
<g>
</g>
<g>
</g>
<g>
</g>
<g>
</g>
<g>
</g>
<g>
</g>
<g>
</g>
<g>
</g>
<g>
</g>
<g>
</g>
<g>
</g>
<g>
</g>
<g>
</g>
</svg>
