<?xml version="1.0" encoding="iso-8859-1"?>
<!-- Generator: Adobe Illustrator 19.0.0, SVG Export Plug-In . SVG Version: 6.00 Build 0)  -->
<svg version="1.1" id="Capa_1" xmlns="http://www.w3.org/2000/svg" xmlns:xlink="http://www.w3.org/1999/xlink" x="0px" y="0px"
	 viewBox="0 0 460 460" style="enable-background:new 0 0 460 460;" xml:space="preserve">
<g id="XMLID_859_">
	<rect id="XMLID_860_" x="85" y="88.632" style="fill:#FFDA88;" width="30" height="30"/>
	<path id="XMLID_861_" style="fill:#FFCB00;" d="M390,257.426c0,0.014,30,0.014,30,0.014v-27.254
		C412.759,241.969,402.14,251.862,390,257.426z"/>
	<rect id="XMLID_862_" x="420" y="257.44" style="fill:#FFCB00;" width="30" height="70"/>
	<path id="XMLID_863_" style="fill:#CA6033;" d="M279.835,288.728c-1.677,25.959-17.491,48.061-39.835,58.677V450.44h30v-96.29
		c30.945,0,57.182-20.089,66.429-47.93c-7.705-7.925-13.551-17.662-16.829-28.52L279.835,288.728z"/>
	<path id="XMLID_864_" style="fill:#FFE9B8;" d="M316.61,257.44v-10.043L280,257.549v26.601c0,1.54-0.067,3.063-0.165,4.578
		l39.765-11.027C317.662,271.286,316.61,264.487,316.61,257.44z"/>
	<path id="XMLID_865_" style="fill:#FFE9B8;" d="M400,168.632V197c0,7.893-4.055,16.674-10.001,23.504l-0.007,36.925
		c12.148-5.567,22.767-15.46,30.007-27.243c6.259-10.186,10-21.773,10-33.185v-28.369H400z"/>
	<rect id="XMLID_866_" x="180" y="314.15" style="fill:#FF8417;" width="30" height="136.29"/>
	<rect id="XMLID_867_" x="115" y="88.632" style="fill:#FFCB00;" width="30" height="30"/>
	<path id="XMLID_868_" style="fill:#CA6033;" d="M400,58.58l-50-10.634v20.686c0,27.614,22.385,50,50,50V58.58z"/>
	<path id="XMLID_869_" style="fill:#9541DC;" d="M389.987,287.37c-16.481,0.047-29.968-13.44-29.986-29.93H316.61
		c0,7.047,1.052,13.846,2.989,20.26c3.278,10.857,9.124,20.594,16.829,28.52c12.719,13.082,30.495,21.22,50.181,21.22H390
		C390,327.44,390,287.417,389.987,287.37z"/>
	<rect id="XMLID_870_" x="316.61" y="217.44" style="fill:#BF8DEA;" width="43.39" height="40"/>
	<path id="XMLID_871_" style="fill:#FFDA88;" d="M390,257.44c-0.007-0.011-0.001-36.936-0.001-36.936
		C395.945,213.675,400,204.894,400,197v-28.369H226.61v30h-30v-30H55c-13.785,0-25-11.215-25-25s11.215-25,25-25v-30
		c-30.327,0-55,24.673-55,55s24.673,55.051,55,55.051h70.947l47.889,34.886c8.891,6.477,25.165,11.776,36.165,11.776V354.15
		c10.737,0,20.906-2.425,30-6.745c22.344-10.616,38.157-32.718,39.835-58.677c0.098-1.515,0.165-3.038,0.165-4.578v-26.601
		l36.61-10.152V217.44H360v39.966c0.02,16.524,13.506,30.011,29.987,30.011c0.013,0,0.013,40.023,0.013,40.023h30v-70H390z
		 M286.61,228.632h-30v-30h30V228.632z"/>
	<path id="XMLID_874_" style="fill:#9541DC;" d="M400,58.735h30V39.56h30v-30h-30c0,0-13.5,0-30,0V58.735z"/>
	<polygon id="XMLID_875_" style="fill:#FF8417;" points="400,9.56 310.57,9.56 310.57,39.56 350,47.946 400,58.58 	"/>
	<rect id="XMLID_876_" x="400" y="58.735" style="fill:#BF8DEA;" width="30" height="109.896"/>
	<rect id="XMLID_877_" x="55" y="88.632" style="fill:#FFCB00;" width="30" height="30"/>
	<rect id="XMLID_878_" x="196.61" y="168.632" style="fill:#FFE9B8;" width="30" height="30"/>
	<rect id="XMLID_879_" x="256.61" y="198.632" style="fill:#FFE9B8;" width="30" height="30"/>
</g>
<g>
</g>
<g>
</g>
<g>
</g>
<g>
</g>
<g>
</g>
<g>
</g>
<g>
</g>
<g>
</g>
<g>
</g>
<g>
</g>
<g>
</g>
<g>
</g>
<g>
</g>
<g>
</g>
<g>
</g>
</svg>
