<svg height="512" viewBox="0 0 58 47" width="512" xmlns="http://www.w3.org/2000/svg"><g id="023---Pig" fill="none"><path id="Shape" d="m4 16h-3c-.55228475 0-1 .4477153-1 1v7c0 .5522847.44771525 1 1 1h2.5z" fill="#ff5364"/><path id="Shape" d="m15.14 33.45-13.14-8.45 2-9 5-9 14.18 10.15z" fill="#df4d60"/><path id="Shape" d="m41.85 34.7 6.15 12.3 6-17-7.19-4.5z" fill="#df4d60"/><path id="Shape" d="m52 3h3l3-3v8l-4.73 1.18z" fill="#ff5364"/><path id="Shape" d="m52.29 11.29 1.71-2.29-2-6-4 4v4.44z" fill="#df4d60"/><path id="Shape" d="m25 4h20l12.57 12.57c.2619438.2613989.3581156.6460862.25 1l-3.82 12.43-44 17 10.88-28.68z" fill="#ff5364"/><path id="Shape" d="m9 7 3-3h13l3.63 13.63c.0822297.3138865.0070509.648158-.2016513.8966129-.2087021.248455-.5249799.3802033-.8483487.3533871l-10.12-.88c-.2915876-.0233194-.558345-.173142-.73-.41z" fill="#fb7b76"/></g></svg>