<?xml version="1.0" encoding="windows-1252"?>
<!-- Generator: Adobe Illustrator 16.0.0, SVG Export Plug-In . SVG Version: 6.00 Build 0)  -->
<!DOCTYPE svg PUBLIC "-//W3C//DTD SVG 1.1//EN" "http://www.w3.org/Graphics/SVG/1.1/DTD/svg11.dtd">
<svg version="1.1" id="Capa_1" xmlns="http://www.w3.org/2000/svg" xmlns:xlink="http://www.w3.org/1999/xlink" x="0px" y="0px" width="33.165px" height="33.165px" viewBox="0 0 33.165 33.165" style="enable-background:new 0 0 33.165 33.165;" xml:space="preserve">
<g>
	<g>
		<path d="M2.523,14.596c0,1.251,0.753,2.296,1.794,2.855c-0.42,0.085-0.55,0.273-0.274,0.5c2.297,0.149,4.754,1.149,6.627,2.831    c1.889,1.698,3.316,3.946,3.959,6.435c0.182,0.628,0.25,1.208,0.398,1.906c0.175,0.688,0.553,1.323,1.069,1.825    c0.531,0.492,1.19,0.849,1.948,0.949c0.355,0.055,0.735,0.045,1.107-0.025c0.227,0.054,0.463,0.09,0.709,0.09    c1.648,0,3.015-1.354,2.781-3.003c-0.603-4.302-2.538-8.077-5.77-11.353c-2.521-2.521-5.322-4.223-8.444-5.146    c-1.364-0.536-2.788-0.919-4.233-1.135c-0.708-0.113-1.46,0.074-2.024,0.521c-0.572,0.439-0.948,1.104-1.062,1.814    c-0.138,0.751,0.051,1.503,0.438,2.137c0.046,0.08,0.092,0.137,0.14,0.206c0.04,0.057,0.076,0.116,0.119,0.17    c0.011,0.013,0.022,0.034,0.032,0.045c0.038,0.044,0.084,0.081,0.124,0.123c0.088,0.096,0.178,0.188,0.275,0.273    c0.033,0.029,0.068,0.055,0.103,0.083c0.028,0.022,0.055,0.044,0.083,0.066c0.093,0.07,0.188,0.135,0.286,0.194    c0.021,0.013,0.041,0.031,0.062,0.044c0.019,0.007,0.031,0.012,0.05,0.021c0.066,0.036,0.13,0.08,0.199,0.112    c0.171,0.052,0.308,0.096,0.427,0.131c0.194,0.074,0.26,0.096,0.229,0.07c0.962,0.289-0.836-0.325-1.506-1.1    c-0.053-0.078-0.12-0.149-0.164-0.23c-0.119-0.142-0.212-0.301-0.302-0.462c-0.019-0.034-0.039-0.066-0.057-0.101    c-0.021-0.043-0.041-0.086-0.061-0.13c-0.061-0.137-0.111-0.278-0.151-0.422c-0.019-0.074-0.046-0.146-0.06-0.22    C1.37,14.649,1.367,14.63,1.363,14.61c-0.026-0.157-0.042-0.315-0.042-0.475c0.003-0.683,0.263-1.353,0.733-1.845    c0.464-0.494,1.137-0.777,1.812-0.748c0.539,0.055,1.114,0.168,1.675,0.294c-0.005-0.001-0.01-0.003-0.016-0.003    C3.878,11.608,2.523,12.961,2.523,14.596z M15.817,26.44c0.372,0.891,0.634,1.796,0.805,2.707    c0.111,0.598,0.381,1.152,0.761,1.612c-0.408-0.229-0.756-0.555-0.996-0.953c-0.217-0.354-0.356-0.752-0.402-1.148    c-0.049-0.44-0.13-1.027-0.24-1.527c-0.113-0.521-0.251-1.02-0.436-1.54l-0.26-0.697c-0.013-0.028-0.027-0.058-0.04-0.087    C15.31,25.331,15.589,25.869,15.817,26.44z M12.177,21.291C12.176,21.291,12.176,21.291,12.177,21.291    c-0.001,0-0.002-0.001-0.003-0.002C12.175,21.29,12.176,21.29,12.177,21.291z"/>
		<path d="M1.195,4.21C0.928,3.627,0.764,3.376,0.604,3.996c0.203,1.097,0.925,2.012,1.828,2.507    c0.451,0.254,0.94,0.419,1.455,0.482c0.32,0.032,0.624,0.055,0.927,0.082C5.044,7.142,5.282,7.202,5.53,7.23    c1.04,0.116,2.046,0.313,3.035,0.551c0.778,0.224,1.551,0.484,2.305,0.802c3.601,1.513,6.78,4.094,9.222,7.196    c2.47,3.093,4.155,6.747,4.919,10.518c0.1,0.47,0.183,0.945,0.255,1.416c0.085,0.462,0.099,0.947,0.249,1.493    c0.298,1.044,1.043,1.963,2.041,2.392c0.553,0.245,1.155,0.301,1.731,0.217c0.046,0.018,0.094,0.029,0.142,0.045    c-0.843,0.195-1.787,0.029-2.542-0.46c-0.76-0.485-1.325-1.249-1.602-2.106c-0.068-0.215-0.118-0.435-0.154-0.658l-0.087-0.554    l-0.188-1.067c-0.065,0.05-0.089,0.318-0.077,0.718c0.03,0.394-0.024,0.897,0.196,1.754c0.225,0.782,0.733,1.586,1.463,2.124    c0.712,0.539,1.681,0.772,2.377,0.657c0.337,0.025,0.261,0.059,0.059,0.099c-0.114,0.033-0.254,0.064-0.099,0.098    c0.625,0.026,1.248-0.155,1.789-0.471c1.522-0.127,2.729-1.412,2.591-2.985c-0.636-7.217-3.598-13.527-8.852-18.824    c-3.407-3.409-7.204-5.838-11.398-7.317c-1.805-0.759-3.679-1.333-5.58-1.706C6.273,0.955,5.213,0.804,4.155,0.709    c-0.174-0.017-0.347-0.01-0.519,0.008c-0.089,0.005-0.169,0.02-0.248,0.035C3.364,0.756,3.34,0.76,3.317,0.765    c-0.03,0.007-0.066,0.009-0.095,0.018C3.16,0.799,3.101,0.827,3.04,0.847c-0.05,0.017-0.1,0.032-0.147,0.052    C2.838,0.921,2.785,0.94,2.732,0.964C2.686,0.985,2.643,1.01,2.598,1.034C2.565,1.052,2.534,1.073,2.5,1.092    c-0.076,0.044-0.15,0.09-0.223,0.142C2.258,1.247,2.238,1.259,2.219,1.273c-0.04,0.03-0.075,0.064-0.113,0.096    c-0.052,0.043-0.104,0.084-0.151,0.13c-0.05,0.047-0.094,0.098-0.14,0.148C1.786,1.68,1.756,1.712,1.728,1.746    C1.617,1.881,1.513,2.023,1.429,2.178C1.405,2.225,1.398,2.259,1.377,2.303C1.309,2.439,1.265,2.553,1.231,2.66    C1.039,3.228,1.1,3.561,1.095,3.617C1.126,3.71,1.136,3.451,1.246,3.048c0.118-0.397,0.374-0.935,0.796-1.32    c0.406-0.398,0.935-0.63,1.323-0.705c0.151-0.034,0.299-0.046,0.448-0.052C4.04,0.967,4.281,0.985,4.525,1.009l0.569,0.065    c0.492,0.06,0.987,0.124,1.48,0.21c0.718,0.12,1.431,0.279,2.141,0.456C7.673,1.54,6.616,1.374,5.53,1.279    c-1.656-0.146-3.008,1.195-3.008,2.83c0,0.735,0.284,1.397,0.735,1.926C2.115,5.665,1.467,4.775,1.195,4.21z M27.199,29.009    c0.105,0.953,0.592,1.795,1.291,2.348c-0.674-0.101-1.309-0.456-1.719-0.942c-0.539-0.617-0.714-1.371-0.656-1.874    c0.078-0.049,0.141,0.645,0.503,1.219c0.34,0.59,0.915,0.945,0.927,0.826c-0.265-0.288-0.584-0.702-0.786-1.238    c-0.102-0.265-0.177-0.557-0.204-0.858c-0.039-0.37-0.086-0.766-0.152-1.162c-0.258-1.558-0.774-2.985-1.169-3.542    c-0.7-2.596-1.867-5.156-3.402-7.465C24.862,20.045,26.673,24.263,27.199,29.009z"/>
		<path d="M0.214,27.822c-0.154,0.027-0.258,0.369-0.195,0.81c0.066,0.439,0.335,0.95,0.735,1.178    c0.043,0.176-0.183-0.034-0.18,0.083c0.189,0.283,0.506,0.53,0.839,0.707c0.293,0.11,0.646,0.24,0.919,0.279    c-0.152,0.071,0.082,0.456,0.551,0.482c0.073-0.042-0.07-0.175,0-0.218c0.212,0.116,0.437,0.208,0.665,0.292    c0.034,0.019,0.068,0.038,0.105,0.049c0.004,0,0.005-0.002,0.008-0.002c0.047,0.016,0.088,0.041,0.135,0.055    C4,31.592,4.212,31.618,4.423,31.646c0.621,0.37,1.295,0.566,2.06,0.566c1.158,0,2.108-0.402,2.914-1.254    c0.85-0.805,1.25-1.758,1.25-2.915c0-1.153-0.4-2.105-1.25-2.959c-0.326-0.345-0.685-0.597-1.062-0.797    c0.019-0.039,0.033-0.08,0.039-0.132c-1.04-0.6-2.151-0.907-3.251-0.873c-1.103-0.015-2.26,0.375-3.138,1.141    c-0.45,0.406-0.828,0.859-1.098,1.414c-0.266,0.527-0.399,1.204-0.393,1.76c-0.028,0.938,0.381,1.879,1.021,2.483    C0.83,29.558,0.25,28.716,0.214,27.822z M4.605,24.016c0.18,0.022,0.335,0.04,0.505,0.06c-0.204,0.072-0.401,0.165-0.593,0.272    C4.636,24.216,4.541,24.132,4.605,24.016z M1.283,28.218c0.124-0.04,0.189,0.748,0.395,0.644c0.072-0.266,0.066-0.623,0.012-0.974    c-0.009-0.089-0.023-0.178-0.044-0.263c-0.024-0.021-0.034-0.176-0.061-0.247c-0.054-0.191-0.111-0.304-0.2-0.392    c0.193-0.739,0.738-1.319,1.328-1.739c0.51-0.343,1.022-0.555,1.511-0.737c-0.241,0.163-0.476,0.353-0.701,0.577    c-0.801,0.854-1.204,1.806-1.204,2.959c0,1.157,0.403,2.11,1.204,2.915c0.103,0.103,0.212,0.178,0.318,0.267    c-0.312-0.099-0.612-0.226-0.886-0.401c-0.416-0.261-0.788-0.6-1.113-0.979c-0.091-0.124-0.19-0.252-0.285-0.396    C1.279,29.052,1.092,28.533,1.283,28.218z"/>
	</g>
</g>
<g>
</g>
<g>
</g>
<g>
</g>
<g>
</g>
<g>
</g>
<g>
</g>
<g>
</g>
<g>
</g>
<g>
</g>
<g>
</g>
<g>
</g>
<g>
</g>
<g>
</g>
<g>
</g>
<g>
</g>
</svg>