<?xml version="1.0" encoding="iso-8859-1"?>
<!-- Generator: Adobe Illustrator 19.0.0, SVG Export Plug-In . SVG Version: 6.00 Build 0)  -->
<svg version="1.1" id="Capa_1" xmlns="http://www.w3.org/2000/svg" xmlns:xlink="http://www.w3.org/1999/xlink" x="0px" y="0px"
	 viewBox="0 0 460 460" style="enable-background:new 0 0 460 460;" xml:space="preserve">
<g id="XMLID_998_">
	<path id="XMLID_999_" style="fill:#FFDA88;" d="M134.484,168.271l-10.55-10.55l-21.213,21.213l7.287,7.287l20.095-14.27
		C131.54,170.697,133,169.47,134.484,168.271z"/>
	<polygon id="XMLID_1000_" style="fill:#FFDA88;" points="360,85 330,85 330,145 360,140 	"/>
	<path id="XMLID_1001_" style="fill:#FFDA88;" d="M331.966,175c7.396,6.859,14.101,14.451,19.995,22.667H360V175H331.966z"/>
	<path id="XMLID_1002_" style="fill:#83B461;" d="M350,307.687V375h40v-68.787l-15.073-15.074
		C367.22,297.446,358.873,302.996,350,307.687z"/>
	<path id="XMLID_1003_" style="fill:#006E5E;" d="M160,375h40v-36.838c9.359-3.309,18.173-7.762,26.303-13.162H160V375z"/>
	<path id="XMLID_1004_" style="fill:#A4C662;" d="M130.103,171.951l-20.095,14.27l-93.142,66.143C6.672,259.611,0,271.523,0,285v90
		h30l10-90h40v-19.921C84.911,228.072,103.314,195.328,130.103,171.951z"/>
	<path id="XMLID_1005_" style="fill:#FFDA88;" d="M245,135.745V120h-30v15.745c4.934-0.49,9.937-0.745,15-0.745
		S240.066,135.254,245,135.745z"/>
	<path id="XMLID_1006_" style="fill:#FFDA88;" d="M180.715,126.819L152.999,138.3l5.783,13.962
		c8.789-4.637,18.096-8.423,27.809-11.258L180.715,126.819z"/>
	<path id="XMLID_1007_" style="fill:#FFDA88;" d="M374.927,291.14l21.746,21.746l21.213-21.213l-21.746-21.746
		C389.792,277.684,382.684,284.792,374.927,291.14z"/>
	<path id="XMLID_1008_" style="fill:#FFDA88;" d="M440.558,257.741l11.48-27.716l-28.384-11.757
		c-2.914,9.687-6.775,18.962-11.486,27.714L440.558,257.741z"/>
	<path id="XMLID_1009_" style="fill:#FFDA88;" d="M429.255,190H460v-30h-32.919c1.876,4.633,2.919,9.694,2.919,15
		C430,180.063,429.745,185.066,429.255,190z"/>
	<path id="XMLID_1010_" style="fill:#C5D762;" d="M183.942,285c-9.289,16.058-22.194,29.759-37.6,40H280v-40H183.942z"/>
	<path id="XMLID_1011_" style="fill:#C5D762;" d="M430,175h-40.449v9.881c-0.388,4.339-1.031,8.605-1.91,12.786
		c-7.682,36.529-33.542,66.44-67.642,79.8v42.131c10.508-2.9,20.552-6.916,30-11.911c8.873-4.69,17.22-10.24,24.927-16.547
		c7.757-6.348,14.865-13.456,21.213-21.213c6.074-7.422,11.45-15.437,16.029-23.945c4.71-8.752,8.572-18.028,11.486-27.714
		c2.734-9.09,4.635-18.541,5.601-28.268C429.745,185.066,430,180.063,430,175z"/>
	<path id="XMLID_1012_" style="fill:#A4C662;" d="M320,277.467c34.1-13.36,59.959-43.271,67.642-79.8h-35.68
		c-5.894-8.216-12.599-15.808-19.995-22.667H330v-1.793c-7.666-6.862-16.038-12.951-25-18.135V165h-30v-23.128
		c-9.619-3.021-19.654-5.1-30-6.127c-4.934-0.49-9.937-0.745-15-0.745s-10.066,0.254-15,0.745c-5.079,0.504-10.083,1.261-15,2.259
		V225c0,21.858-5.847,42.349-16.058,60H280v90h40V277.467z M215,195h30v30h-30V195z M275,225v-30h30v30H275z"/>
	<path id="XMLID_1016_" style="fill:#42915F;" d="M430,175c0-5.306-1.042-10.367-2.919-15c-5.935-14.656-20.296-25-37.081-25l-60,10
		v30H430z"/>
	<rect id="XMLID_1017_" x="275" y="85" style="fill:#FFDA88;" width="30" height="80"/>
	<rect id="XMLID_1018_" x="275" y="195" style="fill:#FFDA88;" width="30" height="30"/>
	<path id="XMLID_1019_" style="fill:#83B461;" d="M183.942,285C194.153,267.349,200,246.858,200,225v-87.25
		c-4.547,0.88-9.018,1.973-13.409,3.254c-9.713,2.834-19.02,6.621-27.809,11.258c-8.631,4.554-16.766,9.923-24.298,16.009
		c-1.484,1.199-2.945,2.426-4.381,3.68C103.314,195.328,84.911,228.072,80,265.079V375h40v-36.838
		c9.37-3.312,18.205-7.752,26.342-13.162C161.748,314.759,174.653,301.058,183.942,285z M185,195v30h-30v-30H185z"/>
	<rect id="XMLID_1022_" x="155" y="195" style="fill:#FFCB00;" width="30" height="30"/>
	<rect id="XMLID_1023_" x="215" y="195" style="fill:#FFDA88;" width="30" height="30"/>
</g>
<g>
</g>
<g>
</g>
<g>
</g>
<g>
</g>
<g>
</g>
<g>
</g>
<g>
</g>
<g>
</g>
<g>
</g>
<g>
</g>
<g>
</g>
<g>
</g>
<g>
</g>
<g>
</g>
<g>
</g>
</svg>
