<?xml version="1.0" encoding="iso-8859-1"?>
<!-- Generator: Adobe Illustrator 19.0.0, SVG Export Plug-In . SVG Version: 6.00 Build 0)  -->
<svg version="1.1" id="Capa_1" xmlns="http://www.w3.org/2000/svg" xmlns:xlink="http://www.w3.org/1999/xlink" x="0px" y="0px"
	 viewBox="0 0 459.765 459.765" style="enable-background:new 0 0 459.765 459.765;" xml:space="preserve">
<g id="XMLID_536_">
	<path id="XMLID_782_" style="fill:#D9BBF2;" d="M183.975,79.663l-66.692,59.711c-4.091,3.662-6.673,8.975-6.673,14.898h140.12
		V54.162C225.081,54.162,201.688,63.807,183.975,79.663z"/>
	<path id="XMLID_783_" style="fill:#BF8DEA;" d="M384.177,139.375l-27.355-24.492h-69.645V85.335h36.643l-6.334-5.671
		c-17.714-15.856-41.106-25.501-66.755-25.501v100.11h139.035v-6.494C388.641,144.514,386.697,141.631,384.177,139.375z"/>
	<path id="XMLID_784_" style="fill:#AA67E3;" d="M429.765,257.36v74.866h30V204.388C459.765,225.083,447.34,245.777,429.765,257.36z
		"/>
	<path id="XMLID_785_" style="fill:#BF8DEA;" d="M209.535,346.795v89.087h40v-83.959c42.681,0,78.421-29.71,87.671-69.576
		l-75.954,17.327C251.124,321.562,232.463,338.691,209.535,346.795z"/>
	<path id="XMLID_786_" style="fill:#D9BBF2;" d="M459.763,114.883h-29.998v89.506c0,13.401-12.354,28.892-25.42,31.872l-4.585,1.046
		l-0.003,19.949c0.008-0.029,30.008-0.029,30.008-0.029v0.134c17.575-11.583,30-32.277,30-52.972L459.763,114.883z"/>
	<path id="XMLID_787_" style="fill:#D9BBF2;" d="M369.765,244.149l-100.378,22.898c-0.651,11.6-3.5,22.61-8.135,32.627
		l113.544-25.902c-3.174-4.759-5.031-10.462-5.031-16.58V244.149z"/>
	<path id="XMLID_788_" style="fill:#AA67E3;" d="M189.535,154.274H55c-30.327,0-55,24.673-55,55s24.673,55,55,55h34.77v-30H55
		c-13.785,0-25-11.215-25-25s11.215-25,25-25h75.585l18.096,27.178c6.055,9.093,19.89,16.536,30.854,16.638v83.834h-40v123.959h40
		v-83.959c10.52,0,20.616-1.811,30-5.128c22.928-8.104,41.588-25.233,51.717-47.121c4.635-10.017,7.483-21.027,8.135-32.627
		c0.095-1.696,0.148-3.404,0.148-5.124v-17.65C269.535,197.976,234.496,159.285,189.535,154.274z"/>
	<rect id="XMLID_789_" x="377.072" y="55.335" style="fill:#801C80;" width="30" height="30"/>
	<path id="XMLID_790_" style="fill:#5F196B;" d="M409.763,23.883H287.177v31.452h119.9v30h-119.9v29.548h102.588v39.391h-200.23
		c44.961,5.011,80,43.702,80,90v17.65c0,1.72-0.053,3.428-0.148,5.124l100.378-22.898v13.043c0,6.118,1.857,11.821,5.031,16.58
		c5.388,8.079,14.577,13.431,24.956,13.431v-0.05l0.013,0.05v45.023h30v-75h-30c-0.008,0.029-0.005-19.92-0.005-19.92l4.585-1.046
		c13.066-2.98,25.42-18.471,25.42-31.872v-89.506h29.998v-41C459.763,46.383,437.263,23.883,409.763,23.883z"/>
</g>
<g>
</g>
<g>
</g>
<g>
</g>
<g>
</g>
<g>
</g>
<g>
</g>
<g>
</g>
<g>
</g>
<g>
</g>
<g>
</g>
<g>
</g>
<g>
</g>
<g>
</g>
<g>
</g>
<g>
</g>
</svg>
