<?xml version="1.0" encoding="iso-8859-1"?>
<!-- Generator: Adobe Illustrator 19.0.0, SVG Export Plug-In . SVG Version: 6.00 Build 0)  -->
<svg version="1.1" id="Capa_1" xmlns="http://www.w3.org/2000/svg" xmlns:xlink="http://www.w3.org/1999/xlink" x="0px" y="0px"
	 viewBox="0 0 460 460" style="enable-background:new 0 0 460 460;" xml:space="preserve">
<g id="XMLID_1073_">
	<path id="XMLID_1074_" style="fill:#CA6033;" d="M185.096,150.015c13.741-7.935,28.857-13.754,44.904-17.011v-23.247
		c-27.156-34.92-76.589-45.346-115.981-22.603l44.989,77.923L185.096,150.015z"/>
	<polygon id="XMLID_1075_" style="fill:#CA6033;" points="110,132.044 80,132.044 80,210.702 110,193.378 	"/>
	<path id="XMLID_1076_" style="fill:#CA6033;" d="M20.026,245.336L50,228.027v-61.332H20C20,166.695,20,245.365,20.026,245.336z"/>
	<path id="XMLID_1077_" style="fill:#4B5E99;" d="M185.096,150.015l-26.088,15.063L110,193.378l-60,34.649l-29.974,17.31
		C8.047,252.282,0,265.197,0,280h110C110,224.439,140.208,175.936,185.096,150.015z"/>
	<path id="XMLID_1078_" style="fill:#943D4F;" d="M260,130c16.61,0,32.587,2.706,47.521,7.69l11.619-20.125
		C313.084,73.745,275.486,40,230,40v93.003C239.694,131.036,249.726,130,260,130z"/>
	<path id="XMLID_1079_" style="fill:#CA6033;" d="M361.668,169.722l32.49-5.415c13.744-39.917-2.209-85.254-40.138-107.153
		l-34.878,60.411l-11.619,20.125C327.86,144.479,346.255,155.506,361.668,169.722z"/>
	<path id="XMLID_1080_" style="fill:#384276;" d="M190,339.434V420h60c0-13.061-8.349-24.167-20-28.286v-28.552
		c13.887-4.909,26.598-12.299,37.605-21.641l-66.59-13.318C197.592,332.183,193.911,335.934,190,339.434z"/>
	<path id="XMLID_1081_" style="fill:#FFE9B8;" d="M350,302.469v42.129C413.422,327.091,460,268.989,460,200h-40
		C420,246.549,390.934,286.434,350,302.469z"/>
	<path id="XMLID_1082_" style="fill:#FFE9B8;" d="M222.545,291.716c-4.994,13.469-12.336,25.796-21.53,36.487L310,350v-40.792
		L222.545,291.716z"/>
	<path id="XMLID_1083_" style="fill:#5E79BC;" d="M201.015,328.203c9.194-10.69,16.536-23.018,21.53-36.487
		C227.363,278.723,230,264.67,230,250V133.003c-16.047,3.257-31.163,9.076-44.904,17.011C140.208,175.936,110,224.439,110,280v140
		h60c0-13.061-8.349-24.167-20-28.286v-28.552c14.905-5.269,28.458-13.396,40-23.728
		C193.911,335.934,197.592,332.183,201.015,328.203z"/>
	<path id="XMLID_1084_" style="fill:#4B5E99;" d="M350,302.469c40.934-16.035,70-55.92,70-102.469h-60v-30l1.668-0.278
		c-15.412-14.216-33.808-25.243-54.146-32.032C292.587,132.706,276.61,130,260,130c-10.274,0-20.306,1.036-30,3.003V250
		c0,14.67-2.637,28.723-7.455,41.716L310,309.208V420h60c0-13.061-8.349-24.167-20-28.286V302.469z"/>
	<path id="XMLID_1085_" style="fill:#384276;" d="M360,170v30h100c0-22.091-17.908-40-40-40l-25.842,4.307l-32.49,5.415L360,170z"/>
</g>
<g>
</g>
<g>
</g>
<g>
</g>
<g>
</g>
<g>
</g>
<g>
</g>
<g>
</g>
<g>
</g>
<g>
</g>
<g>
</g>
<g>
</g>
<g>
</g>
<g>
</g>
<g>
</g>
<g>
</g>
</svg>
