<?xml version="1.0" encoding="iso-8859-1"?>
<!-- Generator: Adobe Illustrator 19.0.0, SVG Export Plug-In . SVG Version: 6.00 Build 0)  -->
<svg version="1.1" id="Capa_1" xmlns="http://www.w3.org/2000/svg" xmlns:xlink="http://www.w3.org/1999/xlink" x="0px" y="0px"
	 viewBox="0 0 459.995 459.995" style="enable-background:new 0 0 459.995 459.995;" xml:space="preserve">
<g id="XMLID_224_">
	<path id="XMLID_225_" style="fill:#FFCB00;" d="M359.996,409.915h40V309.599c-11.357,9.543-25.215,16.015-40,18.497V409.915z"/>
	<path id="XMLID_226_" style="fill:#FFB308;" d="M110.076,269.984l-0.326-0.069l0.34-0.177
		c3.199-47.743,28.739-89.364,66.254-114.507L20.026,245.501C8.061,252.424,0,265.349,0,280.165h109.75v-0.25
		C109.75,276.578,109.861,273.267,110.076,269.984z"/>
	<path id="XMLID_227_" style="fill:#FFB308;" d="M190,329.127v80.788h40v-56.588c20.444-7.227,38.344-19.833,51.999-36.123
		l-69.674-14.982C206.22,312.251,198.682,321.312,190,329.127z"/>
	<path id="XMLID_228_" style="fill:#FFDA88;" d="M329.344,147.014c-8.66-4.544-17.817-8.267-27.371-11.064v20.169L329.344,147.014z"
		/>
	<path id="XMLID_229_" style="fill:#FFDA88;" d="M110.076,269.984c0.005-0.082,0.009-0.165,0.015-0.247l-0.34,0.177L110.076,269.984
		z"/>
	<path id="XMLID_230_" style="fill:#FFE9B8;" d="M459.085,127.657c-0.008,0.028-0.012,0.046-0.015,0.064
		C459.078,127.685,459.085,127.657,459.085,127.657z"/>
	<path id="XMLID_231_" style="fill:#FFE9B8;" d="M319.75,294.663l-95.035-20.274c-2.956,9.871-7.141,19.21-12.389,27.833
		l107.424,23.1V294.663z"/>
	<path id="XMLID_232_" style="fill:#FFCB00;" d="M212.326,302.222c5.249-8.623,9.434-17.962,12.389-27.833
		c3.27-10.92,5.035-22.49,5.035-34.475V132.918c-19.433,3.946-37.495,11.648-53.406,22.312
		c-37.515,25.144-63.055,66.764-66.254,114.507c-0.005,0.082-0.01,0.165-0.015,0.247c-0.215,3.283-0.326,6.594-0.326,9.931v130h40
		v-56.838c15.013-5.307,28.654-13.512,40.25-23.95C198.682,321.312,206.22,312.251,212.326,302.222z"/>
	<path id="XMLID_233_" style="fill:#FFDA88;" d="M359.75,297.401c18.046-4.876,33.352-19.231,37.906-38.049l9.475-39.188H259.75v-20
		c0-10.148,4.85-20.768,12.223-28.657v-41.095c-4.032-0.325-8.107-0.498-12.223-0.498c-10.274,0-20.307,1.033-30,3
		c0,0.003,0,107,0,107c0,11.984-1.765,23.554-5.035,34.475l95.035,20.274v115.251h40V297.401z"/>
	
		<rect id="XMLID_235_" x="302.693" y="90.767" transform="matrix(0.7071 0.7071 -0.7071 0.7071 173.3325 -206.9254)" style="fill:#FFE9B8;" width="67.505" height="30"/>
	<polygon id="XMLID_236_" style="fill:#FFDA88;" points="385.394,104.551 392.132,97.813 344.399,50.08 323.186,71.293 
		370.919,119.026 	"/>
	<path id="XMLID_237_" style="fill:#FFE9B8;" d="M288.216,160.695l13.756-4.576v-33.612h-30v49.001
		C276.588,166.57,282.189,162.7,288.216,160.695z"/>
	<path id="XMLID_238_" style="fill:#FFE9B8;" d="M435.037,175.442c-14.355,14.355-32.559,22.504-51.289,24.477v20.246h23.384
		l-9.475,39.188c-4.554,18.818-19.86,33.173-37.906,38.049v30.735c0.082-0.013,0.164-0.026,0.246-0.04
		c14.785-2.482,28.643-8.954,40-18.497c12.969-10.897,22.685-25.77,26.819-43.189c6.419-27.051,22.482-96.424,29.22-125.557
		C452.049,153.504,445.064,165.415,435.037,175.442z"/>
	<path id="XMLID_239_" style="fill:#FFB308;" d="M459.079,127.666c3.796-25.762-4.214-52.929-24.043-72.757l-85.331,85.331
		l-61.489,20.455c-6.027,2.005-11.629,5.875-16.244,10.813c-7.373,7.889-12.223,18.509-12.223,28.657v20h123.997v-20.246
		c18.731-1.973,36.934-10.121,51.289-24.477c10.028-10.028,17.012-21.938,20.998-34.589c1.357-4.307,2.379-8.696,3.036-13.131
		C459.073,127.703,459.077,127.685,459.079,127.666z"/>
</g>
<g>
</g>
<g>
</g>
<g>
</g>
<g>
</g>
<g>
</g>
<g>
</g>
<g>
</g>
<g>
</g>
<g>
</g>
<g>
</g>
<g>
</g>
<g>
</g>
<g>
</g>
<g>
</g>
<g>
</g>
</svg>
