<svg height="512" viewBox="0 0 58 55" width="512" xmlns="http://www.w3.org/2000/svg"><g id="017---Turtle" fill="none"><g fill="#26b99a"><path id="Shape" d="m37 9-2.59-7.55c-.2452099-.85729669-1.0283253-1.44871195-1.92-1.45h-7c-.8916747.00128805-1.6747901.59270331-1.92 1.45l-2.57 7.55z"/><path id="Shape" d="m45.78 18.56 12.22 2.44-18-14h-22l-18 14 12.22-2.44z"/><path id="Shape" d="m41.05 47.42 10.95 7.58h-11.76c-.758944-.0004027-1.45227-.4303423-1.79-1.11l-.74-1.47h-17.42l-.74 1.47c-.33773.6796577-1.031056 1.1095973-1.79 1.11h-11.76l11-7.58z"/></g><path id="Shape" d="m51.36 32-14.77 22.11c-.370262.554962-.9928604.8887648-1.66.89h-11.86c-.6671396-.0012352-1.289738-.335038-1.66-.89l-14.77-22.11c-.40157285-.5934518-.45497849-1.3563896-.14-2 .1-.1 4-7.93 11.5-23h22c7.54 15.07 11.4 22.9 11.5 23 .3047533.6455675.25172 1.4031857-.14 2z" fill="#a56a43"/><path id="Shape" d="m17 31c0 .5522847-.4477153 1-1 1h-9.34c-.38895455-.5964278-.449186-1.349321-.16-2h9.5c.5522847 0 1 .4477153 1 1z" fill="#805333"/><path id="Shape" d="m51.36 32h-31.36c-.5522847 0-1-.4477153-1-1s.4477153-1 1-1h31.5c.3047533.6455675.25172 1.4031857-.14 2z" fill="#805333"/></g></svg>